<svg width="37" height="38" viewBox="0 0 37 38" fill="none" xmlns="http://www.w3.org/2000/svg">
<g clip-path="url(#clip0)">
<path d="M37 19.3279C37 24.2235 35.0553 28.9185 31.5936 32.3802C28.1319 35.8419 23.4369 37.7867 18.5413 37.7867C13.6457 37.7867 8.95066 35.8419 5.48897 32.3802C2.02728 28.9185 0.0825195 24.2235 0.0825195 19.3279C0.0825195 14.4323 2.02728 9.73728 5.48897 6.27559C8.95066 2.8139 13.6457 0.869141 18.5413 0.869141C23.4369 0.869141 28.1319 2.8139 31.5936 6.27559C35.0553 9.73728 37 14.4323 37 19.3279ZM12.436 11.5891C12.2194 11.3724 11.9256 11.2507 11.6192 11.2507C11.3129 11.2507 11.0191 11.3724 10.8024 11.5891C10.5858 11.8057 10.4641 12.0995 10.4641 12.4059C10.4641 12.7122 10.5858 13.006 10.8024 13.2227L16.91 19.3279L10.8024 25.4331C10.6952 25.5404 10.6101 25.6677 10.552 25.8079C10.494 25.948 10.4641 26.0982 10.4641 26.2499C10.4641 26.4016 10.494 26.5518 10.552 26.692C10.6101 26.8321 10.6952 26.9595 10.8024 27.0667C11.0191 27.2834 11.3129 27.4051 11.6192 27.4051C11.7709 27.4051 11.9211 27.3752 12.0613 27.3171C12.2014 27.2591 12.3288 27.174 12.436 27.0667L18.5413 20.9592L24.6465 27.0667C24.7538 27.174 24.8811 27.2591 25.0213 27.3171C25.1614 27.3752 25.3116 27.4051 25.4633 27.4051C25.615 27.4051 25.7652 27.3752 25.9054 27.3171C26.0455 27.2591 26.1729 27.174 26.2801 27.0667C26.3874 26.9595 26.4725 26.8321 26.5305 26.692C26.5886 26.5518 26.6184 26.4016 26.6184 26.2499C26.6184 26.0982 26.5886 25.948 26.5305 25.8079C26.4725 25.6677 26.3874 25.5404 26.2801 25.4331L20.1726 19.3279L26.2801 13.2227C26.3874 13.1154 26.4725 12.9881 26.5305 12.8479C26.5886 12.7078 26.6184 12.5576 26.6184 12.4059C26.6184 12.2542 26.5886 12.104 26.5305 11.9638C26.4725 11.8237 26.3874 11.6963 26.2801 11.5891C26.1729 11.4818 26.0455 11.3967 25.9054 11.3387C25.7652 11.2806 25.615 11.2507 25.4633 11.2507C25.3116 11.2507 25.1614 11.2806 25.0213 11.3387C24.8811 11.3967 24.7538 11.4818 24.6465 11.5891L18.5413 17.6966L12.436 11.5891Z" fill="#2C4761"/>
</g>
<defs>
<clipPath id="clip0">
<rect width="36.9175" height="36.9175" fill="white" transform="translate(0.0825195 0.869141)"/>
</clipPath>
</defs>
</svg>
