<svg width="161" height="40" viewBox="0 0 161 40" fill="none" xmlns="http://www.w3.org/2000/svg">
<path d="M55.0505 18.5149C56.4467 19.3061 57.1448 20.5083 57.1448 22.1217C57.1448 23.6109 56.6561 24.7822 55.6788 25.6354C54.717 26.4886 53.3131 26.9152 51.467 26.9152H44.5792V10.6265H51.0482C52.8787 10.6265 54.2749 11.0221 55.2367 11.8133C56.1985 12.6044 56.6794 13.7369 56.6794 15.2106C56.6794 16.6223 56.1365 17.7237 55.0505 18.5149ZM50.769 14.6289H49.2332V16.8162L51.0249 16.793C51.692 16.6999 52.0255 16.3431 52.0255 15.7226C52.0255 15.3658 51.9014 15.0943 51.6532 14.9081C51.405 14.722 51.1102 14.6289 50.769 14.6289ZM51.1878 22.9129C51.5601 22.9129 51.8704 22.8043 52.1186 22.5871C52.3668 22.3699 52.4909 22.0907 52.4909 21.7494C52.4909 21.0978 52.1419 20.7178 51.4438 20.6092L49.2332 20.5859V22.9129H51.1878ZM61.926 10.6265H66.5799V26.9152H61.926V10.6265ZM80.095 27.2875C77.6439 27.2875 75.6117 26.4731 73.9983 24.8442C72.385 23.2154 71.5783 21.1909 71.5783 18.7709C71.5783 16.3508 72.385 14.3264 73.9983 12.6975C75.6117 11.0687 77.6439 10.2542 80.095 10.2542C81.5997 10.2542 82.9881 10.611 84.2602 11.3246C85.5323 12.0382 86.5251 13 87.2387 14.21L83.1898 16.537C82.9261 16.0096 82.515 15.5907 81.9565 15.2804C81.398 14.9702 80.7775 14.8151 80.095 14.8151C78.947 14.8151 78.0162 15.1874 77.3026 15.932C76.589 16.6766 76.2322 17.6229 76.2322 18.7709C76.2322 19.9188 76.589 20.8651 77.3026 21.6098C78.0162 22.3544 78.947 22.7267 80.095 22.7267C80.793 22.7267 81.4136 22.5716 81.9565 22.2613C82.515 21.9511 82.9261 21.5244 83.1898 20.9815L87.2387 23.3084C86.5251 24.534 85.5323 25.5035 84.2602 26.2171C82.9881 26.9307 81.5997 27.2875 80.095 27.2875ZM103.295 10.6265V15.1408H99.4554V26.9152H94.8015V15.1408H90.962V10.6265H103.295ZM121.411 24.8442C119.751 26.4731 117.711 27.2875 115.291 27.2875C112.871 27.2875 110.823 26.4731 109.148 24.8442C107.488 23.1998 106.658 21.1754 106.658 18.7709C106.658 16.3664 107.488 14.3497 109.148 12.7208C110.823 11.0764 112.871 10.2542 115.291 10.2542C117.711 10.2542 119.751 11.0764 121.411 12.7208C123.086 14.3497 123.924 16.3664 123.924 18.7709C123.924 21.1754 123.086 23.1998 121.411 24.8442ZM112.429 21.6098C113.189 22.3544 114.143 22.7267 115.291 22.7267C116.439 22.7267 117.385 22.3544 118.13 21.6098C118.89 20.8496 119.27 19.9033 119.27 18.7709C119.27 17.6384 118.89 16.6999 118.13 15.9553C117.385 15.1951 116.439 14.8151 115.291 14.8151C114.143 14.8151 113.189 15.1951 112.429 15.9553C111.684 16.6999 111.312 17.6384 111.312 18.7709C111.312 19.9033 111.684 20.8496 112.429 21.6098ZM137.327 26.892L134.744 21.7727H133.581V26.892H128.927V10.6033H135.442C137.226 10.6033 138.7 11.1307 139.864 12.1856C141.027 13.225 141.609 14.6056 141.609 16.3276C141.609 17.2894 141.384 18.1581 140.934 18.9338C140.5 19.7094 139.887 20.3377 139.096 20.8186L142.307 26.892H137.327ZM133.581 14.8849V17.9099H135.349C135.846 17.9254 136.233 17.8013 136.513 17.5376C136.807 17.2739 136.955 16.9016 136.955 16.4207C136.955 15.9397 136.807 15.5674 136.513 15.3037C136.233 15.0245 135.846 14.8849 135.349 14.8849H133.581ZM160.794 10.6265L155.279 20.7255V26.9152H150.625V20.7255L145.11 10.6265H150.276L152.952 16.3508L155.628 10.6265H160.794Z" fill="url(#paint0_linear)"/>
<path fill-rule="evenodd" clip-rule="evenodd" d="M1.75386 0.564972H21.1838C25.5946 0.564972 33.1205 5.94061 27.3865 16.4162C33.3658 18.8623 39.2111 32.8303 25.1095 39.1677C24.7111 39.3468 24.267 39.435 23.8303 39.435H2.02449H1.61098C1.00198 39.435 0.508286 38.9413 0.508286 38.3323L0.375498 1.94837C0.372712 1.18516 0.99064 0.564972 1.75386 0.564972ZM4.24317 31.4353V4.41928H20.7836C21.3349 4.41928 26.1868 5.2463 25.7457 10.7598C25.6998 11.0814 25.4976 11.9452 25.0565 12.8273L20.5079 21.3732L14.9944 11.7246L4.24317 31.4353ZM14.9944 19.1678L5.75938 35.9839H23.2647C30.1565 34.4677 33.1889 24.8191 25.7457 19.7192L20.7836 28.8164L14.9944 19.1678Z" fill="url(#paint1_linear)"/>
<defs>
<linearGradient id="paint0_linear" x1="137.29" y1="20.5729" x2="47.7708" y2="20.573" gradientUnits="userSpaceOnUse">
<stop stop-color="#FFBA1D"/>
<stop offset="0.501343" stop-color="#FFCB47"/>
<stop offset="1" stop-color="#FFB81A"/>
</linearGradient>
<linearGradient id="paint1_linear" x1="27.1118" y1="19.8621" x2="1.61583" y2="19.8621" gradientUnits="userSpaceOnUse">
<stop stop-color="#FFBA1D"/>
<stop offset="0.501343" stop-color="#FFCB47"/>
<stop offset="1" stop-color="#FFB81A"/>
</linearGradient>
</defs>
</svg>
