<svg width="142" height="30" viewBox="0 0 142 30" fill="none" xmlns="http://www.w3.org/2000/svg">
<path d="M51.1078 21.4344C51.7187 21.4344 52.2318 21.3611 52.6472 21.2144C53.0626 21.0678 53.3925 20.8724 53.6368 20.628C53.8893 20.3837 54.0685 20.0986 54.1744 19.7728C54.2884 19.447 54.3454 19.1008 54.3454 18.7343C54.3454 18.3515 54.2843 18.0094 54.1622 17.7081C54.04 17.3986 53.8486 17.1379 53.5879 16.9262C53.3273 16.7062 52.9893 16.5393 52.5739 16.4252C52.1667 16.3112 51.6739 16.2542 51.0956 16.2542H47.7847V21.4344H51.1078ZM47.7847 8.87493V13.9818H50.3992C51.5232 13.9818 52.3703 13.7782 52.9404 13.3709C53.5187 12.9637 53.8079 12.3161 53.8079 11.4284C53.8079 10.508 53.5472 9.85232 53.0259 9.46136C52.5047 9.07041 51.6902 8.87493 50.5825 8.87493H47.7847ZM50.5825 6.33372C51.7391 6.33372 52.7287 6.44368 53.5513 6.66359C54.3739 6.8835 55.0459 7.19708 55.5672 7.60433C56.0966 8.01157 56.4835 8.50434 56.7278 9.08262C56.9722 9.66091 57.0943 10.3125 57.0943 11.0374C57.0943 11.4528 57.0332 11.8519 56.9111 12.2347C56.7889 12.6094 56.5975 12.9637 56.3368 13.2976C56.0844 13.6234 55.7586 13.9207 55.3595 14.1895C54.9685 14.4583 54.5002 14.6863 53.9545 14.8736C56.3816 15.4194 57.5952 16.7307 57.5952 18.8076C57.5952 19.557 57.4527 20.2493 57.1676 20.8846C56.8826 21.5199 56.4672 22.0697 55.9215 22.5339C55.3758 22.99 54.7038 23.3484 53.9056 23.609C53.1074 23.8697 52.1952 24 51.1689 24H44.4982V6.33372H50.5825ZM66.4385 11.465V24H63.4086V11.465H66.4385ZM66.8539 7.81202C66.8539 8.07266 66.8009 8.317 66.6951 8.54506C66.5892 8.77312 66.4466 8.97267 66.2674 9.14371C66.0964 9.31475 65.8928 9.45322 65.6566 9.5591C65.4204 9.65684 65.1679 9.70571 64.8991 9.70571C64.6385 9.70571 64.3901 9.65684 64.1538 9.5591C63.9258 9.45322 63.7262 9.31475 63.5552 9.14371C63.3842 8.97267 63.2457 8.77312 63.1398 8.54506C63.0421 8.317 62.9932 8.07266 62.9932 7.81202C62.9932 7.54324 63.0421 7.29075 63.1398 7.05454C63.2457 6.81834 63.3842 6.61472 63.5552 6.44368C63.7262 6.27263 63.9258 6.13824 64.1538 6.0405C64.3901 5.93462 64.6385 5.88168 64.8991 5.88168C65.1679 5.88168 65.4204 5.93462 65.6566 6.0405C65.8928 6.13824 66.0964 6.27263 66.2674 6.44368C66.4466 6.61472 66.5892 6.81834 66.6951 7.05454C66.8009 7.29075 66.8539 7.54324 66.8539 7.81202ZM81.9156 14.1162C81.826 14.2302 81.7364 14.3198 81.6468 14.385C81.5653 14.4501 81.4432 14.4827 81.2803 14.4827C81.1255 14.4827 80.9748 14.4379 80.8282 14.3483C80.6816 14.2506 80.5065 14.1447 80.3029 14.0306C80.0993 13.9085 79.8549 13.8026 79.5698 13.713C79.2929 13.6153 78.9468 13.5664 78.5314 13.5664C78.002 13.5664 77.5377 13.6641 77.1386 13.8596C76.7395 14.0469 76.4056 14.3198 76.1368 14.6782C75.8761 15.0365 75.6807 15.4723 75.5503 15.9854C75.42 16.4904 75.3549 17.0646 75.3549 17.7081C75.3549 18.3759 75.4241 18.9705 75.5626 19.4918C75.7092 20.0131 75.9169 20.4529 76.1856 20.8113C76.4544 21.1615 76.7802 21.4303 77.163 21.6176C77.5458 21.7968 77.9775 21.8864 78.4581 21.8864C78.9386 21.8864 79.3255 21.8294 79.6187 21.7154C79.9201 21.5932 80.1726 21.4629 80.3762 21.3244C80.5798 21.1778 80.7549 21.0475 80.9015 20.9334C81.0563 20.8113 81.2273 20.7502 81.4147 20.7502C81.659 20.7502 81.8423 20.8439 81.9644 21.0312L82.8319 22.1307C82.4979 22.5217 82.1355 22.8516 81.7445 23.1204C81.3536 23.381 80.9463 23.5928 80.5228 23.7557C80.1074 23.9104 79.6757 24.0204 79.2278 24.0855C78.7879 24.1507 78.3481 24.1833 77.9083 24.1833C77.1345 24.1833 76.4056 24.0407 75.7214 23.7557C75.0372 23.4624 74.4386 23.0389 73.9254 22.485C73.4123 21.9312 73.0051 21.2552 72.7037 20.457C72.4105 19.6506 72.2639 18.7343 72.2639 17.7081C72.2639 16.7877 72.3942 15.9366 72.6548 15.1546C72.9236 14.3646 73.3146 13.6845 73.8277 13.1143C74.3408 12.5361 74.9761 12.084 75.7336 11.7582C76.4911 11.4324 77.3626 11.2695 78.3481 11.2695C79.2848 11.2695 80.1033 11.4202 80.8038 11.7216C81.5124 12.0229 82.1477 12.4546 82.7097 13.0166L81.9156 14.1162ZM92.3228 24.1955C91.2314 24.1955 90.3925 23.89 89.8061 23.2792C89.2278 22.6602 88.9386 21.809 88.9386 20.7258V13.7252H87.6558C87.4929 13.7252 87.3545 13.6723 87.2404 13.5664C87.1264 13.4605 87.0694 13.3017 87.0694 13.0899V11.8926L89.0852 11.5627L89.7205 8.14189C89.7613 7.97899 89.8386 7.85274 89.9527 7.76315C90.0667 7.67356 90.2133 7.62876 90.3925 7.62876H91.9563V11.575H95.3039V13.7252H91.9563V20.5181C91.9563 20.909 92.05 21.2144 92.2373 21.4344C92.4328 21.6543 92.6975 21.7642 93.0314 21.7642C93.2188 21.7642 93.3735 21.7439 93.4957 21.7031C93.626 21.6543 93.736 21.6054 93.8256 21.5565C93.9233 21.5077 94.0088 21.4629 94.0821 21.4221C94.1554 21.3733 94.2287 21.3488 94.3021 21.3488C94.3916 21.3488 94.465 21.3733 94.522 21.4221C94.579 21.4629 94.6401 21.528 94.7052 21.6176L95.6093 23.0837C95.1695 23.4502 94.6645 23.7271 94.0944 23.9145C93.5242 24.1018 92.9337 24.1955 92.3228 24.1955ZM106.108 11.2695C107.037 11.2695 107.88 11.4202 108.637 11.7216C109.403 12.0229 110.054 12.4505 110.592 13.0044C111.137 13.5582 111.557 14.2343 111.85 15.0325C112.143 15.8307 112.29 16.7225 112.29 17.7081C112.29 18.7017 112.143 19.5977 111.85 20.3959C111.557 21.1941 111.137 21.8742 110.592 22.4362C110.054 22.9982 109.403 23.4299 108.637 23.7312C107.88 24.0326 107.037 24.1833 106.108 24.1833C105.171 24.1833 104.32 24.0326 103.555 23.7312C102.789 23.4299 102.133 22.9982 101.588 22.4362C101.05 21.8742 100.631 21.1941 100.329 20.3959C100.036 19.5977 99.8894 18.7017 99.8894 17.7081C99.8894 16.7225 100.036 15.8307 100.329 15.0325C100.631 14.2343 101.05 13.5582 101.588 13.0044C102.133 12.4505 102.789 12.0229 103.555 11.7216C104.32 11.4202 105.171 11.2695 106.108 11.2695ZM106.108 21.862C107.151 21.862 107.92 21.5117 108.417 20.8113C108.922 20.1108 109.175 19.0846 109.175 17.7325C109.175 16.3804 108.922 15.3501 108.417 14.6415C107.92 13.9329 107.151 13.5786 106.108 13.5786C105.049 13.5786 104.263 13.937 103.75 14.6537C103.245 15.3623 102.993 16.3886 102.993 17.7325C102.993 19.0764 103.245 20.1027 103.75 20.8113C104.263 21.5117 105.049 21.862 106.108 21.862ZM120.86 13.6397C121.251 12.8904 121.715 12.3039 122.252 11.8804C122.79 11.4487 123.425 11.2329 124.158 11.2329C124.737 11.2329 125.201 11.3591 125.551 11.6116L125.356 13.8718C125.315 14.0184 125.254 14.1243 125.172 14.1895C125.099 14.2465 124.997 14.275 124.867 14.275C124.745 14.275 124.562 14.2546 124.317 14.2139C124.081 14.1732 123.849 14.1528 123.621 14.1528C123.287 14.1528 122.99 14.2017 122.729 14.2994C122.468 14.3972 122.232 14.5397 122.02 14.727C121.817 14.9062 121.633 15.1261 121.471 15.3868C121.316 15.6474 121.169 15.9447 121.031 16.2786V24H118.013V11.465H119.785C120.094 11.465 120.31 11.522 120.432 11.636C120.554 11.7419 120.636 11.9374 120.676 12.2225L120.86 13.6397ZM141.936 11.465L135.106 27.4453C135.017 27.6571 134.899 27.8159 134.752 27.9218C134.613 28.0358 134.398 28.0928 134.104 28.0928H131.856L134.202 23.0593L129.132 11.465H131.783C132.019 11.465 132.203 11.522 132.333 11.636C132.471 11.7501 132.573 11.8804 132.638 12.027L135.302 18.5266C135.391 18.7465 135.465 18.9665 135.522 19.1864C135.587 19.4063 135.648 19.6303 135.705 19.8583C135.778 19.6303 135.852 19.4063 135.925 19.1864C135.998 18.9583 136.08 18.7343 136.169 18.5144L138.686 12.027C138.751 11.8641 138.857 11.7297 139.004 11.6238C139.158 11.5179 139.329 11.465 139.517 11.465H141.936Z" fill="white"/>
<path d="M19.7274 21.2595C19.1114 21.2595 18.3249 20.9431 15.9869 19.6782C14.5873 18.9211 12.7117 17.8595 10.4138 16.522C6.5148 14.2539 2.68279 11.9401 2.64474 11.9169L0 10.3183L17.8456 0.733515C18.3985 0.4351 19.0066 0.252995 19.6325 0.198408C20.2583 0.143821 20.8888 0.217908 21.485 0.416108C23.7665 1.18675 28.0503 2.76319 31.1069 4.65463C34.4303 6.71175 34.8772 9.18214 34.8479 10.473C34.7997 12.6312 33.4101 14.6282 31.038 15.9508C29.135 17.0104 26.7653 18.253 24.699 19.2703C20.959 21.1126 20.3054 21.1998 19.9918 21.2417C19.9042 21.2535 19.8159 21.2594 19.7274 21.2595ZM7.12264 10.4922C8.4019 11.2547 10.0159 12.2112 11.6713 13.1769C17.1578 16.3789 19.096 17.3581 19.7712 17.6563C21.1714 17.1298 25.6079 14.9422 29.3238 12.8711C30.5761 12.1722 31.3072 11.2682 31.3275 10.3901C31.3482 9.47498 30.593 8.47604 29.2564 7.64808C26.3954 5.87705 22.0822 4.3324 20.3608 3.75009C20.2219 3.7052 20.0753 3.68948 19.9301 3.7039C19.7849 3.71832 19.6442 3.76258 19.5169 3.8339L7.12264 10.4922Z" fill="url(#paint0_linear)"/>
<path d="M19.7274 29.0109C19.1114 29.0109 18.3249 28.6945 15.9869 27.4296C14.5873 26.6725 12.7117 25.6109 10.4138 24.2739C6.5148 22.0053 2.68279 19.6914 2.64474 19.6683L0 18.0721L17.8456 8.48345C18.3985 8.18504 19.0066 8.00293 19.6325 7.94835C20.2583 7.89376 20.8888 7.96785 21.485 8.16605C23.7665 8.93669 28.0498 10.5131 31.1069 12.4046C34.4303 14.4617 34.8772 16.9321 34.8479 18.2229C34.7997 20.3812 33.4101 22.3781 31.038 23.7007C29.135 24.7603 26.7653 26.003 24.699 27.0202C20.959 28.8625 20.3054 28.9497 19.9918 28.9916C19.9042 29.0039 19.8159 29.0103 19.7274 29.0109ZM7.12264 18.2441C8.4019 19.0061 10.0159 19.9626 11.6713 20.9283C17.1578 24.1303 19.096 25.1095 19.7712 25.4077C21.1714 24.8817 25.6079 22.696 29.3238 20.6249C30.5761 19.926 31.3072 19.022 31.3275 18.1439C31.3482 17.2288 30.593 16.2298 29.2564 15.4014C26.3954 13.6308 22.0822 12.0862 20.3608 11.5039C20.222 11.4587 20.0753 11.4429 19.93 11.4574C19.7848 11.472 19.6441 11.5165 19.5169 11.5882L7.12264 18.2441Z" fill="url(#paint1_linear)"/>
<defs>
<linearGradient id="paint0_linear" x1="-0.631163" y1="0.18099" x2="30.566" y2="1.07882" gradientUnits="userSpaceOnUse">
<stop stop-color="#FFB703"/>
<stop offset="0.35783" stop-color="#FFD877" stop-opacity="0.99"/>
<stop offset="1" stop-color="#FFBF1E" stop-opacity="0.994003"/>
</linearGradient>
<linearGradient id="paint1_linear" x1="-0.631163" y1="7.93093" x2="30.566" y2="8.8287" gradientUnits="userSpaceOnUse">
<stop stop-color="#FFB703"/>
<stop offset="0.35783" stop-color="#FFD877" stop-opacity="0.99"/>
<stop offset="1" stop-color="#FFBF1E" stop-opacity="0.994003"/>
</linearGradient>
</defs>
</svg>
