<svg width="935" height="641" viewBox="0 0 935 641" fill="none" xmlns="http://www.w3.org/2000/svg">
<path d="M14.1 403.74L14.1 402.628L12.8985 402.623C12.7358 400.372 11.4976 399.081 9.74 399.076C7.87743 399.081 7.02747 400.618 6.64446 402.234L6.55527 402.581L3.55942 402.56C3.70633 401.72 4.21001 401.18 4.96553 401.096L4.96553 399.223C3.29709 399.254 2.07986 400.566 1.89098 402.549L0.668503 402.544L0.668503 403.656L1.89098 403.661C2.09035 405.629 3.29709 407.045 5.03373 407.04C6.57626 407.04 7.46294 405.944 7.9194 404.176L8.04008 403.703L11.2143 403.724C11.0674 404.663 10.5322 405.34 9.5826 405.409L9.5826 407.324C11.5501 407.25 12.7201 405.896 12.8985 403.735L14.1 403.74ZM11.2143 402.612L8.33389 402.591C8.61196 401.636 8.97923 401.028 9.72426 401.022C10.5008 401.028 11.0569 401.652 11.2143 402.612ZM6.27195 403.693C6.0411 404.417 5.65809 405.078 4.91306 405.067C4.23624 405.062 3.71157 404.553 3.55942 403.672L6.27195 403.693ZM12.7568 397.636L12.7568 393.286C12.7568 390.826 11.5029 389.619 9.82919 389.619C8.20272 389.619 7.24783 390.773 7.19012 391.917L7.08518 391.917C6.83859 390.868 6.10406 390.039 4.79763 390.039C3.1974 390.039 2.01165 391.193 2.01165 393.523L2.01165 397.636L12.7568 397.636ZM11.1304 395.689L7.98236 395.689L7.98236 393.544C7.98236 392.342 8.7169 391.597 9.67704 391.597C10.5322 391.597 11.1304 392.185 11.1304 393.596L11.1304 395.689ZM6.5815 395.689L3.61713 395.689L3.61713 393.722C3.61713 392.578 4.2205 391.985 5.04947 391.985C5.99388 391.985 6.5815 392.751 6.5815 393.764L6.5815 395.689ZM3.64337 388.693L3.64337 385.372L12.7568 385.372L12.7568 383.441L3.64337 383.441L3.64337 380.12L2.01165 380.12L2.01165 388.693L3.64337 388.693ZM4.69795 371.454L4.69795 373.043L2.76717 373.043L2.76717 374.943L4.69795 374.943L4.69795 376.086L6.16701 376.086L6.16701 374.943L10.6477 374.943C12.164 374.953 12.909 373.851 12.867 372.424C12.8513 371.884 12.7463 371.511 12.6781 371.307L11.1933 371.627C11.2196 371.732 11.2668 371.947 11.2668 372.183C11.2668 372.66 11.0989 373.043 10.3329 373.043L6.16701 373.043L6.16701 371.454L4.69795 371.454ZM12.9142 366.732C12.9142 364.371 11.251 362.87 8.75887 362.87C6.26145 362.87 4.59301 364.371 4.59301 366.732C4.59301 369.093 6.26145 370.593 8.75887 370.593C11.251 370.593 12.9142 369.093 12.9142 366.732ZM11.3927 366.721C11.3927 368.028 10.2279 368.668 8.75362 368.668C7.27931 368.668 6.09881 368.028 6.09881 366.721C6.09881 365.436 7.27931 364.796 8.75362 364.796C10.2279 364.796 11.3927 365.436 11.3927 366.721ZM12.7568 361.554L12.7568 359.654L10.0496 359.654L9.30977 358.962L12.7568 356.496L12.7568 354.224L8.17649 357.53L4.69795 354.408L4.69795 356.627L7.93514 359.523L7.93514 359.654L2.01165 359.654L2.01165 361.554L12.7568 361.554ZM12.9142 350.202C12.9142 348.323 11.9961 347.033 10.5952 346.697L10.3958 348.47C11.0779 348.727 11.4347 349.357 11.4347 350.175C11.4347 351.403 10.6267 352.216 9.24681 352.232L9.24681 346.618L8.66443 346.618C5.83647 346.618 4.59301 348.318 4.59301 350.301C4.59301 352.61 6.28769 354.116 8.77461 354.116C11.3035 354.116 12.9142 352.631 12.9142 350.202ZM7.96662 352.227C6.93827 352.169 6.07257 351.408 6.07257 350.275C6.07257 349.184 6.87007 348.449 7.96662 348.439L7.96662 352.227ZM8.03483 343.408C6.87007 343.408 6.19849 342.705 6.19849 341.702C6.19849 340.721 6.84383 340.134 7.9194 340.134L12.7568 340.134L12.7568 338.234L7.62559 338.234C5.69481 338.229 4.59301 339.331 4.59301 340.994C4.59301 342.201 5.17015 343.03 6.06733 343.397L6.06733 343.492L4.69795 343.492L4.69795 345.307L12.7568 345.307L12.7568 343.408L8.03483 343.408ZM12.9195 330.911C12.9195 329.646 12.3266 328.891 11.6498 328.545L11.6498 328.482L12.7568 328.482L12.7568 326.656L7.36325 326.656C5.2331 326.656 4.59301 328.392 4.59301 329.93C4.59301 331.624 5.34853 332.925 6.8176 333.345L7.06944 331.572C6.51854 331.383 6.04634 330.848 6.04634 329.919C6.04634 329.038 6.49755 328.555 7.2898 328.555L7.32128 328.555C7.86693 328.555 7.89317 329.127 8.04532 330.549C8.21321 332.112 8.68017 333.608 10.4955 333.608C12.08 333.608 12.9195 332.448 12.9195 330.911ZM11.5239 330.418C11.5239 331.21 11.1618 331.776 10.464 331.776C9.73475 331.776 9.43044 331.142 9.30977 330.292C9.24156 329.793 9.11564 328.796 8.91627 328.55L9.86592 328.55C10.7631 328.55 11.5239 329.274 11.5239 330.418ZM12.7568 325.041L12.7568 323.142L7.85644 323.142C6.86482 323.142 6.19325 322.481 6.19325 321.663C6.19325 320.86 6.73365 320.309 7.56263 320.309L12.7568 320.309L12.7568 318.446L7.73052 318.446C6.82285 318.446 6.19325 317.906 6.19325 316.988C6.19325 316.222 6.64446 315.613 7.64133 315.613L12.7568 315.613L12.7568 313.709L7.34751 313.709C5.5479 313.709 4.59301 314.747 4.59301 316.227C4.59301 317.397 5.17014 318.289 6.06733 318.646L6.06733 318.73C5.1544 319.039 4.59301 319.821 4.59301 320.907C4.59301 321.988 5.14916 322.796 6.06733 323.132L6.06733 323.226L4.69794 323.226L4.69794 325.041L12.7568 325.041ZM12.9142 308.562C12.9142 306.201 11.251 304.7 8.75887 304.7C6.26145 304.7 4.59301 306.201 4.59301 308.562C4.59301 310.923 6.26145 312.424 8.75887 312.424C11.251 312.424 12.9142 310.923 12.9142 308.562ZM11.3927 308.551C11.3927 309.858 10.2279 310.498 8.75362 310.498C7.27931 310.498 6.0988 309.858 6.0988 308.551C6.0988 307.266 7.27931 306.626 8.75362 306.626C10.2279 306.626 11.3927 307.266 11.3927 308.551ZM9.36748 298.247C10.5952 298.247 11.2038 299.124 11.2038 299.963C11.2038 300.876 10.5585 301.485 9.53537 301.485L4.69794 301.485L4.69794 303.384L9.82919 303.384C11.7652 303.384 12.8618 302.282 12.8618 300.698C12.8618 299.491 12.2269 298.641 11.3245 298.274L11.3245 298.19L12.7568 298.19L12.7568 296.348L4.69794 296.348L4.69794 298.247L9.36748 298.247ZM8.03483 292.791C6.87007 292.791 6.19849 292.088 6.19849 291.086C6.19849 290.105 6.84383 289.517 7.9194 289.517L12.7568 289.517L12.7568 287.618L7.62559 287.618C5.69481 287.613 4.59301 288.715 4.59301 290.378C4.59301 291.584 5.17014 292.413 6.06732 292.781L6.06732 292.875L4.69794 292.875L4.69794 294.691L12.7568 294.691L12.7568 292.791L8.03483 292.791ZM4.69794 281.959L4.69794 283.548L2.76717 283.548L2.76717 285.448L4.69794 285.448L4.69794 286.591L6.16701 286.591L6.16701 285.448L10.6477 285.448C12.164 285.458 12.909 284.356 12.867 282.929C12.8513 282.389 12.7463 282.016 12.6781 281.812L11.1933 282.132C11.2196 282.237 11.2668 282.452 11.2668 282.688C11.2668 283.165 11.0989 283.548 10.3329 283.548L6.16701 283.548L6.16701 281.959L4.69794 281.959ZM12.7568 277.296L12.7568 275.397L4.69794 275.397L4.69794 277.296L12.7568 277.296ZM3.55417 276.341C3.55417 275.738 3.09246 275.245 2.52582 275.245C1.95393 275.245 1.49223 275.738 1.49223 276.341C1.49223 276.95 1.95393 277.443 2.52582 277.443C3.09246 277.443 3.55417 276.95 3.55417 276.341ZM8.03483 271.84C6.87006 271.84 6.19849 271.137 6.19849 270.135C6.19849 269.154 6.84383 268.566 7.9194 268.566L12.7568 268.566L12.7568 266.667L7.62558 266.667C5.69481 266.662 4.59301 267.763 4.59301 269.427C4.59301 270.633 5.17014 271.462 6.06732 271.83L6.06732 271.924L4.69794 271.924L4.69794 273.739L12.7568 273.739L12.7568 271.84L8.03483 271.84ZM12.9142 258.147C12.9142 256.122 11.7127 254.831 10.0023 254.695L10.0023 256.51C10.868 256.673 11.3665 257.297 11.3665 258.131C11.3665 259.317 10.3748 260.083 8.72739 260.083C7.10092 260.083 6.12504 259.301 6.12504 258.131C6.12504 257.218 6.71266 256.657 7.48917 256.51L7.48917 254.695C5.74203 254.826 4.59301 256.19 4.59301 258.158C4.59301 260.519 6.29818 262.009 8.75887 262.009C11.1986 262.009 12.9142 260.555 12.9142 258.147ZM12.7568 253.431L12.7568 251.531L4.69794 251.531L4.69794 253.431L12.7568 253.431ZM3.55417 252.476C3.55417 251.872 3.09246 251.379 2.52582 251.379C1.95393 251.379 1.49222 251.872 1.49222 252.476C1.49222 253.084 1.95393 253.578 2.52582 253.578C3.09246 253.578 3.55417 253.084 3.55417 252.476ZM12.7568 249.874L12.7568 247.974L8.01908 247.974C6.99598 247.974 6.27194 247.203 6.27194 246.159C6.27194 245.839 6.32966 245.44 6.38212 245.278L4.63498 245.278C4.6035 245.451 4.58251 245.75 4.58251 245.96C4.58251 246.883 5.10718 247.654 6.04109 247.948L6.04109 248.032L4.69794 248.032L4.69794 249.874L12.7568 249.874ZM12.9142 241.128C12.9142 239.103 11.7127 237.812 10.0023 237.676L10.0023 239.491C10.868 239.654 11.3665 240.278 11.3665 241.112C11.3665 242.298 10.3748 243.064 8.72738 243.064C7.10092 243.064 6.12504 242.282 6.12504 241.112C6.12504 240.199 6.71266 239.638 7.48917 239.491L7.48917 237.676C5.74203 237.807 4.59301 239.171 4.59301 241.138C4.59301 243.499 6.29818 244.989 8.75886 244.989C11.1986 244.989 12.9142 243.536 12.9142 241.128ZM9.36748 231.275C10.5952 231.275 11.2038 232.151 11.2038 232.991C11.2038 233.904 10.5585 234.512 9.53537 234.512L4.69794 234.512L4.69794 236.412L9.82919 236.412C11.7652 236.412 12.8618 235.31 12.8618 233.725C12.8618 232.519 12.2269 231.669 11.3245 231.301L11.3245 231.217L12.7568 231.217L12.7568 229.376L4.69794 229.376L4.69794 231.275L9.36748 231.275ZM2.01164 225.819L2.01164 227.718L12.7568 227.718L12.7568 225.819L2.01164 225.819ZM12.9195 221.842C12.9195 220.578 12.3266 219.822 11.6498 219.476L11.6498 219.413L12.7568 219.413L12.7568 217.587L7.36325 217.587C5.2331 217.587 4.59301 219.324 4.59301 220.861C4.59301 222.556 5.34853 223.857 6.8176 224.277L7.06944 222.503C6.51853 222.314 6.04633 221.779 6.04633 220.851C6.04633 219.969 6.49755 219.487 7.2898 219.487L7.32128 219.487C7.86693 219.487 7.89316 220.058 8.04532 221.48C8.21321 223.044 8.68016 224.539 10.4955 224.539C12.08 224.539 12.9195 223.38 12.9195 221.842ZM11.5239 221.349C11.5239 222.141 11.1618 222.708 10.464 222.708C9.73474 222.708 9.43044 222.073 9.30976 221.223C9.24156 220.725 9.11564 219.728 8.91626 219.481L9.86591 219.481C10.7631 219.481 11.5239 220.205 11.5239 221.349ZM4.69794 211.949L4.69794 213.538L2.76716 213.538L2.76716 215.438L4.69794 215.438L4.69794 216.582L6.16701 216.582L6.16701 215.438L10.6477 215.438C12.164 215.448 12.909 214.346 12.867 212.919C12.8513 212.379 12.7463 212.006 12.6781 211.802L11.1933 212.122C11.2196 212.227 11.2668 212.442 11.2668 212.678C11.2668 213.155 11.0989 213.538 10.3329 213.538L6.16701 213.538L6.16701 211.949L4.69794 211.949ZM12.7568 210.656L12.7568 208.756L4.69794 208.756L4.69794 210.656L12.7568 210.656ZM3.55417 209.701C3.55417 209.098 3.09246 208.604 2.52582 208.604C1.95393 208.604 1.49222 209.098 1.49222 209.701C1.49222 210.31 1.95393 210.803 2.52582 210.803C3.09246 210.803 3.55417 210.31 3.55417 209.701ZM12.9142 203.584C12.9142 201.223 11.251 199.722 8.75886 199.722C6.26145 199.722 4.59301 201.223 4.59301 203.584C4.59301 205.945 6.26145 207.445 8.75886 207.445C11.251 207.445 12.9142 205.945 12.9142 203.584ZM11.3927 203.573C11.3927 204.88 10.2279 205.52 8.75362 205.52C7.2793 205.52 6.0988 204.88 6.0988 203.573C6.0988 202.288 7.2793 201.648 8.75362 201.648C10.2279 201.648 11.3927 202.288 11.3927 203.573ZM8.03482 196.506C6.87006 196.506 6.19849 195.803 6.19849 194.801C6.19849 193.82 6.84383 193.232 7.9194 193.232L12.7568 193.232L12.7568 191.333L7.62558 191.333C5.69481 191.328 4.59301 192.43 4.59301 194.093C4.59301 195.3 5.17014 196.128 6.06732 196.496L6.06732 196.59L4.69794 196.59L4.69794 198.406L12.7568 198.406L12.7568 196.506L8.03482 196.506ZM8.37586 185.856C10.9939 185.856 13.1713 185.158 15.0391 183.779L15.0391 181.989C13.654 183.055 10.8628 183.878 8.37585 183.878C5.88369 183.878 3.09246 183.055 1.70734 181.989L1.70734 183.779C3.57515 185.158 5.75777 185.856 8.37586 185.856ZM12.7568 177.44L12.7568 175.541L4.69794 175.541L4.69794 177.44L12.7568 177.44ZM3.55416 176.485C3.55416 175.882 3.09246 175.389 2.52582 175.389C1.95393 175.389 1.49222 175.882 1.49222 176.485C1.49222 177.094 1.95393 177.587 2.52582 177.587C3.09246 177.587 3.55416 177.094 3.55416 176.485ZM8.03482 171.984C6.87006 171.984 6.19849 171.281 6.19849 170.279C6.19849 169.298 6.84383 168.71 7.91939 168.71L12.7568 168.71L12.7568 166.811L7.62558 166.811C5.69481 166.805 4.593 167.907 4.593 169.57C4.593 170.777 5.17014 171.606 6.06732 171.973L6.06732 172.068L4.69794 172.068L4.69794 173.883L12.7568 173.883L12.7568 171.984L8.03482 171.984ZM2.01164 161.722L12.7568 161.722L12.7568 159.854L5.35902 159.854L5.35902 159.755L12.7253 156.785L12.7253 155.389L5.37476 152.42L5.37476 152.32L12.7568 152.32L12.7568 150.452L2.01164 150.452L2.01164 152.834L9.7977 156.024L9.7977 156.15L2.01164 159.34L2.01164 161.722ZM12.7568 148.712L12.7568 146.813L4.69794 146.813L4.69794 148.712L12.7568 148.712ZM3.55416 147.757C3.55416 147.154 3.09246 146.661 2.52581 146.661C1.95393 146.661 1.49222 147.154 1.49222 147.757C1.49222 148.366 1.95393 148.859 2.52581 148.859C3.09246 148.859 3.55416 148.366 3.55416 147.757ZM2.01164 143.256L2.01164 145.155L12.7568 145.155L12.7568 143.256L2.01164 143.256ZM2.01164 139.699L2.01164 141.598L12.7568 141.598L12.7568 139.699L2.01164 139.699ZM12.7568 138.041L12.7568 136.142L4.69794 136.142L4.69794 138.041L12.7568 138.041ZM3.55416 137.086C3.55416 136.483 3.09245 135.99 2.52581 135.99C1.95393 135.99 1.49222 136.483 1.49222 137.086C1.49222 137.695 1.95393 138.188 2.52581 138.188C3.09245 138.188 3.55416 137.695 3.55416 137.086ZM12.9142 130.969C12.9142 128.608 11.251 127.108 8.75886 127.108C6.26144 127.108 4.593 128.608 4.593 130.969C4.593 133.33 6.26144 134.831 8.75886 134.831C11.251 134.831 12.9142 133.33 12.9142 130.969ZM11.3927 130.959C11.3927 132.265 10.2279 132.905 8.75361 132.905C7.2793 132.905 6.0988 132.265 6.0988 130.959C6.0988 129.673 7.2793 129.033 8.75361 129.033C10.2279 129.033 11.3927 129.673 11.3927 130.959ZM8.03482 123.892C6.87006 123.892 6.19848 123.189 6.19848 122.187C6.19848 121.206 6.84382 120.618 7.91939 120.618L12.7568 120.618L12.7568 118.719L7.62558 118.719C5.6948 118.713 4.593 119.815 4.593 121.478C4.593 122.685 5.17014 123.514 6.06732 123.881L6.06732 123.976L4.69794 123.976L4.69794 125.791L12.7568 125.791L12.7568 123.892L8.03482 123.892ZM8.37585 113.694C5.75776 113.694 3.58039 114.392 1.71258 115.772L1.71258 117.561C3.0977 116.496 5.88893 115.672 8.37585 115.672C10.868 115.672 13.6593 116.496 15.0444 117.561L15.0444 115.772C13.1766 114.392 10.9939 113.694 8.37585 113.694ZM12.8722 110.394C12.8722 109.775 12.3581 109.245 11.718 109.24C11.0884 109.245 10.5742 109.775 10.5742 110.394C10.5742 111.034 11.0884 111.554 11.718 111.548C12.3581 111.554 12.8722 111.034 12.8722 110.394Z" fill="#FF7A00"/>
<path d="M430.51 534.959H433.831V544.072H435.762V534.959H439.083V533.327H430.51V534.959ZM440.356 544.072H442.256V536.013H440.356V544.072ZM441.311 534.87C441.915 534.87 442.408 534.408 442.408 533.841C442.408 533.269 441.915 532.808 441.311 532.808C440.703 532.808 440.209 533.269 440.209 533.841C440.209 534.408 440.703 534.87 441.311 534.87ZM443.913 544.072H445.812V539.172C445.812 538.18 446.474 537.509 447.292 537.509C448.095 537.509 448.646 538.049 448.646 538.878V544.072H450.508V539.046C450.508 538.138 451.049 537.509 451.967 537.509C452.733 537.509 453.341 537.96 453.341 538.957V544.072H455.246V538.663C455.246 536.863 454.207 535.908 452.728 535.908C451.558 535.908 450.666 536.486 450.309 537.383H450.225C449.915 536.47 449.134 535.908 448.048 535.908C446.967 535.908 446.159 536.465 445.823 537.383H445.729V536.013H443.913V544.072ZM460.445 544.23C462.323 544.23 463.614 543.311 463.95 541.911L462.176 541.711C461.919 542.393 461.29 542.75 460.471 542.75C459.244 542.75 458.43 541.942 458.415 540.562H464.029V539.98C464.029 537.152 462.329 535.908 460.345 535.908C458.037 535.908 456.531 537.603 456.531 540.09C456.531 542.619 458.016 544.23 460.445 544.23ZM458.42 539.282C458.478 538.254 459.238 537.388 460.372 537.388C461.463 537.388 462.197 538.185 462.208 539.282H458.42ZM475.079 538.144C474.816 536.779 473.725 535.908 471.836 535.908C469.895 535.908 468.573 536.863 468.578 538.353C468.573 539.529 469.297 540.305 470.845 540.625L472.219 540.914C472.959 541.076 473.305 541.375 473.305 541.832C473.305 542.383 472.707 542.797 471.805 542.797C470.934 542.797 470.367 542.42 470.204 541.696L468.352 541.874C468.588 543.353 469.832 544.23 471.81 544.23C473.825 544.23 475.247 543.186 475.252 541.659C475.247 540.51 474.507 539.807 472.985 539.476L471.611 539.182C470.792 538.999 470.467 538.715 470.472 538.248C470.467 537.703 471.07 537.325 471.862 537.325C472.739 537.325 473.2 537.802 473.347 538.332L475.079 538.144ZM476.522 544.072H478.422V536.013H476.522V544.072ZM477.477 534.87C478.081 534.87 478.574 534.408 478.574 533.841C478.574 533.269 478.081 532.808 477.477 532.808C476.869 532.808 476.376 533.269 476.376 533.841C476.376 534.408 476.869 534.87 477.477 534.87ZM481.979 539.35C481.979 538.185 482.682 537.514 483.684 537.514C484.665 537.514 485.253 538.159 485.253 539.235V544.072H487.152V538.941C487.157 537.01 486.055 535.908 484.392 535.908C483.185 535.908 482.356 536.486 481.989 537.383H481.895V536.013H480.079V544.072H481.979V539.35ZM492.302 544.23C494.328 544.23 495.618 543.028 495.755 541.318H493.939C493.777 542.183 493.152 542.682 492.318 542.682C491.132 542.682 490.366 541.69 490.366 540.043C490.366 538.416 491.148 537.44 492.318 537.44C493.231 537.44 493.792 538.028 493.939 538.805H495.755C495.623 537.057 494.259 535.908 492.292 535.908C489.931 535.908 488.441 537.614 488.441 540.074C488.441 542.514 489.894 544.23 492.302 544.23ZM500.586 544.23C502.465 544.23 503.755 543.311 504.091 541.911L502.318 541.711C502.061 542.393 501.431 542.75 500.613 542.75C499.385 542.75 498.572 541.942 498.556 540.562H504.17V539.98C504.17 537.152 502.47 535.908 500.487 535.908C498.178 535.908 496.672 537.603 496.672 540.09C496.672 542.619 498.157 544.23 500.586 544.23ZM498.561 539.282C498.619 538.254 499.38 537.388 500.513 537.388C501.604 537.388 502.339 538.185 502.349 539.282H498.561ZM508.462 534.959H511.783V544.072H513.714V534.959H517.035V533.327H508.462V534.959ZM525.129 536.758H527.113C526.782 534.649 524.956 533.18 522.579 533.18C519.767 533.18 517.658 535.247 517.658 538.71C517.658 542.11 519.673 544.219 522.637 544.219C525.297 544.219 527.202 542.509 527.202 539.739V538.448H522.842V539.969H525.318C525.287 541.501 524.264 542.472 522.648 542.472C520.848 542.472 519.615 541.124 519.615 538.689C519.615 536.27 520.869 534.927 522.606 534.927C523.902 534.927 524.783 535.62 525.129 536.758ZM528.788 544.072H535.819V542.441H530.735V539.508H535.415V537.876H530.735V534.959H535.777V533.327H528.788V544.072ZM539.781 539.371H541.056L540.941 537.246L542.725 538.416L543.365 537.304L541.455 536.349L543.365 535.394L542.725 534.282L540.941 535.452L541.056 533.327H539.781L539.902 535.452L538.118 534.282L537.478 535.394L539.382 536.349L537.478 537.304L538.118 538.416L539.902 537.246L539.781 539.371Z" fill="#FF7A00"/>
<path d="M114.615 585.534H115.695C115.645 584.144 114.363 583.105 112.583 583.105C110.82 583.105 109.435 584.131 109.435 585.678C109.435 586.919 110.334 587.656 111.773 588.07L112.906 588.394C113.878 588.664 114.741 589.006 114.741 589.923C114.741 590.93 113.77 591.596 112.493 591.596C111.395 591.596 110.424 591.11 110.334 590.067H109.183C109.291 591.578 110.514 592.603 112.493 592.603C114.615 592.603 115.82 591.434 115.82 589.941C115.82 588.214 114.184 587.656 113.23 587.405L112.295 587.153C111.611 586.973 110.514 586.613 110.514 585.624C110.514 584.742 111.323 584.095 112.547 584.095C113.662 584.095 114.507 584.625 114.615 585.534ZM120.153 592.585C121.556 592.585 122.582 591.884 122.905 590.84L121.88 590.553C121.61 591.272 120.985 591.632 120.153 591.632C118.907 591.632 118.048 590.827 117.999 589.347H123.013V588.898C123.013 586.325 121.484 585.444 120.045 585.444C118.174 585.444 116.933 586.919 116.933 589.042C116.933 591.164 118.156 592.585 120.153 592.585ZM117.999 588.43C118.071 587.355 118.831 586.397 120.045 586.397C121.196 586.397 121.934 587.261 121.934 588.43H117.999ZM127.271 592.585C128.674 592.585 129.699 591.884 130.023 590.84L128.998 590.553C128.728 591.272 128.103 591.632 127.271 591.632C126.025 591.632 125.166 590.827 125.117 589.347H130.131V588.898C130.131 586.325 128.602 585.444 127.163 585.444C125.292 585.444 124.051 586.919 124.051 589.042C124.051 591.164 125.274 592.585 127.271 592.585ZM125.117 588.43C125.189 587.355 125.949 586.397 127.163 586.397C128.314 586.397 129.052 587.261 129.052 588.43H125.117ZM134.1 592.585C135.432 592.585 135.881 591.758 136.115 591.38H136.241V592.441H137.266V583.231H136.205V586.631H136.115C135.881 586.271 135.468 585.444 134.118 585.444C132.374 585.444 131.168 586.829 131.168 589.006C131.168 591.2 132.374 592.585 134.1 592.585ZM134.244 591.632C132.913 591.632 132.23 590.463 132.23 588.988C132.23 587.531 132.895 586.397 134.244 586.397C135.54 586.397 136.223 587.441 136.223 588.988C136.223 590.553 135.522 591.632 134.244 591.632Z" fill="black"/>
<rect x="59.739" y="579.255" width="40.1831" height="14.8501" fill="#3DA40D"/>
<path d="M109.578 637.734H110.694V634.37H112.708C114.854 634.37 115.82 633.066 115.82 631.438C115.82 629.81 114.854 628.524 112.69 628.524H109.578V637.734ZM110.694 633.381V629.513H112.654C114.152 629.513 114.723 630.332 114.723 631.438C114.723 632.544 114.152 633.381 112.672 633.381H110.694ZM118.281 628.524H117.22V637.734H118.281V628.524ZM122.005 637.896C123.21 637.896 123.839 637.248 124.055 636.798H124.109V637.734H125.171V633.183C125.171 630.988 123.498 630.736 122.616 630.736C121.573 630.736 120.386 631.096 119.846 632.355L120.853 632.715C121.087 632.211 121.64 631.672 122.652 631.672C123.628 631.672 124.109 632.189 124.109 633.075V633.111C124.109 633.623 123.588 633.579 122.328 633.74C121.047 633.907 119.648 634.19 119.648 635.773C119.648 637.122 120.691 637.896 122.005 637.896ZM122.166 636.942C121.321 636.942 120.709 636.565 120.709 635.827C120.709 635.018 121.447 634.766 122.274 634.658C122.724 634.604 123.929 634.478 124.109 634.262V635.233C124.109 636.097 123.426 636.942 122.166 636.942ZM129.858 630.826H128.383V629.171H127.322V630.826H126.279V631.726H127.322V636.043C127.322 637.248 128.293 637.824 129.193 637.824C129.589 637.824 129.841 637.752 129.984 637.698L129.769 636.745C129.679 636.763 129.535 636.798 129.301 636.798C128.833 636.798 128.383 636.655 128.383 635.755V631.726H129.858V630.826ZM134.278 630.826H132.731V630.125C132.731 629.441 133.019 629.081 133.72 629.081C134.026 629.081 134.206 629.153 134.314 629.189L134.62 628.272C134.458 628.2 134.134 628.092 133.612 628.092C132.623 628.092 131.669 628.686 131.669 629.873V630.826H130.554V631.726H131.669V637.734H132.731V631.726H134.278V630.826ZM138.034 637.878C139.904 637.878 141.164 636.457 141.164 634.316C141.164 632.157 139.904 630.736 138.034 630.736C136.163 630.736 134.904 632.157 134.904 634.316C134.904 636.457 136.163 637.878 138.034 637.878ZM138.034 636.924C136.613 636.924 135.965 635.701 135.965 634.316C135.965 632.931 136.613 631.69 138.034 631.69C139.455 631.69 140.102 632.931 140.102 634.316C140.102 635.701 139.455 636.924 138.034 636.924ZM142.531 637.734H143.592V633.363C143.592 632.427 144.329 631.744 145.337 631.744C145.62 631.744 145.912 631.798 145.984 631.816V630.736C145.863 630.727 145.584 630.718 145.427 630.718C144.599 630.718 143.88 631.186 143.628 631.87H143.556V630.826H142.531V637.734ZM146.989 637.734H148.05V633.417C148.05 632.405 148.788 631.69 149.615 631.69C150.42 631.69 150.983 632.216 150.983 633.003V637.734H152.062V633.237C152.062 632.346 152.62 631.69 153.591 631.69C154.346 631.69 154.994 632.09 154.994 633.111V637.734H156.055V633.111C156.055 631.487 155.183 630.736 153.951 630.736C152.961 630.736 152.237 631.191 151.882 631.906H151.81C151.468 631.168 150.866 630.736 149.957 630.736C149.058 630.736 148.392 631.168 148.104 631.906H148.014V630.826H146.989V637.734ZM167.491 631.402H168.642C168.3 629.621 166.807 628.398 164.865 628.398C162.504 628.398 160.835 630.215 160.835 633.129C160.835 636.043 162.49 637.86 164.937 637.86C167.131 637.86 168.696 636.398 168.696 634.118V633.129H165.188V634.118H167.617C167.585 635.773 166.497 636.816 164.937 636.816C163.228 636.816 161.915 635.521 161.915 633.129C161.915 630.736 163.228 629.441 164.865 629.441C166.196 629.441 167.1 630.192 167.491 631.402ZM170.209 637.734H171.271V633.363C171.271 632.427 172.008 631.744 173.015 631.744C173.299 631.744 173.591 631.798 173.663 631.816V630.736C173.542 630.727 173.263 630.718 173.105 630.718C172.278 630.718 171.558 631.186 171.306 631.87H171.235V630.826H170.209V637.734ZM177.264 637.878C179.135 637.878 180.394 636.457 180.394 634.316C180.394 632.157 179.135 630.736 177.264 630.736C175.393 630.736 174.134 632.157 174.134 634.316C174.134 636.457 175.393 637.878 177.264 637.878ZM177.264 636.924C175.843 636.924 175.195 635.701 175.195 634.316C175.195 632.931 175.843 631.69 177.264 631.69C178.685 631.69 179.332 632.931 179.332 634.316C179.332 635.701 178.685 636.924 177.264 636.924ZM183.091 637.734H184.134L185.645 632.427H185.753L187.264 637.734H188.307L190.412 630.826H189.297L187.804 636.097H187.732L186.275 630.826H185.141L183.666 636.115H183.594L182.101 630.826H180.986L183.091 637.734ZM194.566 630.826H193.091V629.171H192.03V630.826H190.986V631.726H192.03V636.043C192.03 637.248 193.001 637.824 193.9 637.824C194.296 637.824 194.548 637.752 194.692 637.698L194.476 636.745C194.386 636.763 194.242 636.798 194.008 636.798C193.541 636.798 193.091 636.655 193.091 635.755V631.726H194.566V630.826ZM197.119 633.579C197.119 632.373 197.888 631.69 198.936 631.69C199.934 631.69 200.537 632.319 200.537 633.417V637.734H201.598V633.345C201.598 631.568 200.654 630.736 199.242 630.736C198.153 630.736 197.533 631.191 197.209 631.906H197.119V628.524H196.058V637.734H197.119V633.579Z" fill="black"/>
<rect x="59.739" y="624.547" width="40.1831" height="14.8501" fill="#C4C4C4"/>
<path d="M291.043 631.402C290.702 629.513 289.191 628.398 287.338 628.398C284.981 628.398 283.272 630.215 283.272 633.129C283.272 636.043 284.981 637.86 287.338 637.86C289.191 637.86 290.702 636.745 291.043 634.856H289.928C289.658 636.133 288.561 636.816 287.338 636.816C285.665 636.816 284.352 635.521 284.352 633.129C284.352 630.736 285.665 629.441 287.338 629.441C288.561 629.441 289.658 630.125 289.928 631.402H291.043ZM295.255 637.878C297.126 637.878 298.385 636.457 298.385 634.316C298.385 632.157 297.126 630.736 295.255 630.736C293.384 630.736 292.125 632.157 292.125 634.316C292.125 636.457 293.384 637.878 295.255 637.878ZM295.255 636.924C293.834 636.924 293.186 635.701 293.186 634.316C293.186 632.931 293.834 631.69 295.255 631.69C296.676 631.69 297.323 632.931 297.323 634.316C297.323 635.701 296.676 636.924 295.255 636.924ZM299.752 637.734H300.813V633.417C300.813 632.405 301.55 631.69 302.378 631.69C303.183 631.69 303.745 632.216 303.745 633.003V637.734H304.824V633.237C304.824 632.346 305.382 631.69 306.353 631.69C307.109 631.69 307.756 632.09 307.756 633.111V637.734H308.818V633.111C308.818 631.487 307.945 630.736 306.713 630.736C305.724 630.736 305 631.191 304.644 631.906H304.572C304.231 631.168 303.628 630.736 302.72 630.736C301.82 630.736 301.155 631.168 300.867 631.906H300.777V630.826H299.752V637.734ZM310.505 637.734H311.566V633.417C311.566 632.405 312.304 631.69 313.131 631.69C313.936 631.69 314.498 632.216 314.498 633.003V637.734H315.578V633.237C315.578 632.346 316.135 631.69 317.107 631.69C317.862 631.69 318.51 632.09 318.51 633.111V637.734H319.571V633.111C319.571 631.487 318.699 630.736 317.467 630.736C316.477 630.736 315.753 631.191 315.398 631.906H315.326C314.984 631.168 314.382 630.736 313.473 630.736C312.574 630.736 311.908 631.168 311.62 631.906H311.53V630.826H310.505V637.734ZM325.612 634.91C325.612 636.205 324.622 636.798 323.831 636.798C322.949 636.798 322.32 636.151 322.32 635.144V630.826H321.259V635.215C321.259 636.978 322.194 637.824 323.489 637.824C324.532 637.824 325.216 637.266 325.54 636.565H325.612V637.734H326.673V630.826H325.612V634.91ZM329.425 633.579C329.425 632.373 330.172 631.69 331.188 631.69C332.173 631.69 332.771 632.333 332.771 633.417V637.734H333.832V633.345C333.832 631.582 332.892 630.736 331.494 630.736C330.45 630.736 329.803 631.204 329.479 631.906H329.389V630.826H328.364V637.734H329.425V633.579ZM335.518 637.734H336.58V630.826H335.518V637.734ZM336.058 629.675C336.472 629.675 336.814 629.351 336.814 628.955C336.814 628.56 336.472 628.236 336.058 628.236C335.644 628.236 335.302 628.56 335.302 628.955C335.302 629.351 335.644 629.675 336.058 629.675ZM341.274 630.826H339.799V629.171H338.738V630.826H337.695V631.726H338.738V636.043C338.738 637.248 339.709 637.824 340.609 637.824C341.005 637.824 341.256 637.752 341.4 637.698L341.184 636.745C341.094 636.763 340.951 636.798 340.717 636.798C340.249 636.798 339.799 636.655 339.799 635.755V631.726H341.274V630.826ZM343.301 640.324C344.259 640.324 344.934 639.816 345.334 638.741L348.275 630.844L347.115 630.826L345.208 636.331H345.136L343.229 630.826H342.078L344.632 637.77L344.434 638.31C344.048 639.362 343.571 639.461 342.797 639.263L342.528 640.198C342.636 640.252 342.941 640.324 343.301 640.324ZM352.878 637.734H353.994V634.136H356.008C356.089 634.136 356.166 634.136 356.242 634.132L358.185 637.734H359.48L357.398 633.929C358.572 633.529 359.12 632.571 359.12 631.348C359.12 629.72 358.149 628.524 355.99 628.524H352.878V637.734ZM353.994 633.129V629.513H355.954C357.447 629.513 358.023 630.242 358.023 631.348C358.023 632.454 357.447 633.129 355.972 633.129H353.994ZM363.404 637.878C364.807 637.878 365.832 637.176 366.156 636.133L365.13 635.845C364.861 636.565 364.236 636.924 363.404 636.924C362.158 636.924 361.299 636.119 361.249 634.64H366.264V634.19C366.264 631.618 364.735 630.736 363.296 630.736C361.425 630.736 360.184 632.211 360.184 634.334C360.184 636.457 361.407 637.878 363.404 637.878ZM361.249 633.722C361.321 632.648 362.081 631.69 363.296 631.69C364.447 631.69 365.184 632.553 365.184 633.722H361.249ZM369.19 637.734H370.233L371.744 632.427H371.852L373.363 637.734H374.407L376.511 630.826H375.396L373.903 636.097H373.831L372.374 630.826H371.241L369.766 636.115H369.694L368.201 630.826H367.085L369.19 637.734ZM379.694 637.896C380.899 637.896 381.529 637.248 381.745 636.798H381.799V637.734H382.86V633.183C382.86 630.988 381.187 630.736 380.305 630.736C379.262 630.736 378.075 631.096 377.535 632.355L378.543 632.715C378.776 632.211 379.33 631.672 380.341 631.672C381.317 631.672 381.799 632.189 381.799 633.075V633.111C381.799 633.623 381.277 633.579 380.018 633.74C378.736 633.907 377.337 634.19 377.337 635.773C377.337 637.122 378.381 637.896 379.694 637.896ZM379.856 636.942C379.01 636.942 378.399 636.565 378.399 635.827C378.399 635.018 379.136 634.766 379.964 634.658C380.413 634.604 381.619 634.478 381.799 634.262V635.233C381.799 636.097 381.115 636.942 379.856 636.942ZM384.544 637.734H385.605V633.363C385.605 632.427 386.343 631.744 387.35 631.744C387.633 631.744 387.926 631.798 387.998 631.816V630.736C387.876 630.727 387.597 630.718 387.44 630.718C386.612 630.718 385.893 631.186 385.641 631.87H385.569V630.826H384.544V637.734ZM391.4 637.878C392.732 637.878 393.181 637.05 393.415 636.673H393.541V637.734H394.566V628.524H393.505V631.924H393.415C393.181 631.564 392.768 630.736 391.418 630.736C389.674 630.736 388.468 632.121 388.468 634.298C388.468 636.493 389.674 637.878 391.4 637.878ZM391.544 636.924C390.213 636.924 389.53 635.755 389.53 634.28C389.53 632.823 390.195 631.69 391.544 631.69C392.84 631.69 393.523 632.733 393.523 634.28C393.523 635.845 392.822 636.924 391.544 636.924ZM401.297 632.373C400.964 631.393 400.218 630.736 398.851 630.736C397.394 630.736 396.314 631.564 396.314 632.733C396.314 633.686 396.881 634.325 398.149 634.622L399.3 634.892C399.998 635.054 400.326 635.386 400.326 635.863C400.326 636.457 399.696 636.942 398.707 636.942C397.839 636.942 397.295 636.569 397.106 635.827L396.099 636.079C396.346 637.253 397.313 637.878 398.725 637.878C400.33 637.878 401.423 637.001 401.423 635.809C401.423 634.847 400.821 634.24 399.588 633.938L398.563 633.686C397.744 633.484 397.376 633.21 397.376 632.679C397.376 632.085 398.005 631.654 398.851 631.654C399.777 631.654 400.159 632.166 400.344 632.643L401.297 632.373Z" fill="black"/>
<rect x="233.793" y="624.547" width="40.1831" height="14.8501" fill="#C4C4C4"/>
<path d="M217.139 592.441H218.254V589.077H220.269C222.414 589.077 223.381 587.773 223.381 586.145C223.381 584.517 222.414 583.231 220.251 583.231H217.139V592.441ZM218.254 588.088V584.22H220.215C221.712 584.22 222.283 585.039 222.283 586.145C222.283 587.251 221.712 588.088 220.233 588.088H218.254ZM224.78 592.441H225.842V588.07C225.842 587.134 226.579 586.451 227.586 586.451C227.87 586.451 228.162 586.505 228.234 586.523V585.443C228.113 585.434 227.834 585.425 227.676 585.425C226.849 585.425 226.129 585.893 225.877 586.577H225.806V585.533H224.78V592.441ZM229.239 592.441H230.3V585.533H229.239V592.441ZM229.778 584.382C230.192 584.382 230.534 584.058 230.534 583.662C230.534 583.267 230.192 582.943 229.778 582.943C229.365 582.943 229.023 583.267 229.023 583.662C229.023 584.058 229.365 584.382 229.778 584.382ZM237.639 585.533H236.488L234.581 591.038H234.509L232.602 585.533H231.451L234.005 592.441H235.085L237.639 585.533ZM240.609 592.603C241.814 592.603 242.444 591.955 242.66 591.506H242.714V592.441H243.775V587.89C243.775 585.695 242.102 585.443 241.221 585.443C240.177 585.443 238.99 585.803 238.451 587.062L239.458 587.422C239.692 586.918 240.245 586.379 241.257 586.379C242.233 586.379 242.714 586.896 242.714 587.782V587.818C242.714 588.331 242.192 588.286 240.933 588.447C239.651 588.614 238.253 588.897 238.253 590.48C238.253 591.829 239.296 592.603 240.609 592.603ZM240.771 591.649C239.926 591.649 239.314 591.272 239.314 590.534C239.314 589.725 240.052 589.473 240.879 589.365C241.329 589.311 242.534 589.185 242.714 588.969V589.941C242.714 590.804 242.03 591.649 240.771 591.649ZM248.463 585.533H246.988V583.878H245.927V585.533H244.883V586.433H245.927V590.75C245.927 591.955 246.898 592.531 247.798 592.531C248.193 592.531 248.445 592.459 248.589 592.405L248.373 591.452C248.283 591.47 248.139 591.506 247.906 591.506C247.438 591.506 246.988 591.362 246.988 590.462V586.433H248.463V585.533ZM252.628 592.585C254.031 592.585 255.057 591.883 255.381 590.84L254.355 590.552C254.085 591.272 253.46 591.631 252.628 591.631C251.383 591.631 250.524 590.826 250.474 589.347H255.489V588.897C255.489 586.325 253.959 585.443 252.52 585.443C250.65 585.443 249.408 586.918 249.408 589.041C249.408 591.164 250.632 592.585 252.628 592.585ZM250.474 588.429C250.546 587.355 251.306 586.397 252.52 586.397C253.672 586.397 254.409 587.26 254.409 588.429H250.474ZM265.051 587.08C264.718 586.1 263.972 585.443 262.605 585.443C261.148 585.443 260.068 586.271 260.068 587.44C260.068 588.393 260.635 589.032 261.903 589.329L263.054 589.599C263.751 589.761 264.08 590.093 264.08 590.57C264.08 591.164 263.45 591.649 262.461 591.649C261.593 591.649 261.049 591.276 260.86 590.534L259.852 590.786C260.1 591.96 261.067 592.585 262.479 592.585C264.084 592.585 265.177 591.708 265.177 590.516C265.177 589.554 264.574 588.947 263.342 588.645L262.317 588.393C261.498 588.191 261.13 587.917 261.13 587.386C261.13 586.793 261.759 586.361 262.605 586.361C263.531 586.361 263.913 586.873 264.098 587.35L265.051 587.08ZM268.554 592.603C269.759 592.603 270.389 591.955 270.605 591.506H270.659V592.441H271.72V587.89C271.72 585.695 270.047 585.443 269.166 585.443C268.122 585.443 266.935 585.803 266.395 587.062L267.403 587.422C267.637 586.918 268.19 586.379 269.202 586.379C270.177 586.379 270.659 586.896 270.659 587.782V587.818C270.659 588.331 270.137 588.286 268.878 588.447C267.596 588.614 266.198 588.897 266.198 590.48C266.198 591.829 267.241 592.603 268.554 592.603ZM268.716 591.649C267.87 591.649 267.259 591.272 267.259 590.534C267.259 589.725 267.996 589.473 268.824 589.365C269.274 589.311 270.479 589.185 270.659 588.969V589.941C270.659 590.804 269.975 591.649 268.716 591.649ZM274.465 583.231H273.404V592.441H274.465V583.231ZM279.052 592.585C280.455 592.585 281.48 591.883 281.804 590.84L280.779 590.552C280.509 591.272 279.884 591.631 279.052 591.631C277.806 591.631 276.947 590.826 276.898 589.347H281.912V588.897C281.912 586.325 280.383 585.443 278.944 585.443C277.073 585.443 275.832 586.918 275.832 589.041C275.832 591.164 277.055 592.585 279.052 592.585ZM276.898 588.429C276.97 587.355 277.73 586.397 278.944 586.397C280.095 586.397 280.833 587.26 280.833 588.429H276.898Z" fill="black"/>
<rect x="167.299" y="579.255" width="40.1831" height="14.8501" fill="#759FF3"/>
<path d="M355.484 592.441H356.599V589.077H358.614C360.759 589.077 361.726 587.773 361.726 586.145C361.726 584.517 360.759 583.231 358.596 583.231H355.484V592.441ZM356.599 588.088V584.22H358.56C360.058 584.22 360.629 585.039 360.629 586.145C360.629 587.251 360.058 588.088 358.578 588.088H356.599ZM367.479 589.617C367.479 590.912 366.489 591.506 365.698 591.506C364.816 591.506 364.187 590.858 364.187 589.851V585.533H363.125V589.923C363.125 591.685 364.061 592.531 365.356 592.531C366.399 592.531 367.083 591.973 367.407 591.272H367.479V592.441H368.54V585.533H367.479V589.617ZM370.374 592.441H371.4V591.38H371.526C371.76 591.757 372.209 592.585 373.54 592.585C375.267 592.585 376.473 591.2 376.473 589.005C376.473 586.828 375.267 585.443 373.522 585.443C372.173 585.443 371.76 586.271 371.526 586.631H371.436V583.231H370.374V592.441ZM371.418 588.987C371.418 587.44 372.101 586.397 373.397 586.397C374.746 586.397 375.411 587.53 375.411 588.987C375.411 590.462 374.728 591.631 373.397 591.631C372.119 591.631 371.418 590.552 371.418 588.987ZM378.904 583.231H377.843V592.441H378.904V583.231ZM380.595 592.441H381.656V585.533H380.595V592.441ZM381.134 584.382C381.548 584.382 381.89 584.058 381.89 583.662C381.89 583.267 381.548 582.943 381.134 582.943C380.721 582.943 380.379 583.267 380.379 583.662C380.379 584.058 380.721 584.382 381.134 584.382ZM386.153 592.585C387.682 592.585 388.689 591.649 388.869 590.426H387.808C387.61 591.182 386.98 591.631 386.153 591.631C384.894 591.631 384.084 590.588 384.084 588.987C384.084 587.422 384.912 586.397 386.153 586.397C387.088 586.397 387.646 586.972 387.808 587.602H388.869C388.689 586.307 387.592 585.443 386.135 585.443C384.264 585.443 383.023 586.918 383.023 589.023C383.023 591.092 384.21 592.585 386.153 592.585ZM398.369 587.08C398.036 586.1 397.289 585.443 395.922 585.443C394.465 585.443 393.386 586.271 393.386 587.44C393.386 588.393 393.953 589.032 395.221 589.329L396.372 589.599C397.069 589.761 397.397 590.093 397.397 590.57C397.397 591.164 396.768 591.649 395.778 591.649C394.91 591.649 394.366 591.276 394.177 590.534L393.17 590.786C393.417 591.96 394.384 592.585 395.796 592.585C397.402 592.585 398.495 591.708 398.495 590.516C398.495 589.554 397.892 588.947 396.66 588.645L395.635 588.393C394.816 588.191 394.447 587.917 394.447 587.386C394.447 586.793 395.077 586.361 395.922 586.361C396.849 586.361 397.231 586.873 397.415 587.35L398.369 587.08ZM401.872 592.603C403.077 592.603 403.707 591.955 403.922 591.506H403.976V592.441H405.038V587.89C405.038 585.695 403.365 585.443 402.483 585.443C401.44 585.443 400.253 585.803 399.713 587.062L400.72 587.422C400.954 586.918 401.507 586.379 402.519 586.379C403.495 586.379 403.976 586.896 403.976 587.782V587.818C403.976 588.331 403.455 588.286 402.196 588.447C400.914 588.614 399.515 588.897 399.515 590.48C399.515 591.829 400.559 592.603 401.872 592.603ZM402.034 591.649C401.188 591.649 400.577 591.272 400.577 590.534C400.577 589.725 401.314 589.473 402.142 589.365C402.591 589.311 403.797 589.185 403.976 588.969V589.941C403.976 590.804 403.293 591.649 402.034 591.649ZM407.783 583.231H406.722V592.441H407.783V583.231ZM412.37 592.585C413.773 592.585 414.798 591.883 415.122 590.84L414.097 590.552C413.827 591.272 413.202 591.631 412.37 591.631C411.124 591.631 410.265 590.826 410.216 589.347H415.23V588.897C415.23 586.325 413.701 585.443 412.262 585.443C410.391 585.443 409.15 586.918 409.15 589.041C409.15 591.164 410.373 592.585 412.37 592.585ZM410.216 588.429C410.288 587.355 411.048 586.397 412.262 586.397C413.413 586.397 414.151 587.26 414.151 588.429H410.216Z" fill="black"/>
<rect x="305.645" y="579.255" width="40.1831" height="14.8501" fill="#985BE6"/>
<path d="M488.05 584.22H490.946V592.441H492.061V584.22H494.957V583.231H488.05V584.22ZM498.176 592.585C499.579 592.585 500.604 591.883 500.928 590.84L499.903 590.552C499.633 591.272 499.008 591.631 498.176 591.631C496.93 591.631 496.071 590.826 496.022 589.347H501.036V588.897C501.036 586.325 499.507 585.443 498.068 585.443C496.197 585.443 494.956 586.918 494.956 589.041C494.956 591.164 496.179 592.585 498.176 592.585ZM496.022 588.429C496.094 587.355 496.854 586.397 498.068 586.397C499.219 586.397 499.957 587.26 499.957 588.429H496.022ZM504.43 592.603C505.635 592.603 506.265 591.955 506.481 591.506H506.535V592.441H507.596V587.89C507.596 585.695 505.923 585.443 505.042 585.443C503.998 585.443 502.811 585.803 502.271 587.062L503.279 587.422C503.513 586.918 504.066 586.379 505.078 586.379C506.054 586.379 506.535 586.896 506.535 587.782V587.818C506.535 588.331 506.013 588.286 504.754 588.447C503.472 588.614 502.074 588.897 502.074 590.48C502.074 591.829 503.117 592.603 504.43 592.603ZM504.592 591.649C503.747 591.649 503.135 591.272 503.135 590.534C503.135 589.725 503.872 589.473 504.7 589.365C505.15 589.311 506.355 589.185 506.535 588.969V589.941C506.535 590.804 505.851 591.649 504.592 591.649ZM509.28 592.441H510.341V588.124C510.341 587.112 511.079 586.397 511.906 586.397C512.711 586.397 513.273 586.923 513.273 587.71V592.441H514.353V587.944C514.353 587.053 514.91 586.397 515.882 586.397C516.637 586.397 517.285 586.797 517.285 587.818V592.441H518.346V587.818C518.346 586.194 517.474 585.443 516.242 585.443C515.252 585.443 514.528 585.898 514.173 586.613H514.101C513.759 585.875 513.156 585.443 512.248 585.443C511.349 585.443 510.683 585.875 510.395 586.613H510.305V585.533H509.28V592.441Z" fill="black"/>
<rect x="438.714" y="579.255" width="40.1831" height="14.8501" fill="#FFDF8F"/>
<path d="M597.11 585.533H598.189C598.14 584.144 596.858 583.105 595.077 583.105C593.315 583.105 591.929 584.13 591.929 585.677C591.929 586.918 592.829 587.656 594.268 588.07L595.401 588.393C596.373 588.663 597.236 589.005 597.236 589.923C597.236 590.93 596.265 591.595 594.987 591.595C593.89 591.595 592.919 591.11 592.829 590.066H591.678C591.785 591.577 593.009 592.603 594.987 592.603C597.11 592.603 598.315 591.434 598.315 589.941C598.315 588.214 596.678 587.656 595.725 587.404L594.79 587.152C594.106 586.972 593.009 586.613 593.009 585.623C593.009 584.742 593.818 584.094 595.041 584.094C596.157 584.094 597.002 584.625 597.11 585.533ZM602.756 585.533H601.281V583.878H600.22V585.533H599.176V586.433H600.22V590.75C600.22 591.955 601.191 592.531 602.09 592.531C602.486 592.531 602.738 592.459 602.882 592.405L602.666 591.452C602.576 591.47 602.432 591.506 602.198 591.506C601.731 591.506 601.281 591.362 601.281 590.462V586.433H602.756V585.533ZM604.099 592.441H605.16V588.07C605.16 587.134 605.898 586.451 606.905 586.451C607.189 586.451 607.481 586.505 607.553 586.523V585.443C607.432 585.434 607.153 585.425 606.995 585.425C606.168 585.425 605.448 585.893 605.196 586.577H605.125V585.533H604.099V592.441ZM610.59 592.603C611.796 592.603 612.425 591.955 612.641 591.506H612.695V592.441H613.756V587.89C613.756 585.695 612.084 585.443 611.202 585.443C610.159 585.443 608.972 585.803 608.432 587.062L609.439 587.422C609.673 586.918 610.226 586.379 611.238 586.379C612.214 586.379 612.695 586.896 612.695 587.782V587.818C612.695 588.331 612.173 588.286 610.914 588.447C609.633 588.614 608.234 588.897 608.234 590.48C608.234 591.829 609.277 592.603 610.59 592.603ZM610.752 591.649C609.907 591.649 609.295 591.272 609.295 590.534C609.295 589.725 610.033 589.473 610.86 589.365C611.31 589.311 612.515 589.185 612.695 588.969V589.941C612.695 590.804 612.012 591.649 610.752 591.649ZM618.444 585.533H616.969V583.878H615.908V585.533H614.865V586.433H615.908V590.75C615.908 591.955 616.879 592.531 617.779 592.531C618.175 592.531 618.426 592.459 618.57 592.405L618.354 591.452C618.265 591.47 618.121 591.506 617.887 591.506C617.419 591.506 616.969 591.362 616.969 590.462V586.433H618.444V585.533ZM622.61 592.585C624.013 592.585 625.038 591.883 625.362 590.84L624.337 590.552C624.067 591.272 623.442 591.631 622.61 591.631C621.364 591.631 620.505 590.826 620.455 589.347H625.47V588.897C625.47 586.325 623.941 585.443 622.502 585.443C620.631 585.443 619.39 586.918 619.39 589.041C619.39 591.164 620.613 592.585 622.61 592.585ZM620.455 588.429C620.527 587.355 621.287 586.397 622.502 586.397C623.653 586.397 624.39 587.26 624.39 588.429H620.455ZM629.619 595.175C631.274 595.175 632.605 594.42 632.605 592.639V585.533H631.58V586.631H631.472C631.238 586.271 630.806 585.443 629.457 585.443C627.712 585.443 626.507 586.828 626.507 588.951C626.507 591.11 627.766 592.333 629.439 592.333C630.788 592.333 631.22 591.541 631.454 591.164H631.544V592.567C631.544 593.718 630.735 594.24 629.619 594.24C628.365 594.24 627.924 593.579 627.64 593.196L626.795 593.79C627.227 594.514 628.077 595.175 629.619 595.175ZM629.583 591.38C628.252 591.38 627.569 590.372 627.569 588.933C627.569 587.53 628.234 586.397 629.583 586.397C630.878 586.397 631.562 587.44 631.562 588.933C631.562 590.462 630.86 591.38 629.583 591.38ZM634.295 592.441H635.356V585.533H634.295V592.441ZM634.834 584.382C635.248 584.382 635.59 584.058 635.59 583.662C635.59 583.267 635.248 582.943 634.834 582.943C634.421 582.943 634.079 583.267 634.079 583.662C634.079 584.058 634.421 584.382 634.834 584.382ZM639.853 592.585C641.382 592.585 642.389 591.649 642.569 590.426H641.508C641.31 591.182 640.68 591.631 639.853 591.631C638.594 591.631 637.784 590.588 637.784 588.987C637.784 587.422 638.612 586.397 639.853 586.397C640.788 586.397 641.346 586.972 641.508 587.602H642.569C642.389 586.307 641.292 585.443 639.835 585.443C637.964 585.443 636.723 586.918 636.723 589.023C636.723 591.092 637.91 592.585 639.853 592.585ZM647.32 592.441H648.435V589.077H650.45C652.595 589.077 653.562 587.773 653.562 586.145C653.562 584.517 652.595 583.231 650.432 583.231H647.32V592.441ZM648.435 588.088V584.22H650.396C651.893 584.22 652.465 585.039 652.465 586.145C652.465 587.251 651.893 588.088 650.414 588.088H648.435ZM656.994 592.603C658.199 592.603 658.829 591.955 659.045 591.506H659.099V592.441H660.16V587.89C660.16 585.695 658.487 585.443 657.606 585.443C656.562 585.443 655.375 585.803 654.835 587.062L655.843 587.422C656.077 586.918 656.63 586.379 657.642 586.379C658.617 586.379 659.099 586.896 659.099 587.782V587.818C659.099 588.331 658.577 588.286 657.318 588.447C656.036 588.614 654.638 588.897 654.638 590.48C654.638 591.829 655.681 592.603 656.994 592.603ZM657.156 591.649C656.31 591.649 655.699 591.272 655.699 590.534C655.699 589.725 656.436 589.473 657.264 589.365C657.714 589.311 658.919 589.185 659.099 588.969V589.941C659.099 590.804 658.415 591.649 657.156 591.649ZM661.844 592.441H662.905V588.07C662.905 587.134 663.643 586.451 664.65 586.451C664.933 586.451 665.226 586.505 665.298 586.523V585.443C665.176 585.434 664.897 585.425 664.74 585.425C663.913 585.425 663.193 585.893 662.941 586.577H662.869V585.533H661.844V592.441ZM669.739 585.533H668.264V583.878H667.203V585.533H666.16V586.433H667.203V590.75C667.203 591.955 668.174 592.531 669.074 592.531C669.47 592.531 669.721 592.459 669.865 592.405L669.649 591.452C669.56 591.47 669.416 591.506 669.182 591.506C668.714 591.506 668.264 591.362 668.264 590.462V586.433H669.739V585.533ZM672.144 588.286C672.144 587.08 672.89 586.397 673.907 586.397C674.892 586.397 675.49 587.04 675.49 588.124V592.441H676.551V588.052C676.551 586.289 675.611 585.443 674.213 585.443C673.169 585.443 672.522 585.911 672.198 586.613H672.108V585.533H671.083V592.441H672.144V588.286ZM681.133 592.585C682.537 592.585 683.562 591.883 683.886 590.84L682.86 590.552C682.591 591.272 681.965 591.631 681.133 591.631C679.888 591.631 679.029 590.826 678.979 589.347H683.994V588.897C683.994 586.325 682.465 585.443 681.026 585.443C679.155 585.443 677.913 586.918 677.913 589.041C677.913 591.164 679.137 592.585 681.133 592.585ZM678.979 588.429C679.051 587.355 679.811 586.397 681.026 586.397C682.177 586.397 682.914 587.26 682.914 588.429H678.979ZM685.355 592.441H686.416V588.07C686.416 587.134 687.154 586.451 688.161 586.451C688.444 586.451 688.737 586.505 688.809 586.523V585.443C688.687 585.434 688.408 585.425 688.251 585.425C687.424 585.425 686.704 585.893 686.452 586.577H686.38V585.533H685.355V592.441ZM694.706 587.08C694.374 586.1 693.627 585.443 692.26 585.443C690.803 585.443 689.723 586.271 689.723 587.44C689.723 588.393 690.29 589.032 691.558 589.329L692.71 589.599C693.407 589.761 693.735 590.093 693.735 590.57C693.735 591.164 693.105 591.649 692.116 591.649C691.248 591.649 690.704 591.276 690.515 590.534L689.508 590.786C689.755 591.96 690.722 592.585 692.134 592.585C693.739 592.585 694.832 591.708 694.832 590.516C694.832 589.554 694.23 588.947 692.997 588.645L691.972 588.393C691.154 588.191 690.785 587.917 690.785 587.386C690.785 586.793 691.414 586.361 692.26 586.361C693.186 586.361 693.569 586.873 693.753 587.35L694.706 587.08Z" fill="black"/>
<rect x="542.234" y="579.255" width="40.1831" height="14.8501" fill="#EB5AD4"/>
<path d="M774.939 592.441L775.866 589.833H779.589L780.516 592.441H781.685L778.303 583.231H777.152L773.77 592.441H774.939ZM776.216 588.843L777.691 584.688H777.763L779.238 588.843H776.216ZM785.331 592.585C786.662 592.585 787.111 591.757 787.345 591.38H787.471V592.441H788.497V583.231H787.435V586.631H787.345C787.111 586.271 786.698 585.443 785.349 585.443C783.604 585.443 782.398 586.828 782.398 589.005C782.398 591.2 783.604 592.585 785.331 592.585ZM785.474 591.631C784.143 591.631 783.46 590.462 783.46 588.987C783.46 587.53 784.125 586.397 785.474 586.397C786.77 586.397 787.453 587.44 787.453 588.987C787.453 590.552 786.752 591.631 785.474 591.631ZM795.983 585.533H794.832L792.925 591.038H792.853L790.946 585.533H789.795L792.349 592.441H793.428L795.983 585.533ZM797.13 592.441H798.192V585.533H797.13V592.441ZM797.67 584.382C798.084 584.382 798.426 584.058 798.426 583.662C798.426 583.267 798.084 582.943 797.67 582.943C797.256 582.943 796.915 583.267 796.915 583.662C796.915 584.058 797.256 584.382 797.67 584.382ZM804.775 587.08C804.442 586.1 803.696 585.443 802.329 585.443C800.872 585.443 799.792 586.271 799.792 587.44C799.792 588.393 800.359 589.032 801.627 589.329L802.779 589.599C803.476 589.761 803.804 590.093 803.804 590.57C803.804 591.164 803.174 591.649 802.185 591.649C801.317 591.649 800.773 591.276 800.584 590.534L799.577 590.786C799.824 591.96 800.791 592.585 802.203 592.585C803.808 592.585 804.901 591.708 804.901 590.516C804.901 589.554 804.299 588.947 803.066 588.645L802.041 588.393C801.223 588.191 800.854 587.917 800.854 587.386C800.854 586.793 801.483 586.361 802.329 586.361C803.255 586.361 803.638 586.873 803.822 587.35L804.775 587.08ZM809.052 592.585C810.923 592.585 812.182 591.164 812.182 589.023C812.182 586.864 810.923 585.443 809.052 585.443C807.181 585.443 805.922 586.864 805.922 589.023C805.922 591.164 807.181 592.585 809.052 592.585ZM809.052 591.631C807.631 591.631 806.983 590.408 806.983 589.023C806.983 587.638 807.631 586.397 809.052 586.397C810.473 586.397 811.12 587.638 811.12 589.023C811.12 590.408 810.473 591.631 809.052 591.631ZM813.549 592.441H814.61V588.07C814.61 587.134 815.347 586.451 816.355 586.451C816.638 586.451 816.93 586.505 817.002 586.523V585.443C816.881 585.434 816.602 585.425 816.445 585.425C815.617 585.425 814.898 585.893 814.646 586.577H814.574V585.533H813.549V592.441ZM822.9 587.08C822.567 586.1 821.821 585.443 820.454 585.443C818.997 585.443 817.917 586.271 817.917 587.44C817.917 588.393 818.484 589.032 819.752 589.329L820.903 589.599C821.6 589.761 821.929 590.093 821.929 590.57C821.929 591.164 821.299 591.649 820.31 591.649C819.442 591.649 818.898 591.276 818.709 590.534L817.701 590.786C817.949 591.96 818.916 592.585 820.328 592.585C821.933 592.585 823.026 591.708 823.026 590.516C823.026 589.554 822.423 588.947 821.191 588.645L820.166 588.393C819.347 588.191 818.979 587.917 818.979 587.386C818.979 586.793 819.608 586.361 820.454 586.361C821.38 586.361 821.762 586.873 821.947 587.35L822.9 587.08Z" fill="black"/>
<rect x="724.722" y="579.255" width="40.1831" height="14.8501" fill="#E4944A"/>
<line x1="59.8086" y1="473.244" x2="933.841" y2="473.244" stroke="#7E7E7E" stroke-opacity="0.16" stroke-width="0.422132"/>
<line x1="59.8086" y1="316.712" x2="933.841" y2="316.712" stroke="#151515" stroke-opacity="0.3" stroke-width="0.422132"/>
<line x1="59.8086" y1="457.435" x2="933.841" y2="457.435" stroke="#7E7E7E" stroke-opacity="0.16" stroke-width="0.422132"/>
<line x1="59.8086" y1="441.627" x2="933.841" y2="441.627" stroke="#7E7E7E" stroke-opacity="0.16" stroke-width="0.422132"/>
<line x1="59.8086" y1="425.819" x2="933.841" y2="425.819" stroke="#7E7E7E" stroke-opacity="0.16" stroke-width="0.422132"/>
<line x1="59.8086" y1="410.011" x2="933.841" y2="410.011" stroke="#7E7E7E" stroke-opacity="0.16" stroke-width="0.422132"/>
<line x1="59.8086" y1="379.169" x2="933.841" y2="379.169" stroke="#7E7E7E" stroke-opacity="0.16" stroke-width="0.422132"/>
<line x1="59.8086" y1="363.361" x2="933.841" y2="363.361" stroke="#7E7E7E" stroke-opacity="0.16" stroke-width="0.422132"/>
<line x1="59.8086" y1="347.553" x2="933.841" y2="347.553" stroke="#7E7E7E" stroke-opacity="0.16" stroke-width="0.422132"/>
<line x1="59.8086" y1="331.745" x2="933.841" y2="331.745" stroke="#7E7E7E" stroke-opacity="0.16" stroke-width="0.422132"/>
<line x1="59.8086" y1="301.68" x2="933.841" y2="301.68" stroke="#7E7E7E" stroke-opacity="0.16" stroke-width="0.422132"/>
<line x1="59.8086" y1="285.871" x2="933.841" y2="285.871" stroke="#7E7E7E" stroke-opacity="0.16" stroke-width="0.422132"/>
<line x1="59.8086" y1="270.063" x2="933.841" y2="270.063" stroke="#7E7E7E" stroke-opacity="0.16" stroke-width="0.422132"/>
<line x1="59.8086" y1="254.255" x2="933.841" y2="254.255" stroke="#7E7E7E" stroke-opacity="0.16" stroke-width="0.422132"/>
<line x1="59.8086" y1="224.19" x2="933.841" y2="224.19" stroke="#7E7E7E" stroke-opacity="0.16" stroke-width="0.422132"/>
<line x1="59.8086" y1="208.382" x2="933.841" y2="208.382" stroke="#7E7E7E" stroke-opacity="0.16" stroke-width="0.422132"/>
<line x1="59.8086" y1="192.574" x2="933.841" y2="192.574" stroke="#7E7E7E" stroke-opacity="0.16" stroke-width="0.422132"/>
<line x1="59.8086" y1="176.765" x2="933.841" y2="176.766" stroke="#7E7E7E" stroke-opacity="0.16" stroke-width="0.422132"/>
<line x1="59.8086" y1="146.7" x2="933.841" y2="146.7" stroke="#7E7E7E" stroke-opacity="0.16" stroke-width="0.422132"/>
<line x1="59.8086" y1="130.892" x2="933.841" y2="130.892" stroke="#7E7E7E" stroke-opacity="0.16" stroke-width="0.422132"/>
<line x1="59.8086" y1="115.084" x2="933.841" y2="115.084" stroke="#7E7E7E" stroke-opacity="0.16" stroke-width="0.422132"/>
<line x1="59.8086" y1="99.2753" x2="933.841" y2="99.2753" stroke="#7E7E7E" stroke-opacity="0.16" stroke-width="0.422132"/>
<line x1="59.8086" y1="69.0165" x2="933.841" y2="69.0165" stroke="#7E7E7E" stroke-opacity="0.16" stroke-width="0.422132"/>
<line x1="59.8086" y1="53.2084" x2="933.841" y2="53.2084" stroke="#7E7E7E" stroke-opacity="0.16" stroke-width="0.422132"/>
<line x1="59.8086" y1="37.3998" x2="933.841" y2="37.3998" stroke="#7E7E7E" stroke-opacity="0.16" stroke-width="0.422132"/>
<line x1="59.8086" y1="21.5917" x2="933.841" y2="21.5917" stroke="#7E7E7E" stroke-opacity="0.16" stroke-width="0.422132"/>
<line x1="59.8086" y1="84.2425" x2="933.841" y2="84.2425" stroke="#151515" stroke-opacity="0.3" stroke-width="0.422132"/>
<line x1="59.8086" y1="394.202" x2="933.841" y2="394.202" stroke="#151515" stroke-opacity="0.3" stroke-width="0.422132"/>
<line x1="59.8086" y1="161.732" x2="933.841" y2="161.732" stroke="#151515" stroke-opacity="0.3" stroke-width="0.422132"/>
<line x1="59.8086" y1="6.36608" x2="933.841" y2="6.36608" stroke="#151515" stroke-opacity="0.3" stroke-width="0.422132"/>
<line x1="59.5975" y1="473.456" x2="59.5975" y2="6.57693" stroke="#151515" stroke-opacity="0.3" stroke-width="0.422132"/>
<line x1="129.471" y1="473.456" x2="129.471" y2="6.57693" stroke="#7E7E7E" stroke-opacity="0.16" stroke-width="0.422132"/>
<line x1="199.345" y1="473.456" x2="199.345" y2="6.57693" stroke="#7E7E7E" stroke-opacity="0.16" stroke-width="0.422132"/>
<line x1="269.219" y1="473.456" x2="269.219" y2="6.57693" stroke="#7E7E7E" stroke-opacity="0.16" stroke-width="0.422132"/>
<line x1="339.093" y1="473.456" x2="339.093" y2="6.57693" stroke="#7E7E7E" stroke-opacity="0.16" stroke-width="0.422132"/>
<line x1="408.966" y1="473.456" x2="408.966" y2="6.57693" stroke="#7E7E7E" stroke-opacity="0.16" stroke-width="0.422132"/>
<line x1="478.84" y1="473.456" x2="478.84" y2="6.57693" stroke="#7E7E7E" stroke-opacity="0.16" stroke-width="0.422132"/>
<line x1="548.714" y1="473.456" x2="548.714" y2="6.57693" stroke="#7E7E7E" stroke-opacity="0.16" stroke-width="0.422132"/>
<line x1="618.588" y1="473.456" x2="618.588" y2="6.57693" stroke="#7E7E7E" stroke-opacity="0.16" stroke-width="0.422132"/>
<line x1="688.462" y1="473.456" x2="688.462" y2="6.57693" stroke="#7E7E7E" stroke-opacity="0.16" stroke-width="0.422132"/>
<line x1="758.335" y1="473.456" x2="758.335" y2="6.57693" stroke="#7E7E7E" stroke-opacity="0.16" stroke-width="0.422132"/>
<line x1="828.209" y1="473.456" x2="828.209" y2="6.57693" stroke="#7E7E7E" stroke-opacity="0.16" stroke-width="0.422132"/>
<line x1="898.083" y1="473.456" x2="898.083" y2="6.57693" stroke="#7E7E7E" stroke-opacity="0.16" stroke-width="0.422132"/>
<path d="M33.9988 474.029C36.0315 474.029 37.2008 472.306 37.2008 469.298C37.2008 466.312 36.0135 464.567 33.9988 464.567C31.9841 464.567 30.7969 466.312 30.7969 469.298C30.7969 472.306 31.9661 474.029 33.9988 474.029ZM33.9988 473.039C32.6587 473.039 31.8762 471.695 31.8762 469.298C31.8762 466.905 32.6677 465.538 33.9988 465.538C35.33 465.538 36.1215 466.905 36.1215 469.298C36.1215 471.695 35.339 473.039 33.9988 473.039Z" fill="black"/>
<path d="M122.539 499.601C124.325 499.601 125.651 498.481 125.651 496.974C125.651 495.805 124.959 494.955 123.798 494.762V494.69C124.729 494.406 125.31 493.642 125.31 492.603C125.31 491.299 124.28 490.139 122.575 490.139C120.983 490.139 119.661 491.119 119.607 492.567H120.686C120.727 491.65 121.599 491.11 122.557 491.11C123.574 491.11 124.23 491.726 124.23 492.657C124.23 493.628 123.47 494.258 122.377 494.258H121.64V495.247H122.377C123.776 495.247 124.554 495.958 124.554 496.974C124.554 497.95 123.704 498.611 122.521 498.611C121.455 498.611 120.61 498.063 120.543 497.172H119.409C119.477 498.62 120.754 499.601 122.539 499.601ZM127.255 499.475H128.317V495.103C128.317 494.168 129.054 493.484 130.062 493.484C130.345 493.484 130.637 493.538 130.709 493.556V492.477C130.588 492.468 130.309 492.459 130.151 492.459C129.324 492.459 128.604 492.927 128.353 493.61H128.281V492.567H127.255V499.475ZM134.112 499.619C135.443 499.619 135.893 498.791 136.127 498.413H136.253V499.475H137.278V490.264H136.217V493.664H136.127C135.893 493.305 135.479 492.477 134.13 492.477C132.385 492.477 131.18 493.862 131.18 496.039C131.18 498.233 132.385 499.619 134.112 499.619ZM134.256 498.665C132.925 498.665 132.241 497.496 132.241 496.021C132.241 494.564 132.907 493.43 134.256 493.43C135.551 493.43 136.235 494.474 136.235 496.021C136.235 497.586 135.533 498.665 134.256 498.665Z" fill="black"/>
<path d="M192.656 499.601C194.518 499.623 195.732 498.22 195.732 496.506C195.732 494.726 194.415 493.448 192.836 493.448C191.887 493.448 191.073 493.912 190.569 494.672H190.498C190.502 492.428 191.374 491.128 192.8 491.128C193.771 491.128 194.356 491.74 194.563 492.567H195.66C195.435 491.137 194.347 490.139 192.8 490.139C190.727 490.139 189.454 491.973 189.454 495.229C189.454 498.634 191.145 499.583 192.656 499.601ZM192.656 498.611C191.5 498.611 190.655 497.626 190.659 496.524C190.664 495.423 191.55 494.438 192.692 494.438C193.821 494.438 194.653 495.364 194.653 496.506C194.653 497.676 193.785 498.611 192.656 498.611ZM200.269 492.567H198.794V490.912H197.733V492.567H196.69V493.466H197.733V497.784C197.733 498.989 198.704 499.565 199.604 499.565C200 499.565 200.251 499.493 200.395 499.439L200.18 498.485C200.09 498.503 199.946 498.539 199.712 498.539C199.244 498.539 198.794 498.395 198.794 497.496V493.466H200.269V492.567ZM202.822 495.319C202.822 494.114 203.591 493.43 204.639 493.43C205.638 493.43 206.24 494.06 206.24 495.157V499.475H207.302V495.085C207.302 493.309 206.357 492.477 204.945 492.477C203.857 492.477 203.236 492.931 202.912 493.646H202.822V490.264H201.761V499.475H202.822V495.319Z" fill="black"/>
<path d="M262.404 490.139C260.533 490.116 259.328 491.524 259.328 493.215C259.328 494.995 260.641 496.273 262.224 496.273C263.177 496.273 263.987 495.805 264.49 495.049H264.562C264.562 497.316 263.681 498.611 262.26 498.611C261.288 498.611 260.695 498 260.497 497.154H259.4C259.616 498.611 260.713 499.601 262.26 499.601C264.329 499.601 265.606 497.766 265.606 494.492C265.606 491.11 263.915 490.157 262.404 490.139ZM262.404 491.128C263.555 491.128 264.4 492.117 264.4 493.197C264.4 494.294 263.501 495.283 262.368 495.283C261.234 495.283 260.407 494.366 260.407 493.215C260.407 492.063 261.27 491.128 262.404 491.128ZM270.143 492.567H268.668V490.912H267.607V492.567H266.563V493.466H267.607V497.784C267.607 498.989 268.578 499.565 269.477 499.565C269.873 499.565 270.125 499.493 270.269 499.439L270.053 498.485C269.963 498.503 269.819 498.539 269.585 498.539C269.118 498.539 268.668 498.395 268.668 497.496V493.466H270.143V492.567ZM272.696 495.319C272.696 494.114 273.465 493.43 274.513 493.43C275.511 493.43 276.114 494.06 276.114 495.157V499.475H277.175V495.085C277.175 493.309 276.231 492.477 274.819 492.477C273.73 492.477 273.11 492.931 272.786 493.646H272.696V490.264H271.635V499.475H272.696V495.319Z" fill="black"/>
<path d="M329.823 490.264H328.708L326.405 491.793V492.927L328.654 491.434H328.708V499.475H329.823V490.264ZM332.219 499.475H338.029V498.485H333.748V498.413L335.816 496.201C337.399 494.505 337.867 493.714 337.867 492.693C337.867 491.272 336.716 490.139 335.097 490.139C333.482 490.139 332.255 491.236 332.255 492.855H333.316C333.316 491.807 333.995 491.11 335.061 491.11C336.059 491.11 336.824 491.722 336.824 492.693C336.824 493.543 336.324 494.172 335.259 495.337L332.219 498.665V499.475ZM342.655 492.567H341.18V490.912H340.119V492.567H339.075V493.466H340.119V497.784C340.119 498.989 341.09 499.565 341.989 499.565C342.385 499.565 342.637 499.493 342.781 499.439L342.565 498.485C342.475 498.503 342.331 498.539 342.097 498.539C341.63 498.539 341.18 498.395 341.18 497.496V493.466H342.655V492.567ZM345.208 495.319C345.208 494.114 345.977 493.43 347.025 493.43C348.023 493.43 348.626 494.06 348.626 495.157V499.475H349.687V495.085C349.687 493.309 348.743 492.477 347.331 492.477C346.242 492.477 345.622 492.931 345.298 493.646H345.208V490.264H344.147V499.475H345.208V495.319Z" fill="black"/>
<path d="M399.66 490.264H398.544L396.242 491.793V492.927L398.49 491.434H398.544V499.475H399.66V490.264ZM404.933 499.601C406.687 499.601 407.974 498.305 407.974 496.542C407.974 494.757 406.732 493.448 405.041 493.448C404.421 493.448 403.818 493.669 403.44 493.97H403.386L403.71 491.254H407.56V490.264H402.775L402.217 494.798L403.261 494.923C403.643 494.649 404.295 494.451 404.861 494.456C406.035 494.465 406.894 495.355 406.894 496.56C406.894 497.743 406.067 498.611 404.933 498.611C403.989 498.611 403.238 498.004 403.153 497.172H402.073C402.141 498.575 403.35 499.601 404.933 499.601ZM412.529 492.567H411.054V490.912H409.992V492.567H408.949V493.466H409.992V497.784C409.992 498.989 410.964 499.565 411.863 499.565C412.259 499.565 412.511 499.493 412.655 499.439L412.439 498.485C412.349 498.503 412.205 498.539 411.971 498.539C411.503 498.539 411.054 498.395 411.054 497.496V493.466H412.529V492.567ZM415.082 495.319C415.082 494.114 415.851 493.43 416.899 493.43C417.897 493.43 418.5 494.06 418.5 495.157V499.475H419.561V495.085C419.561 493.309 418.617 492.477 417.204 492.477C416.116 492.477 415.495 492.931 415.172 493.646H415.082V490.264H414.02V499.475H415.082V495.319Z" fill="black"/>
<path d="M469.435 490.264H468.319L466.017 491.793V492.927L468.265 491.434H468.319V499.475H469.435V490.264ZM474.78 499.601C476.62 499.601 477.901 498.526 477.91 497.028C477.901 495.863 477.123 494.874 476.129 494.69V494.636C476.993 494.411 477.559 493.565 477.568 492.585C477.559 491.182 476.381 490.139 474.78 490.139C473.161 490.139 471.983 491.182 471.992 492.585C471.983 493.565 472.55 494.411 473.431 494.636V494.69C472.419 494.874 471.641 495.863 471.65 497.028C471.641 498.526 472.923 499.601 474.78 499.601ZM474.78 498.611C473.517 498.611 472.739 497.964 472.748 496.974C472.739 495.935 473.597 495.193 474.78 495.193C475.945 495.193 476.804 495.935 476.813 496.974C476.804 497.964 476.026 498.611 474.78 498.611ZM474.78 494.24C473.773 494.24 473.062 493.61 473.071 492.657C473.062 491.722 473.746 491.11 474.78 491.11C475.797 491.11 476.48 491.722 476.489 492.657C476.48 493.61 475.77 494.24 474.78 494.24ZM482.403 492.567H480.928V490.912H479.866V492.567H478.823V493.466H479.866V497.784C479.866 498.989 480.838 499.565 481.737 499.565C482.133 499.565 482.385 499.493 482.529 499.439L482.313 498.485C482.223 498.503 482.079 498.539 481.845 498.539C481.377 498.539 480.928 498.395 480.928 497.496V493.466H482.403V492.567ZM484.956 495.319C484.956 494.114 485.725 493.43 486.772 493.43C487.771 493.43 488.373 494.06 488.373 495.157V499.475H489.435V495.085C489.435 493.309 488.49 492.477 487.078 492.477C485.99 492.477 485.369 492.931 485.045 493.646H484.956V490.264H483.894V499.475H484.956V495.319Z" fill="black"/>
<path d="M536.693 499.475H542.503V498.485H538.222V498.413L540.29 496.201C541.873 494.505 542.341 493.714 542.341 492.693C542.341 491.272 541.19 490.139 539.571 490.139C537.956 490.139 536.729 491.236 536.729 492.855H537.79C537.79 491.807 538.469 491.11 539.535 491.11C540.533 491.11 541.298 491.722 541.298 492.693C541.298 493.543 540.798 494.172 539.733 495.337L536.693 498.665V499.475ZM547.345 490.264H546.23L543.927 491.793V492.927L546.176 491.434H546.23V499.475H547.345V490.264ZM554.651 494.114C554.318 493.134 553.572 492.477 552.205 492.477C550.748 492.477 549.668 493.305 549.668 494.474C549.668 495.427 550.235 496.066 551.503 496.363L552.655 496.632C553.352 496.794 553.68 497.127 553.68 497.604C553.68 498.197 553.05 498.683 552.061 498.683C551.193 498.683 550.649 498.31 550.46 497.568L549.453 497.82C549.7 498.993 550.667 499.619 552.079 499.619C553.684 499.619 554.777 498.742 554.777 497.55C554.777 496.587 554.175 495.98 552.942 495.679L551.917 495.427C551.099 495.225 550.73 494.95 550.73 494.42C550.73 493.826 551.359 493.394 552.205 493.394C553.131 493.394 553.514 493.907 553.698 494.384L554.651 494.114ZM559.126 492.567H557.651V490.912H556.589V492.567H555.546V493.466H556.589V497.784C556.589 498.989 557.561 499.565 558.46 499.565C558.856 499.565 559.108 499.493 559.252 499.439L559.036 498.485C558.946 498.503 558.802 498.539 558.568 498.539C558.1 498.539 557.651 498.395 557.651 497.496V493.466H559.126V492.567Z" fill="black"/>
<path d="M604.841 499.475H610.652V498.485H606.37V498.413L608.439 496.201C610.022 494.505 610.49 493.714 610.49 492.693C610.49 491.272 609.339 490.139 607.72 490.139C606.105 490.139 604.877 491.236 604.877 492.855H605.939C605.939 491.807 606.618 491.11 607.684 491.11C608.682 491.11 609.446 491.722 609.446 492.693C609.446 493.543 608.947 494.172 607.881 495.337L604.841 498.665V499.475ZM611.842 497.586H616.177V499.475H617.239V497.586H618.498V496.596H617.239V490.264H615.889L611.842 496.668V497.586ZM616.177 496.596H613.047V496.524L616.105 491.686H616.177V496.596ZM622.952 492.567H621.477V490.912H620.415V492.567H619.372V493.466H620.415V497.784C620.415 498.989 621.387 499.565 622.286 499.565C622.682 499.565 622.934 499.493 623.078 499.439L622.862 498.485C622.772 498.503 622.628 498.539 622.394 498.539C621.927 498.539 621.477 498.395 621.477 497.496V493.466H622.952V492.567ZM625.505 495.319C625.505 494.114 626.274 493.43 627.322 493.43C628.32 493.43 628.923 494.06 628.923 495.157V499.475H629.984V495.085C629.984 493.309 629.04 492.477 627.627 492.477C626.539 492.477 625.919 492.931 625.595 493.646H625.505V490.264H624.443V499.475H625.505V495.319Z" fill="black"/>
<path d="M674.88 499.475H680.69V498.485H676.409V498.413L678.478 496.201C680.061 494.505 680.528 493.714 680.528 492.693C680.528 491.272 679.377 490.139 677.758 490.139C676.144 490.139 674.916 491.236 674.916 492.855H675.977C675.977 491.807 676.656 491.11 677.722 491.11C678.721 491.11 679.485 491.722 679.485 492.693C679.485 493.543 678.986 494.172 677.92 495.337L674.88 498.665V499.475ZM682.582 499.475H683.751L687.853 491.308V490.264H681.953V491.254H686.702V491.326L682.582 499.475ZM692.298 492.567H690.823V490.912H689.762V492.567H688.718V493.466H689.762V497.784C689.762 498.989 690.733 499.565 691.632 499.565C692.028 499.565 692.28 499.493 692.424 499.439L692.208 498.485C692.118 498.503 691.974 498.539 691.74 498.539C691.273 498.539 690.823 498.395 690.823 497.496V493.466H692.298V492.567ZM694.851 495.319C694.851 494.114 695.62 493.43 696.668 493.43C697.666 493.43 698.269 494.06 698.269 495.157V499.475H699.33V495.085C699.33 493.309 698.386 492.477 696.973 492.477C695.885 492.477 695.265 492.931 694.941 493.646H694.851V490.264H693.79V499.475H694.851V495.319Z" fill="black"/>
<path d="M746.79 499.601C748.575 499.601 749.902 498.481 749.902 496.974C749.902 495.805 749.209 494.955 748.049 494.762V494.69C748.98 494.406 749.56 493.642 749.56 492.603C749.56 491.299 748.53 490.139 746.826 490.139C745.234 490.139 743.912 491.119 743.858 492.567H744.937C744.978 491.65 745.85 491.11 746.808 491.11C747.824 491.11 748.481 491.726 748.481 492.657C748.481 493.628 747.721 494.258 746.628 494.258H745.89V495.247H746.628C748.027 495.247 748.805 495.958 748.805 496.974C748.805 497.95 747.955 498.611 746.772 498.611C745.706 498.611 744.861 498.063 744.793 497.172H743.66C743.727 498.62 745.005 499.601 746.79 499.601ZM754.492 499.601C756.525 499.601 757.694 497.878 757.694 494.87C757.694 491.883 756.507 490.139 754.492 490.139C752.477 490.139 751.29 491.883 751.29 494.87C751.29 497.878 752.459 499.601 754.492 499.601ZM754.492 498.611C753.152 498.611 752.369 497.267 752.369 494.87C752.369 492.477 753.161 491.11 754.492 491.11C755.823 491.11 756.615 492.477 756.615 494.87C756.615 497.267 755.832 498.611 754.492 498.611ZM762.172 492.567H760.697V490.912H759.635V492.567H758.592V493.466H759.635V497.784C759.635 498.989 760.607 499.565 761.506 499.565C761.902 499.565 762.154 499.493 762.298 499.439L762.082 498.485C761.992 498.503 761.848 498.539 761.614 498.539C761.146 498.539 760.697 498.395 760.697 497.496V493.466H762.172V492.567ZM764.725 495.319C764.725 494.114 765.494 493.43 766.542 493.43C767.54 493.43 768.143 494.06 768.143 495.157V499.475H769.204V495.085C769.204 493.309 768.259 492.477 766.847 492.477C765.759 492.477 765.138 492.931 764.815 493.646H764.725V490.264H763.663V499.475H764.725V495.319Z" fill="black"/>
<path d="M816.38 499.601C818.165 499.601 819.492 498.481 819.492 496.974C819.492 495.805 818.799 494.955 817.639 494.762V494.69C818.57 494.406 819.15 493.642 819.15 492.603C819.15 491.299 818.12 490.139 816.416 490.139C814.824 490.139 813.502 491.119 813.448 492.567H814.527C814.567 491.65 815.44 491.11 816.398 491.11C817.414 491.11 818.071 491.726 818.071 492.657C818.071 493.628 817.311 494.258 816.218 494.258H815.48V495.247H816.218C817.616 495.247 818.394 495.958 818.394 496.974C818.394 497.95 817.544 498.611 816.362 498.611C815.296 498.611 814.45 498.063 814.383 497.172H813.25C813.317 498.62 814.594 499.601 816.38 499.601ZM824.19 499.601C825.975 499.601 827.302 498.481 827.302 496.974C827.302 495.805 826.609 494.955 825.449 494.762V494.69C826.38 494.406 826.96 493.642 826.96 492.603C826.96 491.299 825.93 490.139 824.226 490.139C822.634 490.139 821.312 491.119 821.258 492.567H822.337C822.377 491.65 823.25 491.11 824.208 491.11C825.224 491.11 825.881 491.726 825.881 492.657C825.881 493.628 825.121 494.258 824.028 494.258H823.29V495.247H824.028C825.427 495.247 826.205 495.958 826.205 496.974C826.205 497.95 825.355 498.611 824.172 498.611C823.106 498.611 822.261 498.063 822.193 497.172H821.06C821.127 498.62 822.404 499.601 824.19 499.601ZM828.906 499.475H829.967V495.103C829.967 494.168 830.705 493.484 831.712 493.484C831.995 493.484 832.288 493.538 832.36 493.556V492.477C832.238 492.468 831.959 492.459 831.802 492.459C830.975 492.459 830.255 492.927 830.003 493.61H829.931V492.567H828.906V499.475ZM835.763 499.619C837.094 499.619 837.543 498.791 837.777 498.413H837.903V499.475H838.929V490.264H837.867V493.664H837.777C837.543 493.305 837.13 492.477 835.781 492.477C834.036 492.477 832.83 493.862 832.83 496.039C832.83 498.233 834.036 499.619 835.763 499.619ZM835.906 498.665C834.575 498.665 833.892 497.496 833.892 496.021C833.892 494.564 834.557 493.43 835.906 493.43C837.202 493.43 837.885 494.474 837.885 496.021C837.885 497.586 837.184 498.665 835.906 498.665Z" fill="black"/>
<path d="M34.0831 399.207C35.837 399.207 37.1232 397.912 37.1232 396.149C37.1232 394.364 35.882 393.055 34.1911 393.055C33.5705 393.055 32.9679 393.275 32.5901 393.577H32.5361L32.8599 390.86H36.7095V389.871H31.9245L31.3669 394.404L32.4102 394.53C32.7925 394.256 33.4446 394.058 34.0112 394.062C35.1849 394.071 36.0439 394.962 36.0439 396.167C36.0439 397.35 35.2164 398.218 34.0831 398.218C33.1387 398.218 32.3877 397.61 32.3023 396.779H31.223C31.2904 398.182 32.5002 399.207 34.0831 399.207Z" fill="black"/>
<path d="M28.599 312.381H27.4837L25.1812 313.91V315.043L27.4297 313.55H27.4837V321.591H28.599V312.381ZM33.9986 321.717C36.0313 321.717 37.2006 319.995 37.2006 316.986C37.2006 314 36.0133 312.255 33.9986 312.255C31.9839 312.255 30.7967 314 30.7967 316.986C30.7967 319.995 31.9659 321.717 33.9986 321.717ZM33.9986 320.728C32.6585 320.728 31.876 319.383 31.876 316.986C31.876 314.594 32.6675 313.227 33.9986 313.227C35.3298 313.227 36.1213 314.594 36.1213 316.986C36.1213 319.383 35.3388 320.728 33.9986 320.728Z" fill="black"/>
<path d="M28.8092 234.891H27.6939L25.3914 236.42V237.554L27.64 236.061H27.6939V244.102H28.8092V234.891ZM34.0829 244.227C35.8368 244.227 37.123 242.932 37.123 241.169C37.123 239.384 35.8818 238.075 34.1909 238.075C33.5703 238.075 32.9677 238.296 32.5899 238.597H32.5359L32.8597 235.881H36.7093V234.891H31.9243L31.3667 239.425L32.41 239.55C32.7923 239.276 33.4444 239.078 34.011 239.083C35.1847 239.092 36.0437 239.982 36.0437 241.187C36.0437 242.37 35.2162 243.238 34.0829 243.238C33.1385 243.238 32.3875 242.631 32.3021 241.799H31.2228C31.2902 243.202 32.5 244.227 34.0829 244.227Z" fill="black"/>
<path d="M23.5802 166.612H29.3906V165.622H25.1093V165.55L27.178 163.338C28.761 161.642 29.2287 160.851 29.2287 159.83C29.2287 158.409 28.0774 157.276 26.4584 157.276C24.8439 157.276 23.6162 158.373 23.6162 159.992H24.6775C24.6775 158.944 25.3566 158.247 26.4224 158.247C27.4208 158.247 28.1853 158.859 28.1853 159.83C28.1853 160.68 27.6861 161.31 26.6203 162.474L23.5802 165.802V166.612ZM33.9987 166.738C36.0314 166.738 37.2007 165.015 37.2007 162.007C37.2007 159.021 36.0134 157.276 33.9987 157.276C31.984 157.276 30.7967 159.021 30.7967 162.007C30.7967 165.015 31.966 166.738 33.9987 166.738ZM33.9987 165.748C32.6585 165.748 31.876 164.404 31.876 162.007C31.876 159.614 32.6675 158.247 33.9987 158.247C35.3298 158.247 36.1213 159.614 36.1213 162.007C36.1213 164.404 35.3388 165.748 33.9987 165.748Z" fill="black"/>
<path d="M23.7905 89.1221H29.6008V88.1327H25.3195V88.0607L27.3882 85.8481C28.9712 84.1527 29.4389 83.3612 29.4389 82.3404C29.4389 80.9193 28.2876 79.786 26.6687 79.786C25.0542 79.786 23.8265 80.8833 23.8265 82.5023H24.8878C24.8878 81.4544 25.5669 80.7574 26.6327 80.7574C27.631 80.7574 28.3956 81.369 28.3956 82.3404C28.3956 83.1903 27.8964 83.8199 26.8306 84.9847L23.7905 88.3126V89.1221ZM34.083 89.248C35.8369 89.248 37.1231 87.9528 37.1231 86.1899C37.1231 84.4046 35.8819 83.0959 34.1909 83.0959C33.5703 83.0959 32.9677 83.3163 32.59 83.6176H32.536L32.8598 80.9013H36.7093V79.9119H31.9244L31.3667 84.445L32.4101 84.571C32.7923 84.2966 33.4444 84.0988 34.0111 84.1033C35.1848 84.1122 36.0438 85.0027 36.0438 86.2079C36.0438 87.3907 35.2163 88.2586 34.083 88.2586C33.1386 88.2586 32.3876 87.6515 32.3021 86.8195H31.2228C31.2903 88.2226 32.5 89.248 34.083 89.248Z" fill="black"/>
<path d="M26.2965 11.371C28.0819 11.371 29.4085 10.2512 29.4085 8.7447C29.4085 7.57544 28.716 6.72548 27.5557 6.53211V6.46015C28.4866 6.17683 29.0668 5.41232 29.0668 4.37348C29.0668 3.0693 28.0369 1.90904 26.3325 1.90904C24.7405 1.90904 23.4183 2.88942 23.3644 4.3375H24.4437C24.4842 3.42008 25.3566 2.88042 26.3145 2.88042C27.3309 2.88042 27.9874 3.49653 27.9874 4.42744C27.9874 5.39883 27.2274 6.02843 26.1346 6.02843H25.3971V7.0178H26.1346C27.5332 7.0178 28.3112 7.72835 28.3112 8.7447C28.3112 9.72058 27.4613 10.3817 26.2785 10.3817C25.2127 10.3817 24.3672 9.83301 24.2998 8.94258H23.1665C23.234 10.3907 24.5111 11.371 26.2965 11.371ZM33.9987 11.371C36.0314 11.371 37.2007 9.64863 37.2007 6.64004C37.2007 3.65393 36.0134 1.90904 33.9987 1.90904C31.984 1.90904 30.7967 3.65393 30.7967 6.64004C30.7967 9.64863 31.966 11.371 33.9987 11.371ZM33.9987 10.3817C32.6585 10.3817 31.876 9.03702 31.876 6.64004C31.876 4.24756 32.6675 2.88042 33.9987 2.88042C35.3298 2.88042 36.1213 4.24756 36.1213 6.64004C36.1213 9.03702 35.3388 10.3817 33.9987 10.3817Z" fill="black"/>
<path d="M129.174 432.014H59.8086V473.952H933.76V176.792H478.402V204.087H408.649V249.944H338.693V295.258H268.871V339.341H199.026V385.159H129.174V432.014Z" fill="#7BA6FA" fill-opacity="0.82"/>
<path d="M933.757 176.792H478.402V204.087H408.649V249.944H338.693V295.258H268.871V339.341H199.026V385.159H129.174V432.013H59.8086V473.952" stroke="#00378A" stroke-width="1.05533"/>
<circle cx="268.375" cy="469.8" r="1.54606" fill="#32CE19"/>
<path d="M933.656 410.615H59.7388V474.614H933.656V410.615Z" fill="#985BE5" fill-opacity="0.48"/>
<path d="M933.517 410.615H59.7388V474.614" stroke="#5E5881" stroke-width="1.05533"/>
<path d="M198.506 451.55H128.979V472.781H933.764V238.979H757.65V262.334H688.061V285.836H618.123V309.565H548.412V331.869H478.43V355.417H408.588V379.423H338.861V402.816H269.333V426.208H198.506V451.55Z" fill="#FFDF8F" fill-opacity="0.69"/>
<path d="M933.749 238.979L757.65 238.979V262.334H688.061V285.836H618.123V309.565H548.412V331.869H478.43V355.417H408.588V379.423H338.861V402.816H269.333V426.208H198.506V451.55H128.979V472.781" stroke="#FFB703" stroke-width="1.05533"/>
<path d="M198.546 460.12L129.185 462.25V473.393H933.761V389.438H548.702V396.88L478.208 403.001V408.349L408.314 415.694V421.771L338.688 425.821V433.417L269.062 437.721V446.076L198.546 451.241V460.12Z" fill="#E175D1" fill-opacity="0.73"/>
<path d="M933.719 389.439L548.702 389.438V396.88L478.208 403.001V408.349L408.314 415.694V421.771L338.688 425.821V433.417L269.062 437.721V446.076L198.546 451.241V460.12L129.185 462.25V473.393" stroke="#D91FA5" stroke-width="1.05533"/>
<path d="M198.525 465.736L129.154 469.693V473.878H934.078V436.806H548.596V440.025H478.348V442.66L408.464 444.448V446.898L338.729 447.731V450.672L268.774 452.7V456.118L198.525 460.693V465.736Z" fill="#A2F29B" fill-opacity="0.84"/>
<path d="M934.046 436.806L548.596 436.806V440.025H478.348V442.66L408.464 444.448V446.898L338.729 447.731V450.672L268.774 452.7V456.118L198.525 460.693V465.736L129.154 469.693V473.878" stroke="#3DA40D" stroke-width="1.05533"/>
<path d="M198.97 468.668L129.189 471.211V473.974H934.11V436.81L757.898 436.81V438.393L688.174 441.492V444.632L618.129 446.322V449.576H548.471V451.685L478.457 454.476V456.07L408.597 457.251V458.39L338.694 459.482V460.876L269.097 462.045V464.61L198.97 467.103V468.668Z" fill="#DC851F" fill-opacity="0.46"/>
<path d="M934.072 436.81H757.898V438.393L688.174 441.492V444.632L618.129 446.322V449.576H548.472V451.685L478.457 454.476V456.07L408.597 457.251V458.39L338.694 459.482V460.876L269.097 462.045V464.61L198.97 467.103V468.668L129.189 471.211V473.974" stroke="#E68412" stroke-width="1.05533"/>
</svg>
