<svg width="941" height="781" viewBox="0 0 941 781" fill="none" xmlns="http://www.w3.org/2000/svg">
<path d="M206.497 405.61V420.657H905.168V88.6167H835.352L765.467 105.61L695.601 122.612L625.733 139.623L555.859 163.614L485.984 191.121L416.104 237.621L346.236 293.622L276.356 349.615L206.497 405.61Z" fill="#FFDA79"/>
<path d="M206.497 405.61L276.356 349.615L346.236 293.622L416.104 237.621L485.984 191.121L555.859 163.614L625.733 139.623L695.601 122.612L765.467 105.61L835.352 88.6167H905.168" stroke="#DDAA2B"/>
<path d="M206.486 420.623V422.603H905.225V238.617H835.35L765.49 240.635L695.598 242.662L625.718 244.624L555.861 253.617L485.978 266.121L416.108 297.625L346.223 338.632L276.365 379.62L206.486 420.623Z" fill="#FAB48D"/>
<path d="M206.486 420.623L276.365 379.62L346.223 338.632L416.108 297.625L485.978 266.121L555.861 253.617L625.718 244.624L695.598 242.662L765.49 240.635L835.35 238.617H905.225" stroke="#D5761F"/>
<path d="M206.483 422.635L206.437 430.139H905.277V258.628H695.593L625.727 258.664L555.854 265.616L485.983 276.116L416.1 305.616L346.245 344.632L276.37 383.612L206.483 422.635Z" fill="#E778F0"/>
<path d="M206.483 422.635L276.369 383.612L346.245 344.632L416.1 305.616L485.983 276.116L555.854 265.616L625.727 258.664L695.593 258.628H905.276" stroke="#B9139E"/>
<path d="M206.382 430.212V433.013H905.193V398.654V308.669H695.588H625.765L555.862 310.625L485.972 313.619L416.106 335.614L346.253 367.14L276.371 398.654L206.382 430.212Z" fill="#93E376"/>
<path d="M206.382 430.212L276.371 398.654L346.253 367.14L416.106 335.614L485.972 313.619L555.862 310.625L625.765 308.669H695.588H905.193" stroke="#3C9C0E"/>
<path d="M66.4668 490.174V558.77H904.831V328.617H485.991L416.116 347.613L346.255 376.125L276.379 404.608L206.515 433.134L136.632 461.629L66.4668 490.174Z" fill="#A9C6FF"/>
<path d="M66.4668 490.174L136.632 461.629L206.515 433.134L276.379 404.608L346.255 376.125L416.116 347.613L485.991 328.617H904.831" stroke="#1D57C9"/>
<path d="M66.6582 518.739V558.549L904.859 558.643V518.739H66.6582Z" fill="#C8A3F8"/>
<path d="M66.6582 518.739H904.859" stroke="#8E47E8"/>
<path d="M14.2504 405.75L14.2504 404.638L13.0489 404.633C12.8862 402.382 11.648 401.091 9.89039 401.086C8.02782 401.091 7.17786 402.629 6.79485 404.245L6.70566 404.591L3.70981 404.57C3.85672 403.73 4.3604 403.19 5.11592 403.106L5.11592 401.233C3.44748 401.264 2.23025 402.576 2.04137 404.559L0.818894 404.554L0.818894 405.666L2.04137 405.672C2.24074 407.639 3.44748 409.056 5.18413 409.05C6.72665 409.05 7.61333 407.954 8.06979 406.186L8.19047 405.714L11.3647 405.735C11.2178 406.674 10.6826 407.351 9.73299 407.419L9.73299 409.334C11.7005 409.26 12.8705 407.907 13.0489 405.745L14.2504 405.75ZM11.3647 404.622L8.48428 404.601C8.76236 403.646 9.12962 403.038 9.87465 403.033C10.6512 403.038 11.2073 403.662 11.3647 404.622ZM6.42234 405.703C6.19149 406.427 5.80848 407.088 5.06345 407.078C4.38663 407.072 3.86196 406.564 3.70981 405.682L6.42234 405.703ZM12.9072 399.646L12.9072 395.297C12.9072 392.836 11.6533 391.629 9.97958 391.629C8.35311 391.629 7.39822 392.784 7.34051 393.927L7.23557 393.927C6.98898 392.878 6.25445 392.049 4.94802 392.049C3.34779 392.049 2.16204 393.203 2.16204 395.533L2.16204 399.646L12.9072 399.646ZM11.2808 397.7L8.13275 397.7L8.13275 395.554C8.13275 394.352 8.86729 393.607 9.82743 393.607C10.6826 393.607 11.2808 394.195 11.2808 395.606L11.2808 397.7ZM6.73189 397.7L3.76752 397.7L3.76752 395.732C3.76752 394.588 4.37089 393.996 5.19986 393.996C6.14427 393.996 6.73189 394.762 6.73189 395.774L6.73189 397.7ZM3.79376 390.704L3.79376 387.382L12.9072 387.382L12.9072 385.452L3.79376 385.452L3.79376 382.131L2.16204 382.131L2.16204 390.704L3.79376 390.704ZM4.84834 373.464L4.84834 375.054L2.91756 375.054L2.91756 376.953L4.84834 376.953L4.84834 378.097L6.31741 378.097L6.31741 376.953L10.7981 376.953C12.3144 376.963 13.0594 375.862 13.0174 374.434C13.0017 373.894 12.8967 373.521 12.8285 373.317L11.3437 373.637C11.37 373.742 11.4172 373.957 11.4172 374.193C11.4172 374.671 11.2493 375.054 10.4833 375.054L6.3174 375.054L6.3174 373.464L4.84834 373.464ZM13.0646 368.742C13.0646 366.381 11.4014 364.881 8.90926 364.881C6.41184 364.881 4.7434 366.381 4.7434 368.742C4.7434 371.103 6.41185 372.604 8.90926 372.604C11.4014 372.604 13.0646 371.103 13.0646 368.742ZM11.5431 368.732C11.5431 370.038 10.3783 370.678 8.90401 370.678C7.4297 370.678 6.2492 370.038 6.2492 368.732C6.2492 367.446 7.4297 366.806 8.90401 366.806C10.3783 366.806 11.5431 367.446 11.5431 368.732ZM12.9072 363.564L12.9072 361.665L10.1999 361.665L9.46016 360.972L12.9072 358.506L12.9072 356.234L8.32688 359.54L4.84834 356.418L4.84834 358.637L8.08553 361.534L8.08553 361.665L2.16204 361.665L2.16204 363.564L12.9072 363.564ZM13.0646 352.212C13.0646 350.334 12.1465 349.043 10.7456 348.707L10.5462 350.481C11.2283 350.738 11.5851 351.367 11.5851 352.186C11.5851 353.413 10.7771 354.227 9.3972 354.242L9.3972 348.628L8.81482 348.628C5.98686 348.628 4.7434 350.328 4.7434 352.312C4.7434 354.62 6.43808 356.126 8.925 356.126C11.4539 356.126 13.0646 354.641 13.0646 352.212ZM8.11701 354.237C7.08867 354.179 6.22296 353.419 6.22296 352.285C6.22296 351.194 7.02046 350.46 8.11701 350.449L8.11701 354.237ZM8.18522 345.418C7.02046 345.418 6.34888 344.715 6.34888 343.713C6.34888 342.732 6.99422 342.144 8.06979 342.144L12.9072 342.144L12.9072 340.245L7.77598 340.245C5.8452 340.239 4.7434 341.341 4.7434 343.004C4.7434 344.211 5.32054 345.04 6.21772 345.407L6.21772 345.502L4.84834 345.502L4.84834 347.317L12.9072 347.317L12.9072 345.418L8.18522 345.418ZM13.0699 332.921C13.0699 331.657 12.477 330.901 11.8002 330.555L11.8002 330.492L12.9072 330.492L12.9072 328.666L7.51364 328.666C5.3835 328.666 4.7434 330.403 4.7434 331.94C4.7434 333.635 5.49892 334.936 6.96799 335.355L7.21983 333.582C6.66893 333.393 6.19673 332.858 6.19673 331.929C6.19673 331.048 6.64794 330.565 7.44019 330.565L7.47167 330.565C8.01733 330.565 8.04356 331.137 8.19571 332.559C8.36361 334.122 8.83056 335.618 10.6459 335.618C12.2304 335.618 13.0699 334.458 13.0699 332.921ZM11.6743 332.428C11.6743 333.22 11.3122 333.787 10.6144 333.787C9.88514 333.787 9.58083 333.152 9.46016 332.302C9.39195 331.803 9.26603 330.807 9.06666 330.56L10.0163 330.56C10.9135 330.56 11.6743 331.284 11.6743 332.428ZM12.9072 327.052L12.9072 325.152L8.00683 325.152C7.01521 325.152 6.34364 324.491 6.34364 323.673C6.34364 322.87 6.88404 322.319 7.71302 322.319L12.9072 322.319L12.9072 320.457L7.88091 320.457C6.97324 320.457 6.34364 319.916 6.34364 318.998C6.34364 318.232 6.79485 317.623 7.79172 317.623L12.9072 317.623L12.9072 315.719L7.4979 315.719C5.6983 315.719 4.7434 316.758 4.7434 318.237C4.7434 319.407 5.32054 320.299 6.21772 320.656L6.21772 320.74C5.30479 321.049 4.7434 321.831 4.7434 322.917C4.7434 323.998 5.29955 324.806 6.21772 325.142L6.21772 325.236L4.84833 325.236L4.84833 327.052L12.9072 327.052ZM13.0646 310.572C13.0646 308.211 11.4014 306.711 8.90926 306.711C6.41184 306.711 4.7434 308.211 4.7434 310.572C4.7434 312.933 6.41184 314.434 8.90926 314.434C11.4014 314.434 13.0646 312.933 13.0646 310.572ZM11.5431 310.562C11.5431 311.868 10.3783 312.508 8.90401 312.508C7.4297 312.508 6.2492 311.868 6.2492 310.562C6.2492 309.276 7.4297 308.636 8.90401 308.636C10.3783 308.636 11.5431 309.276 11.5431 310.562ZM9.51787 300.258C10.7456 300.258 11.3542 301.134 11.3542 301.973C11.3542 302.886 10.7089 303.495 9.68577 303.495L4.84833 303.495L4.84833 305.394L9.97958 305.394C11.9156 305.394 13.0122 304.292 13.0122 302.708C13.0122 301.501 12.3773 300.651 11.4749 300.284L11.4749 300.2L12.9072 300.2L12.9072 298.358L4.84833 298.358L4.84833 300.258L9.51787 300.258ZM8.18522 294.801C7.02046 294.801 6.34888 294.098 6.34888 293.096C6.34888 292.115 6.99422 291.528 8.06979 291.528L12.9072 291.528L12.9072 289.628L7.77598 289.628C5.8452 289.623 4.7434 290.725 4.7434 292.388C4.7434 293.595 5.32053 294.424 6.21771 294.791L6.21771 294.885L4.84833 294.885L4.84833 296.701L12.9072 296.701L12.9072 294.801L8.18522 294.801ZM4.84833 283.969L4.84833 285.559L2.91756 285.559L2.91756 287.458L4.84833 287.458L4.84833 288.602L6.3174 288.602L6.3174 287.458L10.7981 287.458C12.3143 287.468 13.0594 286.367 13.0174 284.939C13.0017 284.399 12.8967 284.026 12.8285 283.822L11.3437 284.142C11.3699 284.247 11.4172 284.462 11.4172 284.698C11.4172 285.176 11.2493 285.559 10.4833 285.559L6.3174 285.559L6.3174 283.969L4.84833 283.969ZM12.9072 279.307L12.9072 277.407L4.84833 277.407L4.84833 279.307L12.9072 279.307ZM3.70456 278.352C3.70456 277.748 3.24285 277.255 2.67621 277.255C2.10432 277.255 1.64262 277.748 1.64262 278.352C1.64262 278.96 2.10432 279.453 2.67621 279.453C3.24285 279.453 3.70456 278.96 3.70456 278.352ZM8.18522 273.85C7.02045 273.85 6.34888 273.147 6.34888 272.145C6.34888 271.164 6.99422 270.576 8.06979 270.576L12.9072 270.576L12.9072 268.677L7.77598 268.677C5.8452 268.672 4.7434 269.774 4.7434 271.437C4.7434 272.644 5.32053 273.473 6.21771 273.84L6.21771 273.934L4.84833 273.934L4.84833 275.75L12.9072 275.75L12.9072 273.85L8.18522 273.85ZM13.0646 260.157C13.0646 258.132 11.8631 256.841 10.1527 256.705L10.1527 258.52C11.0184 258.683 11.5169 259.307 11.5169 260.142C11.5169 261.327 10.5252 262.093 8.87778 262.093C7.25131 262.093 6.27543 261.312 6.27543 260.142C6.27543 259.229 6.86305 258.667 7.63956 258.52L7.63956 256.705C5.89242 256.836 4.7434 258.2 4.7434 260.168C4.7434 262.529 6.44857 264.019 8.90926 264.019C11.349 264.019 13.0646 262.566 13.0646 260.157ZM12.9072 255.441L12.9072 253.542L4.84833 253.542L4.84833 255.441L12.9072 255.441ZM3.70456 254.486C3.70456 253.883 3.24285 253.389 2.67621 253.389C2.10432 253.389 1.64262 253.883 1.64262 254.486C1.64262 255.095 2.10432 255.588 2.67621 255.588C3.24285 255.588 3.70456 255.095 3.70456 254.486ZM12.9072 251.884L12.9072 249.985L8.16947 249.985C7.14637 249.985 6.42233 249.213 6.42233 248.169C6.42233 247.849 6.48005 247.451 6.53251 247.288L4.78537 247.288C4.75389 247.461 4.7329 247.76 4.7329 247.97C4.7329 248.893 5.25757 249.665 6.19148 249.958L6.19148 250.042L4.84833 250.042L4.84833 251.884L12.9072 251.884ZM13.0646 243.138C13.0646 241.113 11.8631 239.822 10.1527 239.686L10.1527 241.501C11.0184 241.664 11.5169 242.288 11.5169 243.122C11.5169 244.308 10.5252 245.074 8.87778 245.074C7.25131 245.074 6.27543 244.292 6.27543 243.122C6.27543 242.21 6.86305 241.648 7.63956 241.501L7.63956 239.686C5.89242 239.817 4.7434 241.181 4.7434 243.149C4.7434 245.51 6.44857 247 8.90926 247C11.349 247 13.0646 245.546 13.0646 243.138ZM9.51787 233.285C10.7456 233.285 11.3542 234.161 11.3542 235.001C11.3542 235.914 10.7089 236.522 9.68576 236.522L4.84833 236.522L4.84833 238.422L9.97958 238.422C11.9156 238.422 13.0122 237.32 13.0122 235.735C13.0122 234.529 12.3773 233.679 11.4749 233.312L11.4749 233.228L12.9072 233.228L12.9072 231.386L4.84833 231.386L4.84833 233.285L9.51787 233.285ZM2.16203 227.829L2.16203 229.728L12.9072 229.728L12.9072 227.829L2.16203 227.829ZM13.0699 223.853C13.0699 222.588 12.477 221.833 11.8002 221.486L11.8002 221.423L12.9072 221.423L12.9072 219.597L7.51364 219.597C5.38349 219.597 4.7434 221.334 4.7434 222.871C4.7434 224.566 5.49892 225.867 6.96799 226.287L7.21983 224.514C6.66893 224.325 6.19673 223.79 6.19673 222.861C6.19673 221.979 6.64794 221.497 7.44019 221.497L7.47167 221.497C8.01732 221.497 8.04355 222.069 8.19571 223.49C8.3636 225.054 8.83055 226.549 10.6459 226.549C12.2304 226.549 13.0699 225.39 13.0699 223.853ZM11.6743 223.359C11.6743 224.152 11.3122 224.718 10.6144 224.718C9.88514 224.718 9.58083 224.083 9.46015 223.233C9.39195 222.735 9.26603 221.738 9.06665 221.492L10.0163 221.492C10.9135 221.492 11.6743 222.216 11.6743 223.359ZM4.84833 213.959L4.84833 215.549L2.91755 215.549L2.91755 217.448L4.84833 217.448L4.84833 218.592L6.3174 218.592L6.3174 217.448L10.7981 217.448C12.3143 217.458 13.0594 216.357 13.0174 214.93C13.0017 214.389 12.8967 214.017 12.8285 213.812L11.3437 214.132C11.3699 214.237 11.4172 214.452 11.4172 214.688C11.4172 215.166 11.2493 215.549 10.4833 215.549L6.3174 215.549L6.3174 213.959L4.84833 213.959ZM12.9072 212.666L12.9072 210.767L4.84833 210.767L4.84833 212.666L12.9072 212.666ZM3.70456 211.711C3.70456 211.108 3.24285 210.615 2.67621 210.615C2.10432 210.615 1.64261 211.108 1.64261 211.711C1.64261 212.32 2.10432 212.813 2.67621 212.813C3.24285 212.813 3.70456 212.32 3.70456 211.711ZM13.0646 205.594C13.0646 203.233 11.4014 201.732 8.90925 201.732C6.41184 201.732 4.7434 203.233 4.7434 205.594C4.7434 207.955 6.41184 209.455 8.90925 209.455C11.4014 209.455 13.0646 207.955 13.0646 205.594ZM11.5431 205.583C11.5431 206.89 10.3783 207.53 8.90401 207.53C7.42969 207.53 6.24919 206.89 6.24919 205.583C6.24919 204.298 7.42969 203.658 8.90401 203.658C10.3783 203.658 11.5431 204.298 11.5431 205.583ZM8.18521 198.517C7.02045 198.517 6.34888 197.813 6.34888 196.811C6.34888 195.83 6.99422 195.243 8.06979 195.243L12.9072 195.243L12.9072 193.343L7.77597 193.343C5.8452 193.338 4.7434 194.44 4.7434 196.103C4.7434 197.31 5.32053 198.139 6.21771 198.506L6.21771 198.6L4.84833 198.6L4.84833 200.416L12.9072 200.416L12.9072 198.517L8.18521 198.517ZM8.52625 187.866C11.1443 187.866 13.3217 187.169 15.1895 185.789L15.1895 184C13.8044 185.065 11.0132 185.888 8.52625 185.888C6.03408 185.888 3.24285 185.065 1.85773 184L1.85773 185.789C3.72554 187.169 5.90816 187.866 8.52625 187.866ZM12.9072 179.45L12.9072 177.551L4.84833 177.551L4.84833 179.45L12.9072 179.45ZM3.70455 178.495C3.70455 177.892 3.24285 177.399 2.67621 177.399C2.10432 177.399 1.64261 177.892 1.64261 178.495C1.64261 179.104 2.10432 179.597 2.67621 179.597C3.24285 179.597 3.70455 179.104 3.70455 178.495ZM8.18521 173.994C7.02045 173.994 6.34888 173.291 6.34888 172.289C6.34888 171.308 6.99422 170.72 8.06978 170.72L12.9072 170.72L12.9072 168.821L7.77597 168.821C5.8452 168.816 4.74339 169.917 4.74339 171.581C4.7434 172.787 5.32053 173.616 6.21771 173.984L6.21771 174.078L4.84833 174.078L4.84833 175.893L12.9072 175.893L12.9072 173.994L8.18521 173.994ZM2.16203 163.732L12.9072 163.732L12.9072 161.865L5.50941 161.865L5.50941 161.765L12.8757 158.795L12.8757 157.4L5.52515 154.43L5.52515 154.33L12.9072 154.33L12.9072 152.462L2.16203 152.462L2.16203 154.844L9.94809 158.034L9.94809 158.16L2.16203 161.35L2.16203 163.732ZM12.9072 150.722L12.9072 148.823L4.84833 148.823L4.84833 150.722L12.9072 150.722ZM3.70455 149.767C3.70455 149.164 3.24285 148.671 2.6762 148.671C2.10432 148.671 1.64261 149.164 1.64261 149.767C1.64261 150.376 2.10432 150.869 2.6762 150.869C3.24285 150.869 3.70455 150.376 3.70455 149.767ZM2.16203 145.266L2.16203 147.165L12.9072 147.165L12.9072 145.266L2.16203 145.266ZM2.16203 141.709L2.16203 143.609L12.9072 143.608L12.9072 141.709L2.16203 141.709ZM12.9072 140.052L12.9072 138.152L4.84833 138.152L4.84833 140.052L12.9072 140.052ZM3.70455 139.097C3.70455 138.493 3.24285 138 2.6762 138C2.10432 138 1.64261 138.493 1.64261 139.097C1.64261 139.705 2.10432 140.199 2.6762 140.199C3.24285 140.199 3.70455 139.705 3.70455 139.097ZM13.0646 132.979C13.0646 130.618 11.4014 129.118 8.90925 129.118C6.41183 129.118 4.74339 130.618 4.74339 132.979C4.74339 135.34 6.41183 136.841 8.90925 136.841C11.4014 136.841 13.0646 135.34 13.0646 132.979ZM11.5431 132.969C11.5431 134.275 10.3783 134.916 8.904 134.916C7.42969 134.916 6.24919 134.275 6.24919 132.969C6.24919 131.684 7.42969 131.043 8.904 131.043C10.3783 131.043 11.5431 131.684 11.5431 132.969ZM8.18521 125.902C7.02045 125.902 6.34887 125.199 6.34887 124.197C6.34887 123.216 6.99421 122.628 8.06978 122.628L12.9072 122.628L12.9072 120.729L7.77597 120.729C5.84519 120.724 4.74339 121.825 4.74339 123.489C4.74339 124.695 5.32053 125.524 6.21771 125.892L6.21771 125.986L4.84833 125.986L4.84833 127.801L12.9072 127.801L12.9072 125.902L8.18521 125.902ZM8.52624 115.704C5.90815 115.704 3.73078 116.402 1.86297 117.782L1.86297 119.571C3.24809 118.506 6.03932 117.682 8.52624 117.682C11.0184 117.682 13.8096 118.506 15.1948 119.571L15.1948 117.782C13.3269 116.402 11.1443 115.704 8.52624 115.704ZM13.0226 112.404C13.0226 111.785 12.5085 111.255 11.8684 111.25C11.2388 111.255 10.7246 111.785 10.7246 112.404C10.7246 113.045 11.2388 113.564 11.8684 113.559C12.5085 113.564 13.0226 113.045 13.0226 112.404Z" fill="#FF7A00"/>
<path d="M414.494 619.024V629.769H416.362V622.371H416.461L419.431 629.738H420.827L423.796 622.387H423.896V629.769H425.764V619.024H423.382L420.192 626.81H420.066L416.876 619.024H414.494ZM431.019 629.926C433.38 629.926 434.881 628.263 434.881 625.771C434.881 623.274 433.38 621.605 431.019 621.605C428.658 621.605 427.158 623.274 427.158 625.771C427.158 628.263 428.658 629.926 431.019 629.926ZM431.03 628.405C429.723 628.405 429.083 627.24 429.083 625.766C429.083 624.292 429.723 623.111 431.03 623.111C432.315 623.111 432.955 624.292 432.955 625.766C432.955 627.24 432.315 628.405 431.03 628.405ZM438.097 625.047C438.097 623.882 438.8 623.211 439.802 623.211C440.783 623.211 441.371 623.856 441.371 624.932V629.769H443.27V624.638C443.275 622.707 442.173 621.605 440.51 621.605C439.303 621.605 438.474 622.182 438.107 623.08H438.013V621.71H436.197V629.769H438.097V625.047ZM448.929 621.71H447.34V619.779H445.44V621.71H444.297V623.179H445.44V627.66C445.43 629.176 446.532 629.921 447.959 629.879C448.499 629.863 448.872 629.759 449.076 629.69L448.756 628.206C448.651 628.232 448.436 628.279 448.2 628.279C447.723 628.279 447.34 628.111 447.34 627.345V623.179H448.929V621.71ZM452.295 625.047C452.295 623.882 453.019 623.211 454.037 623.211C455.033 623.211 455.621 623.846 455.621 624.932V629.769H457.52V624.638C457.52 622.691 456.419 621.605 454.745 621.605C453.507 621.605 452.72 622.167 452.347 623.08H452.253V619.024H450.395V629.769H452.295V625.047ZM468.9 623.84C468.637 622.476 467.546 621.605 465.657 621.605C463.716 621.605 462.394 622.56 462.399 624.05C462.394 625.225 463.118 626.002 464.666 626.322L466.04 626.611C466.78 626.773 467.126 627.072 467.126 627.529C467.126 628.08 466.528 628.494 465.626 628.494C464.755 628.494 464.188 628.116 464.026 627.392L462.173 627.571C462.41 629.05 463.653 629.926 465.631 629.926C467.646 629.926 469.068 628.882 469.073 627.356C469.068 626.207 468.328 625.503 466.806 625.173L465.432 624.879C464.613 624.696 464.288 624.412 464.293 623.945C464.288 623.4 464.891 623.022 465.683 623.022C466.56 623.022 467.021 623.499 467.168 624.029L468.9 623.84ZM470.343 629.769H472.243V621.71H470.343V629.769ZM471.298 620.566C471.902 620.566 472.395 620.105 472.395 619.538C472.395 618.966 471.902 618.504 471.298 618.504C470.69 618.504 470.197 618.966 470.197 619.538C470.197 620.105 470.69 620.566 471.298 620.566ZM475.8 625.047C475.8 623.882 476.503 623.211 477.505 623.211C478.486 623.211 479.074 623.856 479.074 624.932V629.769H480.973V624.638C480.978 622.707 479.876 621.605 478.213 621.605C477.006 621.605 476.177 622.182 475.81 623.08H475.716V621.71H473.9V629.769H475.8V625.047ZM486.123 629.926C488.149 629.926 489.439 628.725 489.576 627.015H487.76C487.598 627.88 486.973 628.379 486.139 628.379C484.953 628.379 484.187 627.387 484.187 625.74C484.187 624.113 484.969 623.137 486.139 623.137C487.052 623.137 487.613 623.725 487.76 624.501H489.576C489.445 622.754 488.08 621.605 486.113 621.605C483.752 621.605 482.262 623.31 482.262 625.771C482.262 628.211 483.715 629.926 486.123 629.926ZM494.408 629.926C496.286 629.926 497.577 629.008 497.912 627.607L496.139 627.408C495.882 628.09 495.252 628.447 494.434 628.447C493.206 628.447 492.393 627.639 492.377 626.259H497.991V625.677C497.991 622.849 496.291 621.605 494.308 621.605C491.999 621.605 490.494 623.3 490.494 625.787C490.494 628.316 491.978 629.926 494.408 629.926ZM492.382 624.979C492.44 623.95 493.201 623.085 494.334 623.085C495.425 623.085 496.16 623.882 496.17 624.979H492.382ZM502.283 620.656H505.605V629.769H507.535V620.656H510.856V619.024H502.283V620.656ZM518.95 622.455H520.934C520.603 620.346 518.777 618.877 516.4 618.877C513.588 618.877 511.479 620.944 511.479 624.407C511.479 627.807 513.494 629.916 516.458 629.916C519.118 629.916 521.023 628.206 521.023 625.435V624.145H516.663V625.666H519.139C519.108 627.198 518.085 628.169 516.469 628.169C514.669 628.169 513.436 626.82 513.436 624.386C513.436 621.967 514.69 620.624 516.427 620.624C517.723 620.624 518.604 621.317 518.95 622.455ZM522.61 629.769H529.64V628.137H524.556V625.204H529.236V623.573H524.556V620.656H529.598V619.024H522.61V629.769ZM533.602 625.068H534.877L534.762 622.943L536.546 624.113L537.186 623.001L535.276 622.046L537.186 621.091L536.546 619.979L534.762 621.149L534.877 619.024H533.602L533.723 621.149L531.939 619.979L531.299 621.091L533.204 622.046L531.299 623.001L531.939 624.113L533.723 622.943L533.602 625.068Z" fill="#FF7A00"/>
<path d="M121.766 675.23H122.845C122.795 673.84 121.514 672.801 119.733 672.801C117.97 672.801 116.585 673.826 116.585 675.373C116.585 676.615 117.484 677.352 118.923 677.766L120.057 678.09C121.028 678.36 121.892 678.701 121.892 679.619C121.892 680.626 120.92 681.292 119.643 681.292C118.546 681.292 117.574 680.806 117.484 679.763H116.333C116.441 681.274 117.664 682.299 119.643 682.299C121.766 682.299 122.971 681.13 122.971 679.637C122.971 677.91 121.334 677.352 120.381 677.1L119.445 676.849C118.762 676.669 117.664 676.309 117.664 675.32C117.664 674.438 118.474 673.791 119.697 673.791C120.812 673.791 121.658 674.321 121.766 675.23ZM127.304 682.281C128.707 682.281 129.732 681.58 130.056 680.536L129.03 680.248C128.761 680.968 128.136 681.328 127.304 681.328C126.058 681.328 125.199 680.523 125.149 679.043H130.164V678.593C130.164 676.021 128.635 675.14 127.196 675.14C125.325 675.14 124.084 676.615 124.084 678.737C124.084 680.86 125.307 682.281 127.304 682.281ZM125.149 678.126C125.221 677.051 125.981 676.093 127.196 676.093C128.347 676.093 129.084 676.956 129.084 678.126H125.149ZM134.421 682.281C135.824 682.281 136.85 681.58 137.173 680.536L136.148 680.248C135.878 680.968 135.253 681.328 134.421 681.328C133.175 681.328 132.316 680.523 132.267 679.043H137.281V678.593C137.281 676.021 135.752 675.14 134.313 675.14C132.442 675.14 131.201 676.615 131.201 678.737C131.201 680.86 132.424 682.281 134.421 682.281ZM132.267 678.126C132.339 677.051 133.099 676.093 134.313 676.093C135.464 676.093 136.202 676.956 136.202 678.126H132.267ZM141.251 682.281C142.582 682.281 143.032 681.454 143.266 681.076H143.391V682.137H144.417V672.927H143.355V676.327H143.266C143.032 675.967 142.618 675.14 141.269 675.14C139.524 675.14 138.319 676.525 138.319 678.701C138.319 680.896 139.524 682.281 141.251 682.281ZM141.395 681.328C140.064 681.328 139.38 680.158 139.38 678.683C139.38 677.226 140.046 676.093 141.395 676.093C142.69 676.093 143.373 677.136 143.373 678.683C143.373 680.248 142.672 681.328 141.395 681.328Z" fill="black"/>
<rect x="66.8894" y="668.951" width="40.1831" height="14.8501" fill="#3DA40D"/>
<path d="M116.729 727.43H117.844V724.066H119.859C122.004 724.066 122.971 722.762 122.971 721.134C122.971 719.506 122.004 718.22 119.841 718.22H116.729V727.43ZM117.844 723.076V719.209H119.805C121.302 719.209 121.874 720.027 121.874 721.134C121.874 722.24 121.302 723.076 119.823 723.076H117.844ZM125.432 718.22H124.37V727.43H125.432V718.22ZM129.155 727.592C130.36 727.592 130.99 726.944 131.206 726.494H131.26V727.43H132.321V722.879C132.321 720.684 130.648 720.432 129.767 720.432C128.723 720.432 127.536 720.792 126.996 722.051L128.004 722.411C128.238 721.907 128.791 721.368 129.803 721.368C130.778 721.368 131.26 721.885 131.26 722.771V722.807C131.26 723.319 130.738 723.274 129.479 723.436C128.197 723.603 126.798 723.886 126.798 725.469C126.798 726.818 127.842 727.592 129.155 727.592ZM129.317 726.638C128.471 726.638 127.86 726.26 127.86 725.523C127.86 724.713 128.597 724.462 129.425 724.354C129.874 724.3 131.08 724.174 131.26 723.958V724.929C131.26 725.793 130.576 726.638 129.317 726.638ZM137.009 720.522H135.534V718.867H134.472V720.522H133.429V721.421H134.472V725.739C134.472 726.944 135.444 727.52 136.343 727.52C136.739 727.52 136.991 727.448 137.135 727.394L136.919 726.44C136.829 726.458 136.685 726.494 136.451 726.494C135.984 726.494 135.534 726.35 135.534 725.451V721.421H137.009V720.522ZM141.428 720.522H139.881V719.821C139.881 719.137 140.169 718.777 140.87 718.777C141.176 718.777 141.356 718.849 141.464 718.885L141.77 717.968C141.608 717.896 141.284 717.788 140.763 717.788C139.773 717.788 138.82 718.381 138.82 719.569V720.522H137.705V721.421H138.82V727.43H139.881V721.421H141.428V720.522ZM145.184 727.574C147.055 727.574 148.314 726.152 148.314 724.012C148.314 721.853 147.055 720.432 145.184 720.432C143.313 720.432 142.054 721.853 142.054 724.012C142.054 726.152 143.313 727.574 145.184 727.574ZM145.184 726.62C143.763 726.62 143.115 725.397 143.115 724.012C143.115 722.627 143.763 721.386 145.184 721.386C146.605 721.386 147.253 722.627 147.253 724.012C147.253 725.397 146.605 726.62 145.184 726.62ZM149.681 727.43H150.742V723.058C150.742 722.123 151.48 721.439 152.487 721.439C152.77 721.439 153.063 721.493 153.135 721.511V720.432C153.013 720.423 152.734 720.414 152.577 720.414C151.75 720.414 151.03 720.882 150.778 721.565H150.706V720.522H149.681V727.43ZM154.14 727.43H155.201V723.112C155.201 722.101 155.938 721.386 156.766 721.386C157.571 721.386 158.133 721.912 158.133 722.699V727.43H159.212V722.933C159.212 722.042 159.77 721.386 160.741 721.386C161.497 721.386 162.144 721.786 162.144 722.807V727.43H163.206V722.807C163.206 721.183 162.333 720.432 161.101 720.432C160.112 720.432 159.388 720.886 159.032 721.601H158.96C158.619 720.864 158.016 720.432 157.108 720.432C156.208 720.432 155.543 720.864 155.255 721.601H155.165V720.522H154.14V727.43ZM174.641 721.098H175.793C175.451 719.317 173.958 718.094 172.015 718.094C169.654 718.094 167.986 719.91 167.986 722.825C167.986 725.739 169.641 727.556 172.087 727.556C174.282 727.556 175.847 726.094 175.847 723.814V722.825H172.339V723.814H174.767C174.736 725.469 173.648 726.512 172.087 726.512C170.378 726.512 169.065 725.217 169.065 722.825C169.065 720.432 170.378 719.137 172.015 719.137C173.346 719.137 174.25 719.888 174.641 721.098ZM177.36 727.43H178.421V723.058C178.421 722.123 179.158 721.439 180.166 721.439C180.449 721.439 180.741 721.493 180.813 721.511V720.432C180.692 720.423 180.413 720.414 180.256 720.414C179.428 720.414 178.709 720.882 178.457 721.565H178.385V720.522H177.36V727.43ZM184.414 727.574C186.285 727.574 187.544 726.152 187.544 724.012C187.544 721.853 186.285 720.432 184.414 720.432C182.543 720.432 181.284 721.853 181.284 724.012C181.284 726.152 182.543 727.574 184.414 727.574ZM184.414 726.62C182.993 726.62 182.345 725.397 182.345 724.012C182.345 722.627 182.993 721.386 184.414 721.386C185.835 721.386 186.483 722.627 186.483 724.012C186.483 725.397 185.835 726.62 184.414 726.62ZM190.241 727.43H191.284L192.795 722.123H192.903L194.414 727.43H195.458L197.562 720.522H196.447L194.954 725.793H194.882L193.425 720.522H192.292L190.817 725.811H190.745L189.252 720.522H188.136L190.241 727.43ZM201.716 720.522H200.241V718.867H199.18V720.522H198.137V721.421H199.18V725.739C199.18 726.944 200.151 727.52 201.051 727.52C201.446 727.52 201.698 727.448 201.842 727.394L201.626 726.44C201.536 726.458 201.393 726.494 201.159 726.494C200.691 726.494 200.241 726.35 200.241 725.451V721.421H201.716V720.522ZM204.269 723.274C204.269 722.069 205.038 721.386 206.086 721.386C207.084 721.386 207.687 722.015 207.687 723.112V727.43H208.748V723.04C208.748 721.264 207.804 720.432 206.392 720.432C205.304 720.432 204.683 720.886 204.359 721.601H204.269V718.22H203.208V727.43H204.269V723.274Z" fill="black"/>
<rect x="66.8894" y="714.243" width="40.1831" height="14.8501" fill="#6C6C6C"/>
<path d="M298.194 721.098C297.852 719.209 296.341 718.094 294.488 718.094C292.132 718.094 290.423 719.91 290.423 722.825C290.423 725.739 292.132 727.556 294.488 727.556C296.341 727.556 297.852 726.44 298.194 724.552H297.079C296.809 725.829 295.711 726.512 294.488 726.512C292.815 726.512 291.502 725.217 291.502 722.825C291.502 720.432 292.815 719.137 294.488 719.137C295.711 719.137 296.809 719.821 297.079 721.098H298.194ZM302.405 727.574C304.276 727.574 305.535 726.152 305.535 724.012C305.535 721.853 304.276 720.432 302.405 720.432C300.534 720.432 299.275 721.853 299.275 724.012C299.275 726.152 300.534 727.574 302.405 727.574ZM302.405 726.62C300.984 726.62 300.336 725.397 300.336 724.012C300.336 722.627 300.984 721.386 302.405 721.386C303.826 721.386 304.474 722.627 304.474 724.012C304.474 725.397 303.826 726.62 302.405 726.62ZM306.902 727.43H307.963V723.112C307.963 722.101 308.701 721.386 309.528 721.386C310.333 721.386 310.895 721.912 310.895 722.699V727.43H311.975V722.933C311.975 722.042 312.532 721.386 313.504 721.386C314.259 721.386 314.907 721.786 314.907 722.807V727.43H315.968V722.807C315.968 721.183 315.096 720.432 313.864 720.432C312.874 720.432 312.15 720.886 311.795 721.601H311.723C311.381 720.864 310.778 720.432 309.87 720.432C308.971 720.432 308.305 720.864 308.017 721.601H307.927V720.522H306.902V727.43ZM317.655 727.43H318.717V723.112C318.717 722.101 319.454 721.386 320.282 721.386C321.087 721.386 321.649 721.912 321.649 722.699V727.43H322.728V722.933C322.728 722.042 323.286 721.386 324.257 721.386C325.013 721.386 325.66 721.786 325.66 722.807V727.43H326.722V722.807C326.722 721.183 325.849 720.432 324.617 720.432C323.628 720.432 322.904 720.886 322.548 721.601H322.476C322.135 720.864 321.532 720.432 320.624 720.432C319.724 720.432 319.059 720.864 318.771 721.601H318.681V720.522H317.655V727.43ZM332.762 724.605C332.762 725.901 331.773 726.494 330.981 726.494C330.1 726.494 329.47 725.847 329.47 724.839V720.522H328.409V724.911C328.409 726.674 329.344 727.52 330.639 727.52C331.683 727.52 332.366 726.962 332.69 726.26H332.762V727.43H333.823V720.522H332.762V724.605ZM336.575 723.274C336.575 722.069 337.322 721.386 338.338 721.386C339.323 721.386 339.921 722.029 339.921 723.112V727.43H340.983V723.04C340.983 721.278 340.043 720.432 338.644 720.432C337.601 720.432 336.953 720.9 336.629 721.601H336.539V720.522H335.514V727.43H336.575V723.274ZM342.669 727.43H343.73V720.522H342.669V727.43ZM343.208 719.371C343.622 719.371 343.964 719.047 343.964 718.651C343.964 718.256 343.622 717.932 343.208 717.932C342.795 717.932 342.453 718.256 342.453 718.651C342.453 719.047 342.795 719.371 343.208 719.371ZM348.425 720.522H346.95V718.867H345.888V720.522H344.845V721.421H345.888V725.739C345.888 726.944 346.86 727.52 347.759 727.52C348.155 727.52 348.407 727.448 348.551 727.394L348.335 726.44C348.245 726.458 348.101 726.494 347.867 726.494C347.399 726.494 346.95 726.35 346.95 725.451V721.421H348.425V720.522ZM350.452 730.02C351.409 730.02 352.084 729.512 352.484 728.437L355.425 720.54L354.265 720.522L352.358 726.027H352.286L350.38 720.522H349.228L351.783 727.466L351.585 728.005C351.198 729.058 350.721 729.157 349.948 728.959L349.678 729.894C349.786 729.948 350.092 730.02 350.452 730.02ZM360.029 727.43H361.144V723.832H363.159C363.24 723.832 363.316 723.832 363.393 723.827L365.335 727.43H366.631L364.548 723.625C365.722 723.225 366.271 722.267 366.271 721.044C366.271 719.416 365.299 718.22 363.141 718.22H360.029V727.43ZM361.144 722.825V719.209H363.105C364.598 719.209 365.173 719.937 365.173 721.044C365.173 722.15 364.598 722.825 363.123 722.825H361.144ZM370.554 727.574C371.957 727.574 372.982 726.872 373.306 725.829L372.281 725.541C372.011 726.26 371.386 726.62 370.554 726.62C369.308 726.62 368.449 725.815 368.4 724.336H373.414V723.886C373.414 721.314 371.885 720.432 370.446 720.432C368.575 720.432 367.334 721.907 367.334 724.03C367.334 726.152 368.557 727.574 370.554 727.574ZM368.4 723.418C368.472 722.343 369.232 721.386 370.446 721.386C371.597 721.386 372.335 722.249 372.335 723.418H368.4ZM376.34 727.43H377.384L378.895 722.123H379.003L380.514 727.43H381.557L383.662 720.522H382.546L381.053 725.793H380.981L379.524 720.522H378.391L376.916 725.811H376.844L375.351 720.522H374.236L376.34 727.43ZM386.844 727.592C388.049 727.592 388.679 726.944 388.895 726.494H388.949V727.43H390.01V722.879C390.01 720.684 388.337 720.432 387.456 720.432C386.413 720.432 385.225 720.792 384.686 722.051L385.693 722.411C385.927 721.907 386.48 721.368 387.492 721.368C388.468 721.368 388.949 721.885 388.949 722.771V722.807C388.949 723.319 388.427 723.274 387.168 723.436C385.886 723.603 384.488 723.886 384.488 725.469C384.488 726.818 385.531 727.592 386.844 727.592ZM387.006 726.638C386.161 726.638 385.549 726.26 385.549 725.523C385.549 724.713 386.287 724.462 387.114 724.354C387.564 724.3 388.769 724.174 388.949 723.958V724.929C388.949 725.793 388.265 726.638 387.006 726.638ZM391.694 727.43H392.755V723.058C392.755 722.123 393.493 721.439 394.5 721.439C394.784 721.439 395.076 721.493 395.148 721.511V720.432C395.026 720.423 394.748 720.414 394.59 720.414C393.763 720.414 393.043 720.882 392.791 721.565H392.719V720.522H391.694V727.43ZM398.551 727.574C399.882 727.574 400.332 726.746 400.566 726.368H400.691V727.43H401.717V718.22H400.655V721.619H400.566C400.332 721.26 399.918 720.432 398.569 720.432C396.824 720.432 395.619 721.817 395.619 723.994C395.619 726.188 396.824 727.574 398.551 727.574ZM398.695 726.62C397.364 726.62 396.68 725.451 396.68 723.976C396.68 722.519 397.346 721.386 398.695 721.386C399.99 721.386 400.673 722.429 400.673 723.976C400.673 725.541 399.972 726.62 398.695 726.62ZM408.448 722.069C408.115 721.089 407.368 720.432 406.001 720.432C404.544 720.432 403.465 721.26 403.465 722.429C403.465 723.382 404.031 724.021 405.3 724.318L406.451 724.587C407.148 724.749 407.476 725.082 407.476 725.559C407.476 726.152 406.847 726.638 405.857 726.638C404.989 726.638 404.445 726.265 404.256 725.523L403.249 725.775C403.496 726.948 404.463 727.574 405.875 727.574C407.481 727.574 408.574 726.697 408.574 725.505C408.574 724.543 407.971 723.935 406.739 723.634L405.713 723.382C404.895 723.18 404.526 722.906 404.526 722.375C404.526 721.781 405.156 721.35 406.001 721.35C406.928 721.35 407.31 721.862 407.494 722.339L408.448 722.069Z" fill="black"/>
<rect x="240.943" y="714.243" width="40.1831" height="14.8501" fill="#A0A0A0"/>
<path d="M224.289 682.137H225.404V678.773H227.419C229.564 678.773 230.531 677.469 230.531 675.841C230.531 674.213 229.564 672.927 227.401 672.927H224.289V682.137ZM225.404 677.783V673.916H227.365C228.863 673.916 229.434 674.734 229.434 675.841C229.434 676.947 228.863 677.783 227.383 677.783H225.404ZM231.931 682.137H232.992V677.765C232.992 676.83 233.729 676.147 234.737 676.147C235.02 676.147 235.312 676.2 235.384 676.218V675.139C235.263 675.13 234.984 675.121 234.827 675.121C233.999 675.121 233.28 675.589 233.028 676.272H232.956V675.229H231.931V682.137ZM236.389 682.137H237.451V675.229H236.389V682.137ZM236.929 674.078C237.343 674.078 237.684 673.754 237.684 673.358C237.684 672.963 237.343 672.639 236.929 672.639C236.515 672.639 236.173 672.963 236.173 673.358C236.173 673.754 236.515 674.078 236.929 674.078ZM244.79 675.229H243.638L241.731 680.734H241.66L239.753 675.229H238.601L241.156 682.137H242.235L244.79 675.229ZM247.76 682.299C248.965 682.299 249.594 681.651 249.81 681.201H249.864V682.137H250.926V677.586C250.926 675.391 249.253 675.139 248.371 675.139C247.328 675.139 246.141 675.499 245.601 676.758L246.608 677.118C246.842 676.614 247.395 676.075 248.407 676.075C249.383 676.075 249.864 676.592 249.864 677.478V677.514C249.864 678.026 249.343 677.981 248.083 678.143C246.802 678.31 245.403 678.593 245.403 680.176C245.403 681.525 246.446 682.299 247.76 682.299ZM247.921 681.345C247.076 681.345 246.464 680.967 246.464 680.23C246.464 679.42 247.202 679.169 248.029 679.061C248.479 679.007 249.684 678.881 249.864 678.665V679.636C249.864 680.5 249.181 681.345 247.921 681.345ZM255.614 675.229H254.138V673.574H253.077V675.229H252.034V676.129H253.077V680.446C253.077 681.651 254.049 682.227 254.948 682.227C255.344 682.227 255.596 682.155 255.739 682.101L255.524 681.147C255.434 681.165 255.29 681.201 255.056 681.201C254.588 681.201 254.138 681.057 254.138 680.158V676.129H255.614V675.229ZM259.779 682.281C261.182 682.281 262.207 681.579 262.531 680.536L261.506 680.248C261.236 680.967 260.611 681.327 259.779 681.327C258.533 681.327 257.674 680.522 257.625 679.043H262.639V678.593C262.639 676.021 261.11 675.139 259.671 675.139C257.8 675.139 256.559 676.614 256.559 678.737C256.559 680.86 257.782 682.281 259.779 682.281ZM257.625 678.125C257.697 677.05 258.457 676.093 259.671 676.093C260.822 676.093 261.56 676.956 261.56 678.125H257.625ZM272.201 676.776C271.869 675.796 271.122 675.139 269.755 675.139C268.298 675.139 267.219 675.967 267.219 677.136C267.219 678.089 267.785 678.728 269.053 679.025L270.205 679.295C270.902 679.456 271.23 679.789 271.23 680.266C271.23 680.86 270.6 681.345 269.611 681.345C268.743 681.345 268.199 680.972 268.01 680.23L267.003 680.482C267.25 681.656 268.217 682.281 269.629 682.281C271.235 682.281 272.327 681.404 272.327 680.212C272.327 679.25 271.725 678.642 270.493 678.341L269.467 678.089C268.649 677.887 268.28 677.613 268.28 677.082C268.28 676.488 268.91 676.057 269.755 676.057C270.681 676.057 271.064 676.569 271.248 677.046L272.201 676.776ZM275.704 682.299C276.91 682.299 277.539 681.651 277.755 681.201H277.809V682.137H278.87V677.586C278.87 675.391 277.197 675.139 276.316 675.139C275.273 675.139 274.085 675.499 273.546 676.758L274.553 677.118C274.787 676.614 275.34 676.075 276.352 676.075C277.328 676.075 277.809 676.592 277.809 677.478V677.514C277.809 678.026 277.287 677.981 276.028 678.143C274.747 678.31 273.348 678.593 273.348 680.176C273.348 681.525 274.391 682.299 275.704 682.299ZM275.866 681.345C275.021 681.345 274.409 680.967 274.409 680.23C274.409 679.42 275.147 679.169 275.974 679.061C276.424 679.007 277.629 678.881 277.809 678.665V679.636C277.809 680.5 277.126 681.345 275.866 681.345ZM281.616 672.927H280.554V682.137H281.616V672.927ZM286.202 682.281C287.605 682.281 288.631 681.579 288.955 680.536L287.929 680.248C287.659 680.967 287.034 681.327 286.202 681.327C284.957 681.327 284.098 680.522 284.048 679.043H289.063V678.593C289.063 676.021 287.534 675.139 286.094 675.139C284.224 675.139 282.982 676.614 282.982 678.737C282.982 680.86 284.206 682.281 286.202 682.281ZM284.048 678.125C284.12 677.05 284.88 676.093 286.094 676.093C287.246 676.093 287.983 676.956 287.983 678.125H284.048Z" fill="black"/>
<rect x="174.449" y="668.951" width="40.1831" height="14.8501" fill="#759FF3"/>
<path d="M69.8038 770.59H70.7594L70.9972 768.732L72.4064 769.74L73.0273 768.903L71.4948 768.053L73.2783 767.203L72.926 766.367L71.213 767.375L71.6049 765.517H70.6493L70.4247 767.375L69.0155 766.367L68.3946 767.203L69.9271 768.053L68.1436 768.903L68.4827 769.74L70.2089 768.732L69.8038 770.59ZM74.4637 766.688H77.2733L75.9698 774.536H77.3261L78.6296 766.688H81.4436L81.6374 765.517H74.6575L74.4637 766.688ZM88.1799 768.366H89.5759C89.5714 766.609 88.2724 765.394 86.3215 765.394C83.9919 765.394 81.9882 767.151 81.5259 770.031C81.0503 772.884 82.4066 774.659 84.8507 774.659C87.0393 774.659 88.8492 773.228 89.2147 770.947L89.3953 769.921H85.8459L85.6521 771.043H87.8804C87.6206 772.492 86.4272 773.417 84.9828 773.417C83.393 773.417 82.5123 772.215 82.8778 770.022C83.2389 767.838 84.6965 766.635 86.2246 766.635C87.418 766.635 88.0301 767.3 88.1799 768.366ZM90.0996 774.536H95.8068L96.0006 773.364H91.6541L92.1121 770.603H96.1107L96.3044 769.436H92.3058L92.7638 766.688H97.0575L97.2512 765.517H91.5968L90.0996 774.536ZM99.1555 768.903C99.6267 768.903 100.041 768.511 100.063 768.023C100.085 767.551 99.684 767.159 99.2084 767.159C98.7284 767.159 98.3056 767.538 98.3012 768.023C98.2924 768.511 98.6579 768.903 99.1555 768.903ZM98.3981 773.417C98.8693 773.417 99.2832 773.025 99.3052 772.536C99.3273 772.065 98.9265 771.673 98.4509 771.673C97.9709 771.673 97.5482 772.052 97.5438 772.536C97.535 773.025 97.9005 773.417 98.3981 773.417ZM104.48 766.688H107.29L105.986 774.536H107.343L108.646 766.688H111.46L111.654 765.517H104.674L104.48 766.688ZM113.253 774.672C115.129 774.672 116.578 773.307 116.917 771.242C117.26 769.106 116.234 767.683 114.301 767.683C112.421 767.683 110.972 769.049 110.637 771.127C110.294 773.25 111.32 774.672 113.253 774.672ZM113.328 773.567C112.113 773.567 111.734 772.506 111.936 771.237C112.152 769.912 112.958 768.784 114.226 768.784C115.442 768.784 115.82 769.854 115.618 771.127C115.402 772.453 114.592 773.567 113.328 773.567ZM117.588 774.536H118.905L119.306 772.136L120.068 771.484L121.86 774.536H123.476L121.195 770.682L124.418 767.772H122.842L119.662 770.634H119.552L120.402 765.517H119.086L117.588 774.536ZM126.862 774.672C128.342 774.672 129.5 773.946 129.984 772.845L128.778 772.62C128.43 773.259 127.822 773.584 127.056 773.584C125.867 773.584 125.242 773.021 125.471 771.55H130.288L130.363 771.083C130.773 768.639 129.469 767.683 127.932 767.683C126.047 767.683 124.568 769.119 124.224 771.198C123.872 773.298 124.867 774.672 126.862 774.672ZM125.638 770.563C125.832 769.678 126.734 768.771 127.761 768.771C128.787 768.771 129.324 769.529 129.148 770.563H125.638ZM133.001 770.519C133.194 769.441 133.947 768.824 134.868 768.824C135.766 768.824 136.207 769.414 136.044 770.392L135.352 774.536H136.669L137.391 770.233C137.669 768.555 136.88 767.683 135.511 767.683C134.493 767.683 133.74 768.15 133.313 768.872H133.23L133.415 767.772H132.151L131.023 774.536H132.34L133.001 770.519ZM148.443 768.366H149.839C149.834 766.609 148.535 765.394 146.584 765.394C144.255 765.394 142.251 767.151 141.789 770.031C141.313 772.884 142.669 774.659 145.114 774.659C147.302 774.659 149.112 773.228 149.478 770.947L149.658 769.921H146.109L145.915 771.043H148.143C147.883 772.492 146.69 773.417 145.246 773.417C143.656 773.417 142.775 772.215 143.141 770.022C143.502 767.838 144.959 766.635 146.487 766.635C147.681 766.635 148.293 767.3 148.443 768.366ZM153.154 774.672C154.634 774.672 155.792 773.946 156.277 772.845L155.07 772.62C154.722 773.259 154.114 773.584 153.348 773.584C152.159 773.584 151.534 773.021 151.763 771.55H156.58L156.655 771.083C157.065 768.639 155.761 767.683 154.225 767.683C152.34 767.683 150.86 769.119 150.517 771.198C150.164 773.298 151.16 774.672 153.154 774.672ZM151.93 770.563C152.124 769.678 153.027 768.771 154.053 768.771C155.079 768.771 155.616 769.529 155.44 770.563H151.93ZM159.293 770.519C159.487 769.441 160.24 768.824 161.16 768.824C162.058 768.824 162.499 769.414 162.336 770.392L161.644 774.536H162.961L163.683 770.233C163.961 768.555 163.173 767.683 161.803 767.683C160.786 767.683 160.033 768.15 159.606 768.872H159.522L159.707 767.772H158.443L157.316 774.536H158.632L159.293 770.519ZM167.372 774.672C168.852 774.672 170.01 773.946 170.495 772.845L169.288 772.62C168.94 773.259 168.332 773.584 167.566 773.584C166.377 773.584 165.752 773.021 165.981 771.55H170.798L170.873 771.083C171.283 768.639 169.979 767.683 168.442 767.683C166.558 767.683 165.078 769.119 164.734 771.198C164.382 773.298 165.377 774.672 167.372 774.672ZM166.148 770.563C166.342 769.678 167.245 768.771 168.271 768.771C169.297 768.771 169.834 769.529 169.658 770.563H166.148ZM171.529 774.536H172.846L173.524 770.405C173.682 769.52 174.466 768.881 175.396 768.881C175.673 768.881 175.977 768.93 176.078 768.961L176.289 767.701C176.153 767.675 175.902 767.67 175.735 767.67C174.942 767.67 174.18 768.119 173.819 768.846H173.749L173.929 767.772H172.656L171.529 774.536ZM177.955 774.685C179.073 774.685 179.796 774.117 180.13 773.611H180.183L180.025 774.536H181.311L182.055 770.044C182.381 768.075 180.905 767.683 179.831 767.683C178.607 767.683 177.382 768.177 176.748 769.41L177.928 769.692C178.21 769.212 178.814 768.749 179.694 768.749C180.54 768.749 180.875 769.198 180.751 769.96V769.991C180.668 770.462 180.166 770.458 178.937 770.603C177.629 770.753 176.264 771.092 176.004 772.624C175.788 773.95 176.669 774.685 177.955 774.685ZM178.404 773.628C177.66 773.628 177.189 773.294 177.294 772.642C177.404 771.937 178.087 771.686 178.862 771.585C179.294 771.528 180.324 771.413 180.544 771.224L180.399 772.096C180.267 772.897 179.501 773.628 178.404 773.628ZM187.101 767.772H185.71L185.978 766.151H184.661L184.393 767.772H183.406L183.235 768.828H184.221L183.561 772.823C183.354 774.047 184.181 774.641 185.225 774.624C185.648 774.619 185.943 774.54 186.119 774.483L186.049 773.395C185.956 773.413 185.793 773.452 185.582 773.452C185.155 773.452 184.789 773.311 184.912 772.55L185.533 768.828H186.929L187.101 767.772ZM187.182 774.536H188.499L189.626 767.772H188.31L187.182 774.536ZM189.239 766.715C189.697 766.715 190.089 766.362 190.106 765.931C190.128 765.495 189.767 765.143 189.314 765.143C188.856 765.143 188.464 765.495 188.446 765.931C188.424 766.362 188.785 766.715 189.239 766.715ZM192.911 774.672C194.787 774.672 196.236 773.307 196.575 771.242C196.919 769.106 195.893 767.683 193.959 767.683C192.079 767.683 190.63 769.049 190.295 771.127C189.952 773.25 190.978 774.672 192.911 774.672ZM192.986 773.567C191.771 773.567 191.392 772.506 191.594 771.237C191.81 769.912 192.616 768.784 193.884 768.784C195.1 768.784 195.479 769.854 195.276 771.127C195.06 772.453 194.25 773.567 192.986 773.567ZM199.228 770.519C199.422 769.441 200.175 768.824 201.095 768.824C201.994 768.824 202.434 769.414 202.271 770.392L201.58 774.536H202.896L203.619 770.233C203.896 768.555 203.108 767.683 201.738 767.683C200.721 767.683 199.968 768.15 199.541 768.872H199.457L199.642 767.772H198.378L197.251 774.536H198.567L199.228 770.519ZM207.549 774.536H213.257L213.45 773.364H209.104L209.562 770.603H213.56L213.754 769.436H209.756L210.214 766.688H214.507L214.701 765.517H209.047L207.549 774.536ZM221.581 767.772H220.115L217.539 772.977H217.468L216.623 767.772H215.262L216.592 774.536H218.001L221.581 767.772ZM224.099 774.672C225.579 774.672 226.737 773.946 227.221 772.845L226.015 772.62C225.667 773.259 225.059 773.584 224.293 773.584C223.104 773.584 222.478 773.021 222.707 771.55H227.525L227.6 771.083C228.009 768.639 226.706 767.683 225.169 767.683C223.284 767.683 221.805 769.119 221.461 771.198C221.109 773.298 222.104 774.672 224.099 774.672ZM222.875 770.563C223.068 769.678 223.971 768.771 224.997 768.771C226.023 768.771 226.561 769.529 226.384 770.563H222.875ZM230.237 770.519C230.431 769.441 231.184 768.824 232.105 768.824C233.003 768.824 233.443 769.414 233.28 770.392L232.589 774.536H233.906L234.628 770.233C234.905 768.555 234.117 767.683 232.748 767.683C231.73 767.683 230.977 768.15 230.55 768.872H230.466L230.651 767.772H229.388L228.26 774.536H229.577L230.237 770.519ZM239.704 767.772H238.312L238.581 766.151H237.264L236.996 767.772H236.009L235.838 768.828H236.824L236.163 772.823C235.956 774.047 236.784 774.641 237.828 774.624C238.251 774.619 238.546 774.54 238.722 774.483L238.652 773.395C238.559 773.413 238.396 773.452 238.185 773.452C237.758 773.452 237.392 773.311 237.515 772.55L238.136 768.828H239.532L239.704 767.772ZM240.763 774.619C241.234 774.619 241.648 774.227 241.67 773.739C241.692 773.267 241.291 772.875 240.816 772.875C240.336 772.875 239.913 773.254 239.908 773.739C239.9 774.227 240.265 774.619 240.763 774.619Z" fill="#FB8500"/>
<path d="M362.634 682.137H363.75V678.773H365.764C367.909 678.773 368.876 677.469 368.876 675.841C368.876 674.213 367.909 672.927 365.746 672.927H362.634V682.137ZM363.75 677.783V673.916H365.71C367.208 673.916 367.779 674.734 367.779 675.841C367.779 676.947 367.208 677.783 365.728 677.783H363.75ZM374.629 679.313C374.629 680.608 373.64 681.201 372.848 681.201C371.967 681.201 371.337 680.554 371.337 679.546V675.229H370.276V679.618C370.276 681.381 371.211 682.227 372.506 682.227C373.55 682.227 374.233 681.669 374.557 680.967H374.629V682.137H375.69V675.229H374.629V679.313ZM377.525 682.137H378.55V681.075H378.676C378.91 681.453 379.36 682.281 380.691 682.281C382.418 682.281 383.623 680.896 383.623 678.701C383.623 676.524 382.418 675.139 380.673 675.139C379.324 675.139 378.91 675.967 378.676 676.326H378.586V672.927H377.525V682.137ZM378.568 678.683C378.568 677.136 379.252 676.093 380.547 676.093C381.896 676.093 382.562 677.226 382.562 678.683C382.562 680.158 381.878 681.327 380.547 681.327C379.27 681.327 378.568 680.248 378.568 678.683ZM386.055 672.927H384.993V682.137H386.055V672.927ZM387.745 682.137H388.806V675.229H387.745V682.137ZM388.285 674.078C388.699 674.078 389.04 673.754 389.04 673.358C389.04 672.963 388.699 672.639 388.285 672.639C387.871 672.639 387.529 672.963 387.529 673.358C387.529 673.754 387.871 674.078 388.285 674.078ZM393.303 682.281C394.832 682.281 395.84 681.345 396.02 680.122H394.958C394.76 680.878 394.131 681.327 393.303 681.327C392.044 681.327 391.235 680.284 391.235 678.683C391.235 677.118 392.062 676.093 393.303 676.093C394.239 676.093 394.796 676.668 394.958 677.298H396.02C395.84 676.003 394.742 675.139 393.285 675.139C391.415 675.139 390.173 676.614 390.173 678.719C390.173 680.788 391.361 682.281 393.303 682.281ZM405.519 676.776C405.186 675.796 404.44 675.139 403.073 675.139C401.616 675.139 400.536 675.967 400.536 677.136C400.536 678.089 401.103 678.728 402.371 679.025L403.522 679.295C404.22 679.456 404.548 679.789 404.548 680.266C404.548 680.86 403.918 681.345 402.929 681.345C402.061 681.345 401.517 680.972 401.328 680.23L400.32 680.482C400.568 681.656 401.535 682.281 402.947 682.281C404.552 682.281 405.645 681.404 405.645 680.212C405.645 679.25 405.042 678.642 403.81 678.341L402.785 678.089C401.966 677.887 401.598 677.613 401.598 677.082C401.598 676.488 402.227 676.057 403.073 676.057C403.999 676.057 404.381 676.569 404.566 677.046L405.519 676.776ZM409.022 682.299C410.227 682.299 410.857 681.651 411.073 681.201H411.127V682.137H412.188V677.586C412.188 675.391 410.515 675.139 409.634 675.139C408.59 675.139 407.403 675.499 406.864 676.758L407.871 677.118C408.105 676.614 408.658 676.075 409.67 676.075C410.646 676.075 411.127 676.592 411.127 677.478V677.514C411.127 678.026 410.605 677.981 409.346 678.143C408.064 678.31 406.666 678.593 406.666 680.176C406.666 681.525 407.709 682.299 409.022 682.299ZM409.184 681.345C408.339 681.345 407.727 680.967 407.727 680.23C407.727 679.42 408.464 679.169 409.292 679.061C409.742 679.007 410.947 678.881 411.127 678.665V679.636C411.127 680.5 410.443 681.345 409.184 681.345ZM414.933 672.927H413.872V682.137H414.933V672.927ZM419.52 682.281C420.923 682.281 421.949 681.579 422.272 680.536L421.247 680.248C420.977 680.967 420.352 681.327 419.52 681.327C418.274 681.327 417.415 680.522 417.366 679.043H422.38V678.593C422.38 676.021 420.851 675.139 419.412 675.139C417.541 675.139 416.3 676.614 416.3 678.737C416.3 680.86 417.523 682.281 419.52 682.281ZM417.366 678.125C417.438 677.05 418.198 676.093 419.412 676.093C420.563 676.093 421.301 676.956 421.301 678.125H417.366Z" fill="black"/>
<rect x="312.795" y="668.951" width="40.1831" height="14.8501" fill="#C8A3F8"/>
<path d="M495.2 673.916H498.096V682.137H499.212V673.916H502.108V672.927H495.2V673.916ZM505.326 682.281C506.729 682.281 507.755 681.579 508.079 680.536L507.053 680.248C506.783 680.967 506.158 681.327 505.326 681.327C504.081 681.327 503.222 680.522 503.172 679.043H508.187V678.593C508.187 676.021 506.658 675.139 505.218 675.139C503.348 675.139 502.106 676.614 502.106 678.737C502.106 680.86 503.33 682.281 505.326 682.281ZM503.172 678.125C503.244 677.05 504.004 676.093 505.218 676.093C506.37 676.093 507.107 676.956 507.107 678.125H503.172ZM511.58 682.299C512.786 682.299 513.415 681.651 513.631 681.201H513.685V682.137H514.746V677.586C514.746 675.391 513.074 675.139 512.192 675.139C511.149 675.139 509.961 675.499 509.422 676.758L510.429 677.118C510.663 676.614 511.216 676.075 512.228 676.075C513.204 676.075 513.685 676.592 513.685 677.478V677.514C513.685 678.026 513.163 677.981 511.904 678.143C510.623 678.31 509.224 678.593 509.224 680.176C509.224 681.525 510.267 682.299 511.58 682.299ZM511.742 681.345C510.897 681.345 510.285 680.967 510.285 680.23C510.285 679.42 511.023 679.169 511.85 679.061C512.3 679.007 513.505 678.881 513.685 678.665V679.636C513.685 680.5 513.002 681.345 511.742 681.345ZM516.43 682.137H517.492V677.819C517.492 676.808 518.229 676.093 519.057 676.093C519.862 676.093 520.424 676.619 520.424 677.406V682.137H521.503V677.64C521.503 676.749 522.061 676.093 523.032 676.093C523.788 676.093 524.435 676.493 524.435 677.514V682.137H525.497V677.514C525.497 675.89 524.624 675.139 523.392 675.139C522.403 675.139 521.678 675.593 521.323 676.308H521.251C520.909 675.571 520.307 675.139 519.398 675.139C518.499 675.139 517.833 675.571 517.546 676.308H517.456V675.229H516.43V682.137Z" fill="black"/>
<rect x="445.864" y="668.951" width="40.1831" height="14.8501" fill="#FFDA79"/>
<path d="M604.26 675.229H605.34C605.29 673.839 604.009 672.801 602.228 672.801C600.465 672.801 599.08 673.826 599.08 675.373C599.08 676.614 599.979 677.352 601.418 677.765L602.552 678.089C603.523 678.359 604.386 678.701 604.386 679.618C604.386 680.626 603.415 681.291 602.138 681.291C601.041 681.291 600.069 680.806 599.979 679.762H598.828C598.936 681.273 600.159 682.299 602.138 682.299C604.26 682.299 605.466 681.129 605.466 679.636C605.466 677.909 603.829 677.352 602.875 677.1L601.94 676.848C601.256 676.668 600.159 676.308 600.159 675.319C600.159 674.438 600.969 673.79 602.192 673.79C603.307 673.79 604.153 674.321 604.26 675.229ZM609.906 675.229H608.431V673.574H607.37V675.229H606.327V676.129H607.37V680.446C607.37 681.651 608.341 682.227 609.241 682.227C609.637 682.227 609.888 682.155 610.032 682.101L609.816 681.147C609.726 681.165 609.583 681.201 609.349 681.201C608.881 681.201 608.431 681.057 608.431 680.158V676.129H609.906V675.229ZM611.25 682.137H612.311V677.765C612.311 676.83 613.048 676.147 614.056 676.147C614.339 676.147 614.631 676.2 614.703 676.218V675.139C614.582 675.13 614.303 675.121 614.146 675.121C613.318 675.121 612.599 675.589 612.347 676.272H612.275V675.229H611.25V682.137ZM617.741 682.299C618.946 682.299 619.576 681.651 619.792 681.201H619.846V682.137H620.907V677.586C620.907 675.391 619.234 675.139 618.352 675.139C617.309 675.139 616.122 675.499 615.582 676.758L616.59 677.118C616.823 676.614 617.377 676.075 618.388 676.075C619.364 676.075 619.846 676.592 619.846 677.478V677.514C619.846 678.026 619.324 677.981 618.065 678.143C616.783 678.31 615.384 678.593 615.384 680.176C615.384 681.525 616.428 682.299 617.741 682.299ZM617.903 681.345C617.057 681.345 616.446 680.967 616.446 680.23C616.446 679.42 617.183 679.169 618.011 679.061C618.46 679.007 619.666 678.881 619.846 678.665V679.636C619.846 680.5 619.162 681.345 617.903 681.345ZM625.595 675.229H624.12V673.574H623.058V675.229H622.015V676.129H623.058V680.446C623.058 681.651 624.03 682.227 624.929 682.227C625.325 682.227 625.577 682.155 625.721 682.101L625.505 681.147C625.415 681.165 625.271 681.201 625.037 681.201C624.569 681.201 624.12 681.057 624.12 680.158V676.129H625.595V675.229ZM629.76 682.281C631.163 682.281 632.188 681.579 632.512 680.536L631.487 680.248C631.217 680.967 630.592 681.327 629.76 681.327C628.514 681.327 627.655 680.522 627.606 679.043H632.62V678.593C632.62 676.021 631.091 675.139 629.652 675.139C627.781 675.139 626.54 676.614 626.54 678.737C626.54 680.86 627.763 682.281 629.76 682.281ZM627.606 678.125C627.678 677.05 628.438 676.093 629.652 676.093C630.803 676.093 631.541 676.956 631.541 678.125H627.606ZM636.77 684.871C638.425 684.871 639.756 684.115 639.756 682.335V675.229H638.73V676.326H638.622C638.389 675.967 637.957 675.139 636.608 675.139C634.863 675.139 633.658 676.524 633.658 678.647C633.658 680.806 634.917 682.029 636.59 682.029C637.939 682.029 638.371 681.237 638.604 680.86H638.694V682.263C638.694 683.414 637.885 683.936 636.77 683.936C635.515 683.936 635.074 683.274 634.791 682.892L633.945 683.486C634.377 684.21 635.227 684.871 636.77 684.871ZM636.734 681.075C635.402 681.075 634.719 680.068 634.719 678.629C634.719 677.226 635.384 676.093 636.734 676.093C638.029 676.093 638.712 677.136 638.712 678.629C638.712 680.158 638.011 681.075 636.734 681.075ZM641.445 682.137H642.507V675.229H641.445V682.137ZM641.985 674.078C642.399 674.078 642.74 673.754 642.74 673.358C642.74 672.963 642.399 672.639 641.985 672.639C641.571 672.639 641.229 672.963 641.229 673.358C641.229 673.754 641.571 674.078 641.985 674.078ZM647.003 682.281C648.532 682.281 649.54 681.345 649.72 680.122H648.658C648.46 680.878 647.831 681.327 647.003 681.327C645.744 681.327 644.935 680.284 644.935 678.683C644.935 677.118 645.762 676.093 647.003 676.093C647.939 676.093 648.496 676.668 648.658 677.298H649.72C649.54 676.003 648.442 675.139 646.985 675.139C645.115 675.139 643.873 676.614 643.873 678.719C643.873 680.788 645.061 682.281 647.003 682.281ZM654.47 682.137H655.586V678.773H657.6C659.745 678.773 660.712 677.469 660.712 675.841C660.712 674.213 659.745 672.927 657.582 672.927H654.47V682.137ZM655.586 677.783V673.916H657.546C659.044 673.916 659.615 674.734 659.615 675.841C659.615 676.947 659.044 677.783 657.564 677.783H655.586ZM664.144 682.299C665.35 682.299 665.979 681.651 666.195 681.201H666.249V682.137H667.31V677.586C667.31 675.391 665.637 675.139 664.756 675.139C663.713 675.139 662.525 675.499 661.986 676.758L662.993 677.118C663.227 676.614 663.78 676.075 664.792 676.075C665.768 676.075 666.249 676.592 666.249 677.478V677.514C666.249 678.026 665.727 677.981 664.468 678.143C663.187 678.31 661.788 678.593 661.788 680.176C661.788 681.525 662.831 682.299 664.144 682.299ZM664.306 681.345C663.461 681.345 662.849 680.967 662.849 680.23C662.849 679.42 663.587 679.169 664.414 679.061C664.864 679.007 666.069 678.881 666.249 678.665V679.636C666.249 680.5 665.566 681.345 664.306 681.345ZM668.994 682.137H670.056V677.765C670.056 676.83 670.793 676.147 671.8 676.147C672.084 676.147 672.376 676.2 672.448 676.218V675.139C672.327 675.13 672.048 675.121 671.89 675.121C671.063 675.121 670.343 675.589 670.092 676.272H670.02V675.229H668.994V682.137ZM676.89 675.229H675.415V673.574H674.353V675.229H673.31V676.129H674.353V680.446C674.353 681.651 675.325 682.227 676.224 682.227C676.62 682.227 676.872 682.155 677.016 682.101L676.8 681.147C676.71 681.165 676.566 681.201 676.332 681.201C675.864 681.201 675.415 681.057 675.415 680.158V676.129H676.89V675.229ZM679.294 677.981C679.294 676.776 680.041 676.093 681.057 676.093C682.042 676.093 682.64 676.736 682.64 677.819V682.137H683.702V677.748C683.702 675.985 682.762 675.139 681.363 675.139C680.32 675.139 679.672 675.607 679.348 676.308H679.258V675.229H678.233V682.137H679.294V677.981ZM688.284 682.281C689.687 682.281 690.712 681.579 691.036 680.536L690.011 680.248C689.741 680.967 689.116 681.327 688.284 681.327C687.038 681.327 686.179 680.522 686.13 679.043H691.144V678.593C691.144 676.021 689.615 675.139 688.176 675.139C686.305 675.139 685.064 676.614 685.064 678.737C685.064 680.86 686.287 682.281 688.284 682.281ZM686.13 678.125C686.202 677.05 686.962 676.093 688.176 676.093C689.327 676.093 690.065 676.956 690.065 678.125H686.13ZM692.505 682.137H693.567V677.765C693.567 676.83 694.304 676.147 695.311 676.147C695.595 676.147 695.887 676.2 695.959 676.218V675.139C695.838 675.13 695.559 675.121 695.401 675.121C694.574 675.121 693.854 675.589 693.603 676.272H693.531V675.229H692.505V682.137ZM701.857 676.776C701.524 675.796 700.777 675.139 699.41 675.139C697.953 675.139 696.874 675.967 696.874 677.136C696.874 678.089 697.441 678.728 698.709 679.025L699.86 679.295C700.557 679.456 700.885 679.789 700.885 680.266C700.885 680.86 700.256 681.345 699.266 681.345C698.398 681.345 697.854 680.972 697.665 680.23L696.658 680.482C696.905 681.656 697.872 682.281 699.284 682.281C700.89 682.281 701.983 681.404 701.983 680.212C701.983 679.25 701.38 678.642 700.148 678.341L699.122 678.089C698.304 677.887 697.935 677.613 697.935 677.082C697.935 676.488 698.565 676.057 699.41 676.057C700.337 676.057 700.719 676.569 700.903 677.046L701.857 676.776Z" fill="black"/>
<rect x="549.384" y="668.951" width="40.1831" height="14.8501" fill="#EB5AD4"/>
<path d="M782.089 682.137L783.016 679.528H786.74L787.666 682.137H788.835L785.453 672.927H784.302L780.92 682.137H782.089ZM783.367 678.539L784.842 674.384H784.914L786.389 678.539H783.367ZM792.481 682.281C793.812 682.281 794.262 681.453 794.496 681.075H794.622V682.137H795.647V672.927H794.586V676.326H794.496C794.262 675.967 793.848 675.139 792.499 675.139C790.754 675.139 789.549 676.524 789.549 678.701C789.549 680.896 790.754 682.281 792.481 682.281ZM792.625 681.327C791.294 681.327 790.61 680.158 790.61 678.683C790.61 677.226 791.276 676.093 792.625 676.093C793.92 676.093 794.604 677.136 794.604 678.683C794.604 680.248 793.902 681.327 792.625 681.327ZM803.133 675.229H801.982L800.075 680.734H800.003L798.096 675.229H796.945L799.5 682.137H800.579L803.133 675.229ZM804.281 682.137H805.342V675.229H804.281V682.137ZM804.82 674.078C805.234 674.078 805.576 673.754 805.576 673.358C805.576 672.963 805.234 672.639 804.82 672.639C804.407 672.639 804.065 672.963 804.065 673.358C804.065 673.754 804.407 674.078 804.82 674.078ZM811.926 676.776C811.593 675.796 810.846 675.139 809.479 675.139C808.022 675.139 806.943 675.967 806.943 677.136C806.943 678.089 807.509 678.728 808.778 679.025L809.929 679.295C810.626 679.456 810.954 679.789 810.954 680.266C810.954 680.86 810.325 681.345 809.335 681.345C808.467 681.345 807.923 680.972 807.734 680.23L806.727 680.482C806.974 681.656 807.941 682.281 809.353 682.281C810.959 682.281 812.052 681.404 812.052 680.212C812.052 679.25 811.449 678.642 810.217 678.341L809.191 678.089C808.373 677.887 808.004 677.613 808.004 677.082C808.004 676.488 808.634 676.057 809.479 676.057C810.406 676.057 810.788 676.569 810.972 677.046L811.926 676.776ZM816.202 682.281C818.073 682.281 819.332 680.86 819.332 678.719C819.332 676.56 818.073 675.139 816.202 675.139C814.331 675.139 813.072 676.56 813.072 678.719C813.072 680.86 814.331 682.281 816.202 682.281ZM816.202 681.327C814.781 681.327 814.133 680.104 814.133 678.719C814.133 677.334 814.781 676.093 816.202 676.093C817.623 676.093 818.271 677.334 818.271 678.719C818.271 680.104 817.623 681.327 816.202 681.327ZM820.699 682.137H821.76V677.765C821.76 676.83 822.498 676.147 823.505 676.147C823.789 676.147 824.081 676.2 824.153 676.218V675.139C824.031 675.13 823.753 675.121 823.595 675.121C822.768 675.121 822.048 675.589 821.796 676.272H821.724V675.229H820.699V682.137ZM830.05 676.776C829.718 675.796 828.971 675.139 827.604 675.139C826.147 675.139 825.068 675.967 825.068 677.136C825.068 678.089 825.634 678.728 826.902 679.025L828.054 679.295C828.751 679.456 829.079 679.789 829.079 680.266C829.079 680.86 828.449 681.345 827.46 681.345C826.592 681.345 826.048 680.972 825.859 680.23L824.852 680.482C825.099 681.656 826.066 682.281 827.478 682.281C829.084 682.281 830.176 681.404 830.176 680.212C830.176 679.25 829.574 678.642 828.342 678.341L827.316 678.089C826.498 677.887 826.129 677.613 826.129 677.082C826.129 676.488 826.759 676.057 827.604 676.057C828.53 676.057 828.913 676.569 829.097 677.046L830.05 676.776Z" fill="black"/>
<rect x="731.873" y="668.951" width="40.1831" height="14.8501" fill="#E45223" fill-opacity="0.79"/>
<line x1="66.959" y1="558.631" x2="940.992" y2="558.631" stroke="black"/>
<line x1="66.959" y1="548.881" x2="940.992" y2="548.881" stroke="#7E7E7E" stroke-opacity="0.16" stroke-width="0.422132"/>
<line x1="66.959" y1="498.685" x2="940.992" y2="498.685" stroke="#7E7E7E" stroke-opacity="0.16" stroke-width="0.422132"/>
<line x1="66.959" y1="538.842" x2="940.992" y2="538.842" stroke="#7E7E7E" stroke-opacity="0.16" stroke-width="0.422132"/>
<line x1="66.959" y1="488.646" x2="940.992" y2="488.646" stroke="#7E7E7E" stroke-opacity="0.16" stroke-width="0.422132"/>
<line x1="66.959" y1="528.803" x2="940.992" y2="528.803" stroke="#7E7E7E" stroke-opacity="0.16" stroke-width="0.422132"/>
<line x1="66.959" y1="478.607" x2="940.992" y2="478.607" stroke="#7E7E7E" stroke-opacity="0.16" stroke-width="0.422132"/>
<line x1="66.959" y1="518.764" x2="940.992" y2="518.764" stroke="#7E7E7E" stroke-opacity="0.16" stroke-width="0.422132"/>
<line x1="66.959" y1="468.567" x2="940.992" y2="468.567" stroke="#7E7E7E" stroke-opacity="0.16" stroke-width="0.422132"/>
<line x1="66.959" y1="508.435" x2="940.992" y2="508.435" stroke="#151515" stroke-opacity="0.17"/>
<line x1="66.959" y1="458.239" x2="940.992" y2="458.239" stroke="#151515" stroke-opacity="0.17"/>
<line x1="66.959" y1="448.682" x2="940.992" y2="448.682" stroke="#7E7E7E" stroke-opacity="0.16" stroke-width="0.422132"/>
<line x1="66.959" y1="438.642" x2="940.992" y2="438.642" stroke="#7E7E7E" stroke-opacity="0.16" stroke-width="0.422132"/>
<line x1="66.959" y1="428.603" x2="940.992" y2="428.603" stroke="#7E7E7E" stroke-opacity="0.16" stroke-width="0.422132"/>
<line x1="66.959" y1="418.564" x2="940.992" y2="418.564" stroke="#7E7E7E" stroke-opacity="0.16" stroke-width="0.422132"/>
<line x1="66.959" y1="408.235" x2="940.992" y2="408.235" stroke="#151515" stroke-opacity="0.17"/>
<line x1="66.959" y1="398.676" x2="940.992" y2="398.676" stroke="#7E7E7E" stroke-opacity="0.16" stroke-width="0.422132"/>
<line x1="66.959" y1="388.637" x2="940.992" y2="388.637" stroke="#7E7E7E" stroke-opacity="0.16" stroke-width="0.422132"/>
<line x1="66.959" y1="378.598" x2="940.992" y2="378.598" stroke="#7E7E7E" stroke-opacity="0.16" stroke-width="0.422132"/>
<line x1="66.959" y1="368.558" x2="940.992" y2="368.558" stroke="#7E7E7E" stroke-opacity="0.16" stroke-width="0.422132"/>
<line x1="66.959" y1="358.23" x2="940.992" y2="358.23" stroke="#151515" stroke-opacity="0.17"/>
<line x1="66.959" y1="348.673" x2="940.992" y2="348.673" stroke="#7E7E7E" stroke-opacity="0.16" stroke-width="0.422132"/>
<line x1="66.959" y1="338.634" x2="940.992" y2="338.634" stroke="#7E7E7E" stroke-opacity="0.16" stroke-width="0.422132"/>
<line x1="66.959" y1="328.594" x2="940.992" y2="328.594" stroke="#7E7E7E" stroke-opacity="0.16" stroke-width="0.422132"/>
<line x1="66.959" y1="318.555" x2="940.992" y2="318.555" stroke="#7E7E7E" stroke-opacity="0.16" stroke-width="0.422132"/>
<line x1="66.959" y1="308.227" x2="940.992" y2="308.227" stroke="#151515" stroke-opacity="0.17"/>
<line x1="66.959" y1="298.668" x2="940.992" y2="298.668" stroke="#7E7E7E" stroke-opacity="0.16" stroke-width="0.422132"/>
<line x1="66.959" y1="288.628" x2="940.992" y2="288.628" stroke="#7E7E7E" stroke-opacity="0.16" stroke-width="0.422132"/>
<line x1="66.959" y1="278.589" x2="940.992" y2="278.589" stroke="#7E7E7E" stroke-opacity="0.16" stroke-width="0.422132"/>
<line x1="66.959" y1="268.55" x2="940.992" y2="268.55" stroke="#7E7E7E" stroke-opacity="0.16" stroke-width="0.422132"/>
<line x1="66.959" y1="258.222" x2="940.992" y2="258.222" stroke="#151515" stroke-opacity="0.17"/>
<line x1="66.959" y1="248.664" x2="940.992" y2="248.664" stroke="#7E7E7E" stroke-opacity="0.16" stroke-width="0.422132"/>
<line x1="66.959" y1="238.624" x2="940.992" y2="238.624" stroke="#7E7E7E" stroke-opacity="0.16" stroke-width="0.422132"/>
<line x1="66.959" y1="228.585" x2="940.992" y2="228.585" stroke="#7E7E7E" stroke-opacity="0.16" stroke-width="0.422132"/>
<line x1="66.959" y1="218.546" x2="940.992" y2="218.546" stroke="#7E7E7E" stroke-opacity="0.16" stroke-width="0.422132"/>
<line x1="66.959" y1="208.218" x2="940.992" y2="208.218" stroke="#151515" stroke-opacity="0.17"/>
<line x1="66.959" y1="198.66" x2="940.992" y2="198.66" stroke="#7E7E7E" stroke-opacity="0.16" stroke-width="0.422132"/>
<line x1="66.959" y1="188.62" x2="940.992" y2="188.62" stroke="#7E7E7E" stroke-opacity="0.16" stroke-width="0.422132"/>
<line x1="66.959" y1="178.581" x2="940.992" y2="178.581" stroke="#7E7E7E" stroke-opacity="0.16" stroke-width="0.422132"/>
<line x1="66.959" y1="168.542" x2="940.992" y2="168.542" stroke="#7E7E7E" stroke-opacity="0.16" stroke-width="0.422132"/>
<line x1="66.959" y1="158.213" x2="940.992" y2="158.213" stroke="#151515" stroke-opacity="0.17"/>
<line x1="66.959" y1="148.655" x2="940.992" y2="148.655" stroke="#7E7E7E" stroke-opacity="0.16" stroke-width="0.422132"/>
<line x1="66.959" y1="138.615" x2="940.992" y2="138.615" stroke="#7E7E7E" stroke-opacity="0.16" stroke-width="0.422132"/>
<line x1="66.959" y1="128.576" x2="940.992" y2="128.576" stroke="#7E7E7E" stroke-opacity="0.16" stroke-width="0.422132"/>
<line x1="66.959" y1="118.536" x2="940.992" y2="118.536" stroke="#7E7E7E" stroke-opacity="0.16" stroke-width="0.422132"/>
<line x1="66.959" y1="108.208" x2="940.992" y2="108.208" stroke="#151515" stroke-opacity="0.17"/>
<line x1="66.959" y1="98.6512" x2="940.992" y2="98.6512" stroke="#7E7E7E" stroke-opacity="0.16" stroke-width="0.422132"/>
<line x1="66.959" y1="88.6122" x2="940.992" y2="88.6122" stroke="#7E7E7E" stroke-opacity="0.16" stroke-width="0.422132"/>
<line x1="66.959" y1="78.5726" x2="940.992" y2="78.5726" stroke="#7E7E7E" stroke-opacity="0.16" stroke-width="0.422132"/>
<line x1="66.959" y1="68.5336" x2="940.992" y2="68.5336" stroke="#7E7E7E" stroke-opacity="0.16" stroke-width="0.422132"/>
<line x1="66.959" y1="58.2051" x2="940.992" y2="58.2051" stroke="#151515" stroke-opacity="0.17"/>
<line x1="66.959" y1="48.6468" x2="940.992" y2="48.6468" stroke="#7E7E7E" stroke-opacity="0.16" stroke-width="0.422132"/>
<line x1="66.959" y1="38.6078" x2="940.992" y2="38.6078" stroke="#7E7E7E" stroke-opacity="0.16" stroke-width="0.422132"/>
<line x1="66.959" y1="28.5682" x2="940.992" y2="28.5682" stroke="#7E7E7E" stroke-opacity="0.16" stroke-width="0.422132"/>
<line x1="66.959" y1="18.5292" x2="940.992" y2="18.5292" stroke="#7E7E7E" stroke-opacity="0.16" stroke-width="0.422132"/>
<line x1="66.959" y1="8.20068" x2="940.992" y2="8.20068" stroke="#151515" stroke-opacity="0.17"/>
<line x1="66.459" y1="559.152" x2="66.459" y2="0.967285" stroke="#151515" stroke-opacity="0.81"/>
<line x1="136.633" y1="559.152" x2="136.633" y2="0.967102" stroke="#0E0E0E" stroke-opacity="0.29" stroke-width="0.4"/>
<line x1="206.507" y1="559.152" x2="206.507" y2="0.967102" stroke="#0E0E0E" stroke-opacity="0.29" stroke-width="0.4"/>
<line x1="276.38" y1="559.152" x2="276.38" y2="0.967102" stroke="#0E0E0E" stroke-opacity="0.29" stroke-width="0.4"/>
<line x1="346.254" y1="559.152" x2="346.254" y2="0.967102" stroke="#0E0E0E" stroke-opacity="0.29" stroke-width="0.4"/>
<line x1="416.128" y1="559.152" x2="416.128" y2="0.967102" stroke="#0E0E0E" stroke-opacity="0.29" stroke-width="0.4"/>
<line x1="486.002" y1="559.152" x2="486.002" y2="0.967102" stroke="#0E0E0E" stroke-opacity="0.29" stroke-width="0.4"/>
<line x1="555.875" y1="559.152" x2="555.875" y2="0.967102" stroke="#0E0E0E" stroke-opacity="0.29" stroke-width="0.4"/>
<line x1="625.749" y1="559.152" x2="625.749" y2="0.967102" stroke="#0E0E0E" stroke-opacity="0.29" stroke-width="0.4"/>
<line x1="695.623" y1="559.152" x2="695.623" y2="0.967102" stroke="#0E0E0E" stroke-opacity="0.29" stroke-width="0.4"/>
<line x1="765.497" y1="559.152" x2="765.497" y2="0.967102" stroke="#0E0E0E" stroke-opacity="0.29" stroke-width="0.4"/>
<line x1="835.371" y1="559.152" x2="835.371" y2="0.967102" stroke="#0E0E0E" stroke-opacity="0.29" stroke-width="0.4"/>
<line x1="905.244" y1="559.152" x2="905.244" y2="0.967102" stroke="#0E0E0E" stroke-opacity="0.29" stroke-width="0.4"/>
<path d="M40.7066 559.756C42.7393 559.756 43.9085 558.034 43.9085 555.025C43.9085 552.039 42.7213 550.294 40.7066 550.294C38.6919 550.294 37.5046 552.039 37.5046 555.025C37.5046 558.034 38.6739 559.756 40.7066 559.756ZM40.7066 558.767C39.3664 558.767 38.5839 557.422 38.5839 555.025C38.5839 552.633 39.3754 551.266 40.7066 551.266C42.0377 551.266 42.8292 552.633 42.8292 555.025C42.8292 557.422 42.0467 558.767 40.7066 558.767Z" fill="black"/>
<path d="M129.69 585.297C131.475 585.297 132.802 584.178 132.802 582.671C132.802 581.502 132.109 580.652 130.949 580.458V580.386C131.88 580.103 132.46 579.339 132.46 578.3C132.46 576.996 131.43 575.835 129.726 575.835C128.134 575.835 126.811 576.816 126.758 578.264H127.837C127.877 577.346 128.75 576.807 129.708 576.807C130.724 576.807 131.381 577.423 131.381 578.354C131.381 579.325 130.621 579.955 129.528 579.955H128.79V580.944H129.528C130.926 580.944 131.704 581.655 131.704 582.671C131.704 583.647 130.854 584.308 129.672 584.308C128.606 584.308 127.76 583.759 127.693 582.869H126.56C126.627 584.317 127.904 585.297 129.69 585.297ZM134.406 585.171H135.467V580.8C135.467 579.865 136.205 579.181 137.212 579.181C137.495 579.181 137.788 579.235 137.86 579.253V578.174C137.738 578.165 137.459 578.156 137.302 578.156C136.474 578.156 135.755 578.624 135.503 579.307H135.431V578.264H134.406V585.171ZM141.262 585.315C142.594 585.315 143.043 584.488 143.277 584.11H143.403V585.171H144.428V575.961H143.367V579.361H143.277C143.043 579.001 142.63 578.174 141.28 578.174C139.536 578.174 138.33 579.559 138.33 581.736C138.33 583.93 139.536 585.315 141.262 585.315ZM141.406 584.362C140.075 584.362 139.392 583.193 139.392 581.718C139.392 580.261 140.057 579.127 141.406 579.127C142.702 579.127 143.385 580.171 143.385 581.718C143.385 583.283 142.684 584.362 141.406 584.362Z" fill="black"/>
<path d="M53.2598 576.951H56.1559V585.171H57.2712V576.951H60.1674V575.961H53.2598V576.951ZM67.548 578.839H68.6993C68.3575 577.059 66.8644 575.835 64.9217 575.835C62.5607 575.835 60.8922 577.652 60.8922 580.566C60.8922 583.48 62.5472 585.297 64.9936 585.297C67.1882 585.297 68.7532 583.836 68.7532 581.556V580.566H65.2455V581.556H67.6739C67.6424 583.211 66.5541 584.254 64.9936 584.254C63.2847 584.254 61.9715 582.959 61.9715 580.566C61.9715 578.174 63.2847 576.879 64.9217 576.879C66.2528 576.879 67.1567 577.63 67.548 578.839ZM70.4101 585.171H76.0405V584.182H71.5254V581.052H75.6808V580.063H71.5254V576.951H75.9686V575.961H70.4101V585.171Z" fill="black"/>
<path d="M199.807 585.297C201.668 585.32 202.883 583.917 202.883 582.203C202.883 580.422 201.565 579.145 199.986 579.145C199.038 579.145 198.224 579.608 197.72 580.368H197.648C197.652 578.124 198.525 576.825 199.95 576.825C200.922 576.825 201.506 577.436 201.713 578.264H202.811C202.586 576.834 201.497 575.835 199.95 575.835C197.877 575.835 196.605 577.67 196.605 580.926C196.605 584.33 198.295 585.279 199.807 585.297ZM199.807 584.308C198.651 584.308 197.805 583.323 197.81 582.221C197.814 581.119 198.7 580.135 199.842 580.135C200.971 580.135 201.803 581.061 201.803 582.203C201.803 583.373 200.935 584.308 199.807 584.308ZM207.42 578.264H205.945V576.609H204.883V578.264H203.84V579.163H204.883V583.48C204.883 584.686 205.855 585.261 206.754 585.261C207.15 585.261 207.402 585.189 207.546 585.135L207.33 584.182C207.24 584.2 207.096 584.236 206.862 584.236C206.395 584.236 205.945 584.092 205.945 583.193V579.163H207.42V578.264ZM209.973 581.016C209.973 579.811 210.742 579.127 211.79 579.127C212.788 579.127 213.391 579.757 213.391 580.854V585.171H214.452V580.782C214.452 579.006 213.508 578.174 212.095 578.174C211.007 578.174 210.387 578.628 210.063 579.343H209.973V575.961H208.911V585.171H209.973V581.016Z" fill="black"/>
<path d="M269.554 575.835C267.683 575.813 266.478 577.22 266.478 578.911C266.478 580.692 267.791 581.969 269.374 581.969C270.328 581.969 271.137 581.502 271.641 580.746H271.713C271.713 583.013 270.831 584.308 269.41 584.308C268.439 584.308 267.845 583.696 267.647 582.851H266.55C266.766 584.308 267.863 585.297 269.41 585.297C271.479 585.297 272.756 583.462 272.756 580.189C272.756 576.807 271.065 575.853 269.554 575.835ZM269.554 576.825C270.705 576.825 271.551 577.814 271.551 578.893C271.551 579.991 270.651 580.98 269.518 580.98C268.385 580.98 267.557 580.063 267.557 578.911C267.557 577.76 268.421 576.825 269.554 576.825ZM277.293 578.264H275.818V576.609H274.757V578.264H273.714V579.163H274.757V583.48C274.757 584.686 275.728 585.261 276.628 585.261C277.024 585.261 277.275 585.189 277.419 585.135L277.203 584.182C277.114 584.2 276.97 584.236 276.736 584.236C276.268 584.236 275.818 584.092 275.818 583.193V579.163H277.293V578.264ZM279.846 581.016C279.846 579.811 280.615 579.127 281.663 579.127C282.662 579.127 283.264 579.757 283.264 580.854V585.171H284.326V580.782C284.326 579.006 283.381 578.174 281.969 578.174C280.881 578.174 280.26 578.628 279.936 579.343H279.846V575.961H278.785V585.171H279.846V581.016Z" fill="black"/>
<path d="M336.973 575.961H335.858L333.556 577.49V578.624L335.804 577.13H335.858V585.171H336.973V575.961ZM339.369 585.171H345.179V584.182H340.898V584.11L342.967 581.897C344.55 580.202 345.017 579.411 345.017 578.39C345.017 576.969 343.866 575.835 342.247 575.835C340.633 575.835 339.405 576.933 339.405 578.552H340.466C340.466 577.504 341.145 576.807 342.211 576.807C343.21 576.807 343.974 577.418 343.974 578.39C343.974 579.24 343.475 579.869 342.409 581.034L339.369 584.362V585.171ZM349.805 578.264H348.33V576.609H347.269V578.264H346.226V579.163H347.269V583.48C347.269 584.686 348.24 585.261 349.14 585.261C349.536 585.261 349.787 585.189 349.931 585.135L349.715 584.182C349.626 584.2 349.482 584.236 349.248 584.236C348.78 584.236 348.33 584.092 348.33 583.193V579.163H349.805V578.264ZM352.358 581.016C352.358 579.811 353.127 579.127 354.175 579.127C355.174 579.127 355.776 579.757 355.776 580.854V585.171H356.838V580.782C356.838 579.006 355.893 578.174 354.481 578.174C353.393 578.174 352.772 578.628 352.448 579.343H352.358V575.961H351.297V585.171H352.358V581.016Z" fill="black"/>
<path d="M406.81 575.961H405.695L403.392 577.49V578.624L405.641 577.13H405.695V585.171H406.81V575.961ZM412.084 585.297C413.838 585.297 415.124 584.002 415.124 582.239C415.124 580.454 413.883 579.145 412.192 579.145C411.571 579.145 410.969 579.366 410.591 579.667H410.537L410.861 576.951H414.71V575.961H409.925L409.368 580.494L410.411 580.62C410.793 580.346 411.445 580.148 412.012 580.153C413.186 580.162 414.045 581.052 414.045 582.257C414.045 583.44 413.217 584.308 412.084 584.308C411.139 584.308 410.388 583.701 410.303 582.869H409.224C409.291 584.272 410.501 585.297 412.084 585.297ZM419.679 578.264H418.204V576.609H417.143V578.264H416.099V579.163H417.143V583.48C417.143 584.686 418.114 585.261 419.014 585.261C419.409 585.261 419.661 585.189 419.805 585.135L419.589 584.182C419.499 584.2 419.355 584.236 419.122 584.236C418.654 584.236 418.204 584.092 418.204 583.193V579.163H419.679V578.264ZM422.232 581.016C422.232 579.811 423.001 579.127 424.049 579.127C425.047 579.127 425.65 579.757 425.65 580.854V585.171H426.711V580.782C426.711 579.006 425.767 578.174 424.355 578.174C423.266 578.174 422.646 578.628 422.322 579.343H422.232V575.961H421.171V585.171H422.232V581.016Z" fill="black"/>
<path d="M476.585 575.961H475.47L473.167 577.49V578.624L475.416 577.13H475.47V585.171H476.585V575.961ZM481.931 585.297C483.77 585.297 485.052 584.222 485.061 582.725C485.052 581.56 484.274 580.571 483.28 580.386V580.332C484.143 580.108 484.71 579.262 484.719 578.282C484.71 576.879 483.532 575.835 481.931 575.835C480.312 575.835 479.133 576.879 479.142 578.282C479.133 579.262 479.7 580.108 480.581 580.332V580.386C479.57 580.571 478.792 581.56 478.801 582.725C478.792 584.222 480.073 585.297 481.931 585.297ZM481.931 584.308C480.667 584.308 479.889 583.66 479.898 582.671C479.889 581.632 480.748 580.89 481.931 580.89C483.095 580.89 483.954 581.632 483.963 582.671C483.954 583.66 483.176 584.308 481.931 584.308ZM481.931 579.937C480.923 579.937 480.213 579.307 480.222 578.354C480.213 577.418 480.896 576.807 481.931 576.807C482.947 576.807 483.631 577.418 483.64 578.354C483.631 579.307 482.92 579.937 481.931 579.937ZM489.553 578.264H488.078V576.609H487.017V578.264H485.973V579.163H487.017V583.48C487.017 584.686 487.988 585.261 488.887 585.261C489.283 585.261 489.535 585.189 489.679 585.135L489.463 584.182C489.373 584.2 489.229 584.236 488.995 584.236C488.528 584.236 488.078 584.092 488.078 583.193V579.163H489.553V578.264ZM492.106 581.016C492.106 579.811 492.875 579.127 493.923 579.127C494.921 579.127 495.524 579.757 495.524 580.854V585.171H496.585V580.782C496.585 579.006 495.641 578.174 494.229 578.174C493.14 578.174 492.52 578.628 492.196 579.343H492.106V575.961H491.045V585.171H492.106V581.016Z" fill="black"/>
<path d="M543.843 585.171H549.653V584.182H545.372V584.11L547.441 581.897C549.024 580.202 549.491 579.411 549.491 578.39C549.491 576.969 548.34 575.835 546.721 575.835C545.107 575.835 543.879 576.933 543.879 578.552H544.94C544.94 577.504 545.619 576.807 546.685 576.807C547.684 576.807 548.448 577.418 548.448 578.39C548.448 579.24 547.949 579.869 546.883 581.034L543.843 584.362V585.171ZM554.495 575.961H553.38L551.077 577.49V578.624L553.326 577.13H553.38V585.171H554.495V575.961ZM561.802 579.811C561.469 578.83 560.722 578.174 559.355 578.174C557.898 578.174 556.819 579.001 556.819 580.171C556.819 581.124 557.385 581.763 558.654 582.059L559.805 582.329C560.502 582.491 560.83 582.824 560.83 583.301C560.83 583.894 560.201 584.38 559.211 584.38C558.343 584.38 557.799 584.007 557.61 583.265L556.603 583.516C556.85 584.69 557.817 585.315 559.229 585.315C560.835 585.315 561.928 584.438 561.928 583.247C561.928 582.284 561.325 581.677 560.093 581.376L559.067 581.124C558.249 580.922 557.88 580.647 557.88 580.117C557.88 579.523 558.51 579.091 559.355 579.091C560.282 579.091 560.664 579.604 560.848 580.081L561.802 579.811ZM566.276 578.264H564.801V576.609H563.74V578.264H562.696V579.163H563.74V583.48C563.74 584.686 564.711 585.261 565.61 585.261C566.006 585.261 566.258 585.189 566.402 585.135L566.186 584.182C566.096 584.2 565.952 584.236 565.718 584.236C565.251 584.236 564.801 584.092 564.801 583.193V579.163H566.276V578.264Z" fill="black"/>
<path d="M611.992 585.171H617.802V584.182H613.521V584.11L615.589 581.897C617.172 580.202 617.64 579.411 617.64 578.39C617.64 576.969 616.489 575.835 614.87 575.835C613.255 575.835 612.028 576.933 612.028 578.552H613.089C613.089 577.504 613.768 576.807 614.834 576.807C615.832 576.807 616.597 577.418 616.597 578.39C616.597 579.24 616.098 579.869 615.032 581.034L611.992 584.362V585.171ZM618.992 583.283H623.328V585.171H624.389V583.283H625.648V582.293H624.389V575.961H623.04L618.992 582.365V583.283ZM623.328 582.293H620.198V582.221L623.256 577.382H623.328V582.293ZM630.102 578.264H628.627V576.609H627.566V578.264H626.523V579.163H627.566V583.48C627.566 584.686 628.537 585.261 629.437 585.261C629.832 585.261 630.084 585.189 630.228 585.135L630.012 584.182C629.922 584.2 629.778 584.236 629.545 584.236C629.077 584.236 628.627 584.092 628.627 583.193V579.163H630.102V578.264ZM632.655 581.016C632.655 579.811 633.424 579.127 634.472 579.127C635.47 579.127 636.073 579.757 636.073 580.854V585.171H637.134V580.782C637.134 579.006 636.19 578.174 634.778 578.174C633.69 578.174 633.069 578.628 632.745 579.343H632.655V575.961H631.594V585.171H632.655V581.016Z" fill="black"/>
<path d="M682.03 585.171H687.841V584.182H683.559V584.11L685.628 581.897C687.211 580.202 687.679 579.411 687.679 578.39C687.679 576.969 686.527 575.835 684.909 575.835C683.294 575.835 682.066 576.933 682.066 578.552H683.128C683.128 577.504 683.807 576.807 684.873 576.807C685.871 576.807 686.635 577.418 686.635 578.39C686.635 579.24 686.136 579.869 685.07 581.034L682.03 584.362V585.171ZM689.733 585.171H690.902L695.003 577.005V575.961H689.103V576.951H693.852V577.023L689.733 585.171ZM699.448 578.264H697.973V576.609H696.912V578.264H695.869V579.163H696.912V583.48C696.912 584.686 697.883 585.261 698.783 585.261C699.178 585.261 699.43 585.189 699.574 585.135L699.358 584.182C699.268 584.2 699.124 584.236 698.891 584.236C698.423 584.236 697.973 584.092 697.973 583.193V579.163H699.448V578.264ZM702.001 581.016C702.001 579.811 702.77 579.127 703.818 579.127C704.816 579.127 705.419 579.757 705.419 580.854V585.171H706.48V580.782C706.48 579.006 705.536 578.174 704.124 578.174C703.036 578.174 702.415 578.628 702.091 579.343H702.001V575.961H700.94V585.171H702.001V581.016Z" fill="black"/>
<path d="M753.94 585.297C755.726 585.297 757.052 584.178 757.052 582.671C757.052 581.502 756.36 580.652 755.199 580.458V580.386C756.13 580.103 756.711 579.339 756.711 578.3C756.711 576.996 755.681 575.835 753.976 575.835C752.384 575.835 751.062 576.816 751.008 578.264H752.087C752.128 577.346 753 576.807 753.958 576.807C754.975 576.807 755.631 577.423 755.631 578.354C755.631 579.325 754.871 579.955 753.778 579.955H753.041V580.944H753.778C755.177 580.944 755.955 581.655 755.955 582.671C755.955 583.647 755.105 584.308 753.922 584.308C752.856 584.308 752.011 583.759 751.944 582.869H750.81C750.878 584.317 752.155 585.297 753.94 585.297ZM761.642 585.297C763.675 585.297 764.844 583.575 764.844 580.566C764.844 577.58 763.657 575.835 761.642 575.835C759.628 575.835 758.44 577.58 758.44 580.566C758.44 583.575 759.61 585.297 761.642 585.297ZM761.642 584.308C760.302 584.308 759.52 582.963 759.52 580.566C759.52 578.174 760.311 576.807 761.642 576.807C762.974 576.807 763.765 578.174 763.765 580.566C763.765 582.963 762.983 584.308 761.642 584.308ZM769.322 578.264H767.847V576.609H766.786V578.264H765.742V579.163H766.786V583.48C766.786 584.686 767.757 585.261 768.657 585.261C769.052 585.261 769.304 585.189 769.448 585.135L769.232 584.182C769.142 584.2 768.998 584.236 768.764 584.236C768.297 584.236 767.847 584.092 767.847 583.193V579.163H769.322V578.264ZM771.875 581.016C771.875 579.811 772.644 579.127 773.692 579.127C774.69 579.127 775.293 579.757 775.293 580.854V585.171H776.354V580.782C776.354 579.006 775.41 578.174 773.998 578.174C772.909 578.174 772.289 578.628 771.965 579.343H771.875V575.961H770.814V585.171H771.875V581.016Z" fill="black"/>
<path d="M823.53 585.297C825.315 585.297 826.642 584.178 826.642 582.671C826.642 581.502 825.95 580.652 824.789 580.458V580.386C825.72 580.103 826.3 579.339 826.3 578.3C826.3 576.996 825.27 575.835 823.566 575.835C821.974 575.835 820.652 576.816 820.598 578.264H821.677C821.718 577.346 822.59 576.807 823.548 576.807C824.564 576.807 825.221 577.423 825.221 578.354C825.221 579.325 824.461 579.955 823.368 579.955H822.631V580.944H823.368C824.767 580.944 825.545 581.655 825.545 582.671C825.545 583.647 824.695 584.308 823.512 584.308C822.446 584.308 821.601 583.759 821.533 582.869H820.4C820.468 584.317 821.745 585.297 823.53 585.297ZM831.34 585.297C833.126 585.297 834.452 584.178 834.452 582.671C834.452 581.502 833.76 580.652 832.599 580.458V580.386C833.53 580.103 834.11 579.339 834.11 578.3C834.11 576.996 833.081 575.835 831.376 575.835C829.784 575.835 828.462 576.816 828.408 578.264H829.487C829.528 577.346 830.4 576.807 831.358 576.807C832.375 576.807 833.031 577.423 833.031 578.354C833.031 579.325 832.271 579.955 831.178 579.955H830.441V580.944H831.178C832.577 580.944 833.355 581.655 833.355 582.671C833.355 583.647 832.505 584.308 831.322 584.308C830.256 584.308 829.411 583.759 829.343 582.869H828.21C828.278 584.317 829.555 585.297 831.34 585.297ZM836.056 585.171H837.118V580.8C837.118 579.865 837.855 579.181 838.862 579.181C839.146 579.181 839.438 579.235 839.51 579.253V578.174C839.389 578.165 839.11 578.156 838.952 578.156C838.125 578.156 837.405 578.624 837.154 579.307H837.082V578.264H836.056V585.171ZM842.913 585.315C844.244 585.315 844.694 584.488 844.928 584.11H845.054V585.171H846.079V575.961H845.018V579.361H844.928C844.694 579.001 844.28 578.174 842.931 578.174C841.186 578.174 839.981 579.559 839.981 581.736C839.981 583.93 841.186 585.315 842.913 585.315ZM843.057 584.362C841.726 584.362 841.042 583.193 841.042 581.718C841.042 580.261 841.708 579.127 843.057 579.127C844.352 579.127 845.036 580.171 845.036 581.718C845.036 583.283 844.334 584.362 843.057 584.362Z" fill="black"/>
<path d="M40.6178 513.799C42.3717 513.799 43.6579 512.504 43.6579 510.741C43.6579 508.956 42.4167 507.647 40.7257 507.647C40.1051 507.647 39.5025 507.868 39.1247 508.169H39.0708L39.3946 505.453H43.2441V504.463H38.4592L37.9015 508.996L38.9449 509.122C39.3271 508.848 39.9792 508.65 40.5458 508.655C41.7196 508.664 42.5786 509.554 42.5786 510.759C42.5786 511.942 41.7511 512.81 40.6178 512.81C39.6734 512.81 38.9224 512.203 38.8369 511.371H37.7576C37.8251 512.774 39.0348 513.799 40.6178 513.799Z" fill="black"/>
<path d="M35.3069 454.268H34.1916L31.8891 455.797V456.93L34.1377 455.437H34.1916V463.478H35.3069V454.268ZM40.7066 463.604C42.7393 463.604 43.9085 461.882 43.9085 458.873C43.9085 455.887 42.7213 454.142 40.7066 454.142C38.6919 454.142 37.5046 455.887 37.5046 458.873C37.5046 461.882 38.6739 463.604 40.7066 463.604ZM40.7066 462.615C39.3664 462.615 38.5839 461.27 38.5839 458.873C38.5839 456.48 39.3754 455.113 40.7066 455.113C42.0377 455.113 42.8292 456.48 42.8292 458.873C42.8292 461.27 42.0467 462.615 40.7066 462.615Z" fill="black"/>
<path d="M35.5172 403.674H34.4019L32.0993 405.203V406.336L34.3479 404.843H34.4019V412.884H35.5172V403.674ZM40.7909 413.01C42.5448 413.01 43.831 411.715 43.831 409.952C43.831 408.167 42.5898 406.858 40.8988 406.858C40.2782 406.858 39.6756 407.078 39.2978 407.38H39.2439L39.5677 404.663H43.4172V403.674H38.6323L38.0746 408.207L39.118 408.333C39.5002 408.059 40.1523 407.861 40.7189 407.865C41.8927 407.874 42.7517 408.765 42.7517 409.97C42.7517 411.153 41.9242 412.021 40.7909 412.021C39.8465 412.021 39.0955 411.414 39.01 410.582H37.9307C37.9982 411.985 39.2079 413.01 40.7909 413.01Z" fill="black"/>
<path d="M30.2881 362.212H36.0984V361.223H31.8172V361.151L33.8858 358.938C35.4688 357.243 35.9365 356.452 35.9365 355.431C35.9365 354.01 34.7853 352.876 33.1663 352.876C31.5518 352.876 30.3241 353.974 30.3241 355.593H31.3854C31.3854 354.545 32.0645 353.848 33.1303 353.848C34.1287 353.848 34.8932 354.459 34.8932 355.431C34.8932 356.281 34.394 356.91 33.3282 358.075L30.2881 361.403V362.212ZM40.7066 362.338C42.7393 362.338 43.9085 360.616 43.9085 357.607C43.9085 354.621 42.7213 352.876 40.7066 352.876C38.6919 352.876 37.5046 354.621 37.5046 357.607C37.5046 360.616 38.6739 362.338 40.7066 362.338ZM40.7066 361.349C39.3664 361.349 38.5839 360.004 38.5839 357.607C38.5839 355.215 39.3754 353.848 40.7066 353.848C42.0377 353.848 42.8292 355.215 42.8292 357.607C42.8292 360.004 42.0467 361.349 40.7066 361.349Z" fill="black"/>
<path d="M30.4984 311.945H36.3087V310.955H32.0274V310.883L34.0961 308.671C35.6791 306.975 36.1468 306.184 36.1468 305.163C36.1468 303.742 34.9955 302.609 33.3765 302.609C31.7621 302.609 30.5343 303.706 30.5343 305.325H31.5957C31.5957 304.277 32.2747 303.58 33.3406 303.58C34.3389 303.58 35.1034 304.192 35.1034 305.163C35.1034 306.013 34.6043 306.643 33.5384 307.807L30.4984 311.135V311.945ZM40.7909 312.071C42.5448 312.071 43.831 310.776 43.831 309.013C43.831 307.227 42.5898 305.919 40.8988 305.919C40.2782 305.919 39.6756 306.139 39.2978 306.44H39.2439L39.5677 303.724H43.4172V302.735H38.6323L38.0746 307.268L39.118 307.394C39.5002 307.119 40.1523 306.922 40.7189 306.926C41.8927 306.935 42.7517 307.825 42.7517 309.031C42.7517 310.213 41.9242 311.081 40.7909 311.081C39.8465 311.081 39.0955 310.474 39.01 309.642H37.9307C37.9982 311.045 39.2079 312.071 40.7909 312.071Z" fill="black"/>
<path d="M33.0044 262.006C34.7898 262.006 36.1164 260.887 36.1164 259.38C36.1164 258.211 35.4239 257.361 34.2636 257.167V257.095C35.1945 256.812 35.7746 256.048 35.7746 255.009C35.7746 253.705 34.7448 252.544 33.0404 252.544C31.4484 252.544 30.1262 253.525 30.0723 254.973H31.1516C31.192 254.055 32.0645 253.516 33.0224 253.516C34.0387 253.516 34.6953 254.132 34.6953 255.063C34.6953 256.034 33.9353 256.664 32.8425 256.664H32.105V257.653H32.8425C34.2411 257.653 35.0191 258.364 35.0191 259.38C35.0191 260.356 34.1692 261.017 32.9864 261.017C31.9206 261.017 31.0751 260.468 31.0077 259.578H29.8744C29.9418 261.026 31.219 262.006 33.0044 262.006ZM40.7066 262.006C42.7393 262.006 43.9085 260.284 43.9085 257.275C43.9085 254.289 42.7213 252.544 40.7066 252.544C38.6919 252.544 37.5046 254.289 37.5046 257.275C37.5046 260.284 38.6739 262.006 40.7066 262.006ZM40.7066 261.017C39.3664 261.017 38.5839 259.672 38.5839 257.275C38.5839 254.883 39.3754 253.516 40.7066 253.516C42.0377 253.516 42.8292 254.883 42.8292 257.275C42.8292 259.672 42.0467 261.017 40.7066 261.017Z" fill="black"/>
<path d="M33.2146 212.176C35 212.176 36.3267 211.056 36.3267 209.55C36.3267 208.381 35.6341 207.531 34.4738 207.337V207.265C35.4048 206.982 35.9849 206.217 35.9849 205.179C35.9849 203.874 34.955 202.714 33.2506 202.714C31.6586 202.714 30.3365 203.695 30.2825 205.143H31.3618C31.4023 204.225 32.2747 203.686 33.2326 203.686C34.249 203.686 34.9056 204.302 34.9056 205.233C34.9056 206.204 34.1455 206.834 33.0527 206.834H32.3152V207.823H33.0527C34.4514 207.823 35.2294 208.534 35.2294 209.55C35.2294 210.526 34.3794 211.187 33.1967 211.187C32.1308 211.187 31.2854 210.638 31.2179 209.748H30.0846C30.1521 211.196 31.4293 212.176 33.2146 212.176ZM40.7909 212.176C42.5448 212.176 43.831 210.881 43.831 209.118C43.831 207.333 42.5898 206.024 40.8988 206.024C40.2782 206.024 39.6756 206.244 39.2978 206.546H39.2439L39.5677 203.83H43.4172V202.84H38.6323L38.0746 207.373L39.118 207.499C39.5002 207.225 40.1523 207.027 40.7189 207.031C41.8927 207.04 42.7517 207.931 42.7517 209.136C42.7517 210.319 41.9242 211.187 40.7909 211.187C39.8465 211.187 39.0955 210.58 39.01 209.748H37.9307C37.9982 211.151 39.2079 212.176 40.7909 212.176Z" fill="black"/>
<path d="M29.6147 160.083H33.9499V161.972H35.0113V160.083H36.2705V159.094H35.0113V152.762H33.6621L29.6147 159.166V160.083ZM33.9499 159.094H30.8199V159.022L33.878 154.183H33.9499V159.094ZM40.7066 162.098C42.7393 162.098 43.9085 160.376 43.9085 157.367C43.9085 154.381 42.7213 152.636 40.7066 152.636C38.6919 152.636 37.5046 154.381 37.5046 157.367C37.5046 160.376 38.6739 162.098 40.7066 162.098ZM40.7066 161.109C39.3664 161.109 38.5839 159.764 38.5839 157.367C38.5839 154.975 39.3754 153.607 40.7066 153.607C42.0377 153.607 42.8292 154.975 42.8292 157.367C42.8292 159.764 42.0467 161.109 40.7066 161.109Z" fill="black"/>
<path d="M29.8249 109.927H34.1602V111.816H35.2215V109.927H36.4807V108.938H35.2215V102.606H33.8723L29.8249 109.01V109.927ZM34.1602 108.938H31.0302V108.866L34.0882 104.027H34.1602V108.938ZM40.7909 111.942C42.5448 111.942 43.831 110.647 43.831 108.884C43.831 107.098 42.5898 105.79 40.8988 105.79C40.2782 105.79 39.6756 106.01 39.2978 106.311H39.2439L39.5677 103.595H43.4172V102.606H38.6323L38.0746 107.139L39.118 107.265C39.5002 106.99 40.1523 106.793 40.7189 106.797C41.8927 106.806 42.7517 107.697 42.7517 108.902C42.7517 110.085 41.9242 110.952 40.7909 110.952C39.8465 110.952 39.0955 110.345 39.01 109.513H37.9307C37.9982 110.916 39.2079 111.942 40.7909 111.942Z" fill="black"/>
<path d="M33.1292 62.0004C34.8831 62.0004 36.1693 60.7053 36.1693 58.9424C36.1693 57.157 34.9281 55.8483 33.2371 55.8483C32.6165 55.8483 32.0139 56.0687 31.6361 56.37H31.5822L31.906 53.6537H35.7555V52.6644H30.9706L30.4129 57.1975L31.4563 57.3234C31.8385 57.0491 32.4906 56.8512 33.0572 56.8557C34.231 56.8647 35.09 57.7551 35.09 58.9604C35.09 60.1431 34.2625 61.0111 33.1292 61.0111C32.1848 61.0111 31.4338 60.4039 31.3483 59.572H30.269C30.3365 60.9751 31.5462 62.0004 33.1292 62.0004ZM40.7066 62.0004C42.7393 62.0004 43.9085 60.278 43.9085 57.2694C43.9085 54.2833 42.7213 52.5384 40.7066 52.5384C38.6919 52.5384 37.5046 54.2833 37.5046 57.2694C37.5046 60.278 38.6739 62.0004 40.7066 62.0004ZM40.7066 61.0111C39.3664 61.0111 38.5839 59.6664 38.5839 57.2694C38.5839 54.877 39.3754 53.5098 40.7066 53.5098C42.0377 53.5098 42.8292 54.877 42.8292 57.2694C42.8292 59.6664 42.0467 61.0111 40.7066 61.0111Z" fill="black"/>
<path d="M33.3394 12.0942C35.0933 12.0942 36.3795 10.799 36.3795 9.03612C36.3795 7.25075 35.1383 5.94208 33.4474 5.94208C32.8268 5.94208 32.2241 6.16244 31.8464 6.46375H31.7924L32.1162 3.74748H35.9658V2.7581H31.1808L30.6232 7.29123L31.6665 7.41715C32.0488 7.14282 32.7008 6.94495 33.2675 6.94945C34.4412 6.95844 35.3002 7.84887 35.3002 9.05411C35.3002 10.2369 34.4727 11.1048 33.3394 11.1048C32.395 11.1048 31.644 10.4977 31.5586 9.66572H30.4793C30.5467 11.0688 31.7564 12.0942 33.3394 12.0942ZM40.7909 12.0942C42.5448 12.0942 43.831 10.799 43.831 9.03612C43.831 7.25075 42.5898 5.94208 40.8988 5.94208C40.2782 5.94208 39.6756 6.16244 39.2978 6.46375H39.2439L39.5677 3.74748H43.4172V2.7581H38.6323L38.0746 7.29123L39.118 7.41715C39.5002 7.14282 40.1523 6.94495 40.7189 6.94945C41.8927 6.95844 42.7517 7.84887 42.7517 9.05411C42.7517 10.2369 41.9242 11.1048 40.7909 11.1048C39.8465 11.1048 39.0955 10.4977 39.01 9.66572H37.9307C37.9982 11.0688 39.2079 12.0942 40.7909 12.0942Z" fill="black"/>
</svg>
