<svg width="1308" height="243" viewBox="0 0 1308 243" fill="none" xmlns="http://www.w3.org/2000/svg">
<path d="M393.433 143.296C152.635 135.003 66.8711 -97.2713 -80.1636 143.296V671.384H1344.21V173.652C1166.79 -114.926 1051.04 35.6723 1002.49 78.2271C839.94 220.718 769.821 48.4704 657.22 98.6082C511.58 163.457 446.22 143.296 393.433 143.296Z" fill="#27EBBC" fill-opacity="0.13"/>
<path d="M221.382 21.4035C130.024 40.0544 19.0985 169.057 -24.9443 231.226V575.976H1325.61V47.1711C1296.35 16.4953 1228.4 -29.8865 1190.65 29.9927C1148.18 130.609 1068.59 219.898 949.04 145.334C809.36 58.2144 671.568 153.923 636.648 153.923C479.98 210.367 335.581 -1.9101 221.382 21.4035Z" fill="#FFC701" fill-opacity="0.11"/>
</svg>
